%TF.GenerationSoftware,Flux,Flux PCB Export,1*%
%TF.CreationDate,2026-09-12T20:35:24+00:00*%
%TF.ProjectId,input,696e7075-742e-46b6-9963-61645f706362,rev?*%
%TF.SameCoordinates,Original*%
%TF.FileFunction,Legend,Top*%
%TF.FilePolarity,Positive*%
%FSLAX46Y46*%
G04 Gerber Fmt 4.6, Leading zero omitted, Abs format (unit mm)*
G04 Filename: acidbrain-midi-sequencer-hat*
G04 Build it with Flux! Visit our site at: https://www.flux.ai (Flux) date 2026-09-12 20:35:24*
%MOMM*%
%LPD*%
G01*
G04 APERTURE LIST*
%ADD10C,0.200000*%
%ADD11C,0.100000*%
%ADD12C,0.120000*%
%ADD13C,0.050000*%
%ADD14C,0.127000*%
%ADD15C,0.010000*%
G04 APERTURE END LIST*
%TO.C,RV1*%
D10*
X46500000Y-146000000D02*
X46427281Y-147109473D01*
X46427281Y-147109473D02*
X46210370Y-148199962D01*
X46210370Y-148199962D02*
X45852976Y-149252809D01*
X45852976Y-149252809D02*
X45361216Y-150250000D01*
X45361216Y-150250000D02*
X44743503Y-151174472D01*
X44743503Y-151174472D02*
X44010408Y-152010408D01*
X44010408Y-152010408D02*
X43174472Y-152743503D01*
X43174472Y-152743503D02*
X42250000Y-153361216D01*
X42250000Y-153361216D02*
X41252809Y-153852976D01*
X41252809Y-153852976D02*
X40199962Y-154210370D01*
X40199962Y-154210370D02*
X39109473Y-154427281D01*
X39109473Y-154427281D02*
X38000000Y-154500000D01*
X38000000Y-154500000D02*
X36890527Y-154427281D01*
X36890527Y-154427281D02*
X35800038Y-154210370D01*
X35800038Y-154210370D02*
X34747191Y-153852976D01*
X34747191Y-153852976D02*
X33750000Y-153361216D01*
X33750000Y-153361216D02*
X32825528Y-152743503D01*
X32825528Y-152743503D02*
X31989592Y-152010408D01*
X31989592Y-152010408D02*
X31256497Y-151174472D01*
X31256497Y-151174472D02*
X30638784Y-150250000D01*
X30638784Y-150250000D02*
X30147024Y-149252809D01*
X30147024Y-149252809D02*
X29789630Y-148199962D01*
X29789630Y-148199962D02*
X29572719Y-147109473D01*
X29572719Y-147109473D02*
X29500000Y-146000000D01*
X29500000Y-146000000D02*
X29572719Y-144890527D01*
X29572719Y-144890527D02*
X29789630Y-143800038D01*
X29789630Y-143800038D02*
X30147024Y-142747191D01*
X30147024Y-142747191D02*
X30638784Y-141750000D01*
X30638784Y-141750000D02*
X31256497Y-140825528D01*
X31256497Y-140825528D02*
X31989592Y-139989592D01*
X31989592Y-139989592D02*
X32825528Y-139256497D01*
X32825528Y-139256497D02*
X33750000Y-138638784D01*
X33750000Y-138638784D02*
X34747191Y-138147024D01*
X34747191Y-138147024D02*
X35800038Y-137789630D01*
X35800038Y-137789630D02*
X36890527Y-137572719D01*
X36890527Y-137572719D02*
X38000000Y-137500000D01*
X38000000Y-137500000D02*
X39109473Y-137572719D01*
X39109473Y-137572719D02*
X40199962Y-137789630D01*
X40199962Y-137789630D02*
X41252809Y-138147024D01*
X41252809Y-138147024D02*
X42250000Y-138638784D01*
X42250000Y-138638784D02*
X43174472Y-139256497D01*
X43174472Y-139256497D02*
X44010408Y-139989592D01*
X44010408Y-139989592D02*
X44743503Y-140825528D01*
X44743503Y-140825528D02*
X45361216Y-141750000D01*
X45361216Y-141750000D02*
X45852976Y-142747191D01*
X45852976Y-142747191D02*
X46210370Y-143800038D01*
X46210370Y-143800038D02*
X46427281Y-144890527D01*
X46427281Y-144890527D02*
X46500000Y-146000000D01*
X30700000Y-158500000D02*
X45300000Y-158500000D01*
X30700000Y-158500000D02*
X30700000Y-150400000D01*
X45300000Y-158500000D02*
X45300000Y-150400000D01*
D11*
X46500000Y-146000000D02*
X46427281Y-147109473D01*
X46427281Y-147109473D02*
X46210370Y-148199962D01*
X46210370Y-148199962D02*
X45852976Y-149252809D01*
X45852976Y-149252809D02*
X45361216Y-150250000D01*
X45361216Y-150250000D02*
X44743503Y-151174472D01*
X44743503Y-151174472D02*
X44010408Y-152010408D01*
X44010408Y-152010408D02*
X43174472Y-152743503D01*
X43174472Y-152743503D02*
X42250000Y-153361216D01*
X42250000Y-153361216D02*
X41252809Y-153852976D01*
X41252809Y-153852976D02*
X40199962Y-154210370D01*
X40199962Y-154210370D02*
X39109473Y-154427281D01*
X39109473Y-154427281D02*
X38000000Y-154500000D01*
X38000000Y-154500000D02*
X36890527Y-154427281D01*
X36890527Y-154427281D02*
X35800038Y-154210370D01*
X35800038Y-154210370D02*
X34747191Y-153852976D01*
X34747191Y-153852976D02*
X33750000Y-153361216D01*
X33750000Y-153361216D02*
X32825528Y-152743503D01*
X32825528Y-152743503D02*
X31989592Y-152010408D01*
X31989592Y-152010408D02*
X31256497Y-151174472D01*
X31256497Y-151174472D02*
X30638784Y-150250000D01*
X30638784Y-150250000D02*
X30147024Y-149252809D01*
X30147024Y-149252809D02*
X29789630Y-148199962D01*
X29789630Y-148199962D02*
X29572719Y-147109473D01*
X29572719Y-147109473D02*
X29500000Y-146000000D01*
X29500000Y-146000000D02*
X29572719Y-144890527D01*
X29572719Y-144890527D02*
X29789630Y-143800038D01*
X29789630Y-143800038D02*
X30147024Y-142747191D01*
X30147024Y-142747191D02*
X30638784Y-141750000D01*
X30638784Y-141750000D02*
X31256497Y-140825528D01*
X31256497Y-140825528D02*
X31989592Y-139989592D01*
X31989592Y-139989592D02*
X32825528Y-139256497D01*
X32825528Y-139256497D02*
X33750000Y-138638784D01*
X33750000Y-138638784D02*
X34747191Y-138147024D01*
X34747191Y-138147024D02*
X35800038Y-137789630D01*
X35800038Y-137789630D02*
X36890527Y-137572719D01*
X36890527Y-137572719D02*
X38000000Y-137500000D01*
X38000000Y-137500000D02*
X39109473Y-137572719D01*
X39109473Y-137572719D02*
X40199962Y-137789630D01*
X40199962Y-137789630D02*
X41252809Y-138147024D01*
X41252809Y-138147024D02*
X42250000Y-138638784D01*
X42250000Y-138638784D02*
X43174472Y-139256497D01*
X43174472Y-139256497D02*
X44010408Y-139989592D01*
X44010408Y-139989592D02*
X44743503Y-140825528D01*
X44743503Y-140825528D02*
X45361216Y-141750000D01*
X45361216Y-141750000D02*
X45852976Y-142747191D01*
X45852976Y-142747191D02*
X46210370Y-143800038D01*
X46210370Y-143800038D02*
X46427281Y-144890527D01*
X46427281Y-144890527D02*
X46500000Y-146000000D01*
X28500000Y-136500000D02*
X47500000Y-136500000D01*
X47500000Y-136500000D02*
X47500000Y-164240000D01*
X47500000Y-164240000D02*
X28500000Y-164240000D01*
X28500000Y-164240000D02*
X28500000Y-136500000D01*
X30700000Y-150400000D02*
X30700000Y-158500000D01*
X30700000Y-158500000D02*
X45300000Y-158500000D01*
X45300000Y-158500000D02*
X45300000Y-150400000D01*
%TO.C,R3*%
D12*
X201270000Y-74370000D02*
X201270000Y-74040000D01*
X194730000Y-74370000D02*
X201270000Y-74370000D01*
X194730000Y-74040000D02*
X194730000Y-74370000D01*
X201270000Y-71630000D02*
X201270000Y-71960000D01*
X194730000Y-71630000D02*
X201270000Y-71630000D01*
X194730000Y-71960000D02*
X194730000Y-71630000D01*
%TO.C,SW4*%
X175015000Y-33015000D02*
X188985000Y-33015000D01*
X188985000Y-33015000D02*
X188985000Y-46985000D01*
X188985000Y-46985000D02*
X175015000Y-46985000D01*
X175015000Y-46985000D02*
X175015000Y-33015000D01*
%TO.C,R1*%
X45270000Y-41370000D02*
X45270000Y-41040000D01*
X38730000Y-41370000D02*
X45270000Y-41370000D01*
X38730000Y-41040000D02*
X38730000Y-41370000D01*
X45270000Y-38630000D02*
X45270000Y-38960000D01*
X38730000Y-38630000D02*
X45270000Y-38630000D01*
X38730000Y-38960000D02*
X38730000Y-38630000D01*
%TO.C,U3*%
D13*
X215385000Y-111305000D02*
X224615000Y-111305000D01*
X224615000Y-111305000D02*
X224615000Y-120695000D01*
X224615000Y-120695000D02*
X215385000Y-120695000D01*
X215385000Y-120695000D02*
X215385000Y-111305000D01*
D10*
X215635000Y-111555000D02*
X223300000Y-111555000D01*
X216700000Y-120445000D02*
X223300000Y-120445000D01*
%TO.C,J3*%
X215205920Y-144136037D02*
X215231802Y-144139445D01*
X215231802Y-144139445D02*
X215255920Y-144149435D01*
X215255920Y-144149435D02*
X215276631Y-144165326D01*
X215276631Y-144165326D02*
X215292523Y-144186037D01*
X215292523Y-144186037D02*
X215302513Y-144210155D01*
X215302513Y-144210155D02*
X215305921Y-144236037D01*
X215305921Y-144236037D02*
X215302514Y-144261919D01*
X215302514Y-144261919D02*
X215292524Y-144286037D01*
X215292524Y-144286037D02*
X215276632Y-144306748D01*
X215276632Y-144306748D02*
X215255922Y-144322640D01*
X215255922Y-144322640D02*
X215231804Y-144332630D01*
X215231804Y-144332630D02*
X215205922Y-144336037D01*
X215205922Y-144336037D02*
X215180040Y-144332630D01*
X215180040Y-144332630D02*
X215155922Y-144322640D01*
X215155922Y-144322640D02*
X215135211Y-144306749D01*
X215135211Y-144306749D02*
X215119319Y-144286038D01*
X215119319Y-144286038D02*
X215109329Y-144261920D01*
X215109329Y-144261920D02*
X215105921Y-144236038D01*
X215105921Y-144236038D02*
X215109328Y-144210156D01*
X215109328Y-144210156D02*
X215119318Y-144186038D01*
X215119318Y-144186038D02*
X215135210Y-144165327D01*
X215135210Y-144165327D02*
X215155920Y-144149435D01*
X215155920Y-144149435D02*
X215180038Y-144139445D01*
X215180038Y-144139445D02*
X215205920Y-144136037D01*
D14*
X227800073Y-164999945D02*
X212000073Y-165000061D01*
X211999927Y-145000061D02*
X227799927Y-144999945D01*
D13*
X228050075Y-165249943D02*
X211750075Y-165250063D01*
X211750075Y-165250063D02*
X211750046Y-161250063D01*
X211750046Y-161250063D02*
X211550046Y-161250064D01*
X211550046Y-161250064D02*
X211549954Y-148750064D01*
X211549954Y-148750064D02*
X211749954Y-148750063D01*
X211749954Y-148750063D02*
X211749925Y-144750063D01*
X211749925Y-144750063D02*
X228049925Y-144749943D01*
X228049925Y-144749943D02*
X228050075Y-165249943D01*
D14*
X212000073Y-165000061D02*
X212000048Y-161500061D01*
X227800073Y-164999945D02*
X227799927Y-144999945D01*
X211999952Y-148500061D02*
X211999927Y-145000061D01*
%TO.C,SW1*%
D12*
X51015000Y-33015000D02*
X64985000Y-33015000D01*
X64985000Y-33015000D02*
X64985000Y-46985000D01*
X64985000Y-46985000D02*
X51015000Y-46985000D01*
X51015000Y-46985000D02*
X51015000Y-33015000D01*
%TO.C,RV9*%
D10*
X169500000Y-105000000D02*
X169427281Y-106109473D01*
X169427281Y-106109473D02*
X169210370Y-107199962D01*
X169210370Y-107199962D02*
X168852976Y-108252809D01*
X168852976Y-108252809D02*
X168361216Y-109250000D01*
X168361216Y-109250000D02*
X167743503Y-110174472D01*
X167743503Y-110174472D02*
X167010408Y-111010408D01*
X167010408Y-111010408D02*
X166174472Y-111743503D01*
X166174472Y-111743503D02*
X165250000Y-112361216D01*
X165250000Y-112361216D02*
X164252809Y-112852976D01*
X164252809Y-112852976D02*
X163199962Y-113210370D01*
X163199962Y-113210370D02*
X162109473Y-113427281D01*
X162109473Y-113427281D02*
X161000000Y-113500000D01*
X161000000Y-113500000D02*
X159890527Y-113427281D01*
X159890527Y-113427281D02*
X158800038Y-113210370D01*
X158800038Y-113210370D02*
X157747191Y-112852976D01*
X157747191Y-112852976D02*
X156750000Y-112361216D01*
X156750000Y-112361216D02*
X155825528Y-111743503D01*
X155825528Y-111743503D02*
X154989592Y-111010408D01*
X154989592Y-111010408D02*
X154256497Y-110174472D01*
X154256497Y-110174472D02*
X153638784Y-109250000D01*
X153638784Y-109250000D02*
X153147024Y-108252809D01*
X153147024Y-108252809D02*
X152789630Y-107199962D01*
X152789630Y-107199962D02*
X152572719Y-106109473D01*
X152572719Y-106109473D02*
X152500000Y-105000000D01*
X152500000Y-105000000D02*
X152572719Y-103890527D01*
X152572719Y-103890527D02*
X152789630Y-102800038D01*
X152789630Y-102800038D02*
X153147024Y-101747191D01*
X153147024Y-101747191D02*
X153638784Y-100750000D01*
X153638784Y-100750000D02*
X154256497Y-99825528D01*
X154256497Y-99825528D02*
X154989592Y-98989592D01*
X154989592Y-98989592D02*
X155825528Y-98256497D01*
X155825528Y-98256497D02*
X156750000Y-97638784D01*
X156750000Y-97638784D02*
X157747191Y-97147024D01*
X157747191Y-97147024D02*
X158800038Y-96789630D01*
X158800038Y-96789630D02*
X159890527Y-96572719D01*
X159890527Y-96572719D02*
X161000000Y-96500000D01*
X161000000Y-96500000D02*
X162109473Y-96572719D01*
X162109473Y-96572719D02*
X163199962Y-96789630D01*
X163199962Y-96789630D02*
X164252809Y-97147024D01*
X164252809Y-97147024D02*
X165250000Y-97638784D01*
X165250000Y-97638784D02*
X166174472Y-98256497D01*
X166174472Y-98256497D02*
X167010408Y-98989592D01*
X167010408Y-98989592D02*
X167743503Y-99825528D01*
X167743503Y-99825528D02*
X168361216Y-100750000D01*
X168361216Y-100750000D02*
X168852976Y-101747191D01*
X168852976Y-101747191D02*
X169210370Y-102800038D01*
X169210370Y-102800038D02*
X169427281Y-103890527D01*
X169427281Y-103890527D02*
X169500000Y-105000000D01*
X153700000Y-117500000D02*
X168300000Y-117500000D01*
X153700000Y-117500000D02*
X153700000Y-109400000D01*
X168300000Y-117500000D02*
X168300000Y-109400000D01*
D11*
X169500000Y-105000000D02*
X169427281Y-106109473D01*
X169427281Y-106109473D02*
X169210370Y-107199962D01*
X169210370Y-107199962D02*
X168852976Y-108252809D01*
X168852976Y-108252809D02*
X168361216Y-109250000D01*
X168361216Y-109250000D02*
X167743503Y-110174472D01*
X167743503Y-110174472D02*
X167010408Y-111010408D01*
X167010408Y-111010408D02*
X166174472Y-111743503D01*
X166174472Y-111743503D02*
X165250000Y-112361216D01*
X165250000Y-112361216D02*
X164252809Y-112852976D01*
X164252809Y-112852976D02*
X163199962Y-113210370D01*
X163199962Y-113210370D02*
X162109473Y-113427281D01*
X162109473Y-113427281D02*
X161000000Y-113500000D01*
X161000000Y-113500000D02*
X159890527Y-113427281D01*
X159890527Y-113427281D02*
X158800038Y-113210370D01*
X158800038Y-113210370D02*
X157747191Y-112852976D01*
X157747191Y-112852976D02*
X156750000Y-112361216D01*
X156750000Y-112361216D02*
X155825528Y-111743503D01*
X155825528Y-111743503D02*
X154989592Y-111010408D01*
X154989592Y-111010408D02*
X154256497Y-110174472D01*
X154256497Y-110174472D02*
X153638784Y-109250000D01*
X153638784Y-109250000D02*
X153147024Y-108252809D01*
X153147024Y-108252809D02*
X152789630Y-107199962D01*
X152789630Y-107199962D02*
X152572719Y-106109473D01*
X152572719Y-106109473D02*
X152500000Y-105000000D01*
X152500000Y-105000000D02*
X152572719Y-103890527D01*
X152572719Y-103890527D02*
X152789630Y-102800038D01*
X152789630Y-102800038D02*
X153147024Y-101747191D01*
X153147024Y-101747191D02*
X153638784Y-100750000D01*
X153638784Y-100750000D02*
X154256497Y-99825528D01*
X154256497Y-99825528D02*
X154989592Y-98989592D01*
X154989592Y-98989592D02*
X155825528Y-98256497D01*
X155825528Y-98256497D02*
X156750000Y-97638784D01*
X156750000Y-97638784D02*
X157747191Y-97147024D01*
X157747191Y-97147024D02*
X158800038Y-96789630D01*
X158800038Y-96789630D02*
X159890527Y-96572719D01*
X159890527Y-96572719D02*
X161000000Y-96500000D01*
X161000000Y-96500000D02*
X162109473Y-96572719D01*
X162109473Y-96572719D02*
X163199962Y-96789630D01*
X163199962Y-96789630D02*
X164252809Y-97147024D01*
X164252809Y-97147024D02*
X165250000Y-97638784D01*
X165250000Y-97638784D02*
X166174472Y-98256497D01*
X166174472Y-98256497D02*
X167010408Y-98989592D01*
X167010408Y-98989592D02*
X167743503Y-99825528D01*
X167743503Y-99825528D02*
X168361216Y-100750000D01*
X168361216Y-100750000D02*
X168852976Y-101747191D01*
X168852976Y-101747191D02*
X169210370Y-102800038D01*
X169210370Y-102800038D02*
X169427281Y-103890527D01*
X169427281Y-103890527D02*
X169500000Y-105000000D01*
X151500000Y-95500000D02*
X170500000Y-95500000D01*
X170500000Y-95500000D02*
X170500000Y-123240000D01*
X170500000Y-123240000D02*
X151500000Y-123240000D01*
X151500000Y-123240000D02*
X151500000Y-95500000D01*
X153700000Y-109400000D02*
X153700000Y-117500000D01*
X153700000Y-117500000D02*
X168300000Y-117500000D01*
X168300000Y-117500000D02*
X168300000Y-109400000D01*
%TO.C,R4*%
D12*
X201270000Y-41370000D02*
X201270000Y-41040000D01*
X194730000Y-41370000D02*
X201270000Y-41370000D01*
X194730000Y-41040000D02*
X194730000Y-41370000D01*
X201270000Y-38630000D02*
X201270000Y-38960000D01*
X194730000Y-38630000D02*
X201270000Y-38630000D01*
X194730000Y-38960000D02*
X194730000Y-38630000D01*
%TO.C,C3*%
D11*
X19500000Y-45000000D02*
X19414815Y-45647048D01*
X19414815Y-45647048D02*
X19165064Y-46250000D01*
X19165064Y-46250000D02*
X18767767Y-46767767D01*
X18767767Y-46767767D02*
X18250000Y-47165064D01*
X18250000Y-47165064D02*
X17647048Y-47414815D01*
X17647048Y-47414815D02*
X17000000Y-47500000D01*
X17000000Y-47500000D02*
X16352952Y-47414815D01*
X16352952Y-47414815D02*
X15750000Y-47165064D01*
X15750000Y-47165064D02*
X15232233Y-46767767D01*
X15232233Y-46767767D02*
X14834936Y-46250000D01*
X14834936Y-46250000D02*
X14585185Y-45647048D01*
X14585185Y-45647048D02*
X14500000Y-45000000D01*
X14500000Y-45000000D02*
X14585185Y-44352952D01*
X14585185Y-44352952D02*
X14834936Y-43750000D01*
X14834936Y-43750000D02*
X15232233Y-43232233D01*
X15232233Y-43232233D02*
X15750000Y-42834936D01*
X15750000Y-42834936D02*
X16352952Y-42585185D01*
X16352952Y-42585185D02*
X17000000Y-42500000D01*
X17000000Y-42500000D02*
X17647048Y-42585185D01*
X17647048Y-42585185D02*
X18250000Y-42834936D01*
X18250000Y-42834936D02*
X18767767Y-43232233D01*
X18767767Y-43232233D02*
X19165064Y-43750000D01*
X19165064Y-43750000D02*
X19414815Y-44352952D01*
X19414815Y-44352952D02*
X19500000Y-45000000D01*
X14866400Y-43912500D02*
X15366400Y-43912500D01*
X15116400Y-43662500D02*
X15116400Y-44162500D01*
D12*
X19620000Y-45000000D02*
X19530726Y-45678106D01*
X19530726Y-45678106D02*
X19268987Y-46310000D01*
X19268987Y-46310000D02*
X18852620Y-46852620D01*
X18852620Y-46852620D02*
X18310000Y-47268987D01*
X18310000Y-47268987D02*
X17678106Y-47530726D01*
X17678106Y-47530726D02*
X17000000Y-47620000D01*
X17000000Y-47620000D02*
X16321894Y-47530726D01*
X16321894Y-47530726D02*
X15690000Y-47268987D01*
X15690000Y-47268987D02*
X15147380Y-46852620D01*
X15147380Y-46852620D02*
X14731013Y-46310000D01*
X14731013Y-46310000D02*
X14469274Y-45678106D01*
X14469274Y-45678106D02*
X14380000Y-45000000D01*
X14380000Y-45000000D02*
X14469274Y-44321894D01*
X14469274Y-44321894D02*
X14731013Y-43690000D01*
X14731013Y-43690000D02*
X15147380Y-43147380D01*
X15147380Y-43147380D02*
X15690000Y-42731013D01*
X15690000Y-42731013D02*
X16321894Y-42469274D01*
X16321894Y-42469274D02*
X17000000Y-42380000D01*
X17000000Y-42380000D02*
X17678106Y-42469274D01*
X17678106Y-42469274D02*
X18310000Y-42731013D01*
X18310000Y-42731013D02*
X18852620Y-43147380D01*
X18852620Y-43147380D02*
X19268987Y-43690000D01*
X19268987Y-43690000D02*
X19530726Y-44321894D01*
X19530726Y-44321894D02*
X19620000Y-45000000D01*
D13*
X19750000Y-45000000D02*
X19656296Y-45711752D01*
X19656296Y-45711752D02*
X19381570Y-46375000D01*
X19381570Y-46375000D02*
X18944544Y-46944544D01*
X18944544Y-46944544D02*
X18375000Y-47381570D01*
X18375000Y-47381570D02*
X17711752Y-47656296D01*
X17711752Y-47656296D02*
X17000000Y-47750000D01*
X17000000Y-47750000D02*
X16288248Y-47656296D01*
X16288248Y-47656296D02*
X15625000Y-47381570D01*
X15625000Y-47381570D02*
X15055456Y-46944544D01*
X15055456Y-46944544D02*
X14618430Y-46375000D01*
X14618430Y-46375000D02*
X14343704Y-45711752D01*
X14343704Y-45711752D02*
X14250000Y-45000000D01*
X14250000Y-45000000D02*
X14343704Y-44288248D01*
X14343704Y-44288248D02*
X14618430Y-43625000D01*
X14618430Y-43625000D02*
X15055456Y-43055456D01*
X15055456Y-43055456D02*
X15625000Y-42618430D01*
X15625000Y-42618430D02*
X16288248Y-42343704D01*
X16288248Y-42343704D02*
X17000000Y-42250000D01*
X17000000Y-42250000D02*
X17711752Y-42343704D01*
X17711752Y-42343704D02*
X18375000Y-42618430D01*
X18375000Y-42618430D02*
X18944544Y-43055456D01*
X18944544Y-43055456D02*
X19381570Y-43625000D01*
X19381570Y-43625000D02*
X19656296Y-44288248D01*
X19656296Y-44288248D02*
X19750000Y-45000000D01*
D12*
X17000000Y-46040000D02*
X17000000Y-47580000D01*
X17000000Y-42420000D02*
X17000000Y-43960000D01*
X17040000Y-46040000D02*
X17040000Y-47580000D01*
X17040000Y-42420000D02*
X17040000Y-43960000D01*
X17080000Y-42421000D02*
X17080000Y-43960000D01*
X17080000Y-46040000D02*
X17080000Y-47579000D01*
X17120000Y-42422000D02*
X17120000Y-43960000D01*
X17120000Y-46040000D02*
X17120000Y-47578000D01*
X17160000Y-42424000D02*
X17160000Y-43960000D01*
X17160000Y-46040000D02*
X17160000Y-47576000D01*
X17200000Y-42427000D02*
X17200000Y-43960000D01*
X17200000Y-46040000D02*
X17200000Y-47573000D01*
X17240000Y-42431000D02*
X17240000Y-43960000D01*
X17240000Y-46040000D02*
X17240000Y-47569000D01*
X17280000Y-42435000D02*
X17280000Y-43960000D01*
X17280000Y-46040000D02*
X17280000Y-47565000D01*
X17320000Y-42439000D02*
X17320000Y-43960000D01*
X17320000Y-46040000D02*
X17320000Y-47561000D01*
X17360000Y-42444000D02*
X17360000Y-43960000D01*
X17360000Y-46040000D02*
X17360000Y-47556000D01*
X17400000Y-42450000D02*
X17400000Y-43960000D01*
X17400000Y-46040000D02*
X17400000Y-47550000D01*
X17440000Y-42457000D02*
X17440000Y-43960000D01*
X17440000Y-46040000D02*
X17440000Y-47543000D01*
X17480000Y-42464000D02*
X17480000Y-43960000D01*
X17480000Y-46040000D02*
X17480000Y-47536000D01*
X17520000Y-42472000D02*
X17520000Y-43960000D01*
X17520000Y-46040000D02*
X17520000Y-47528000D01*
X17560000Y-42480000D02*
X17560000Y-43960000D01*
X17560000Y-46040000D02*
X17560000Y-47520000D01*
X17600000Y-42489000D02*
X17600000Y-43960000D01*
X17600000Y-46040000D02*
X17600000Y-47511000D01*
X17640000Y-42499000D02*
X17640000Y-43960000D01*
X17640000Y-46040000D02*
X17640000Y-47501000D01*
X17680000Y-42509000D02*
X17680000Y-43960000D01*
X17680000Y-46040000D02*
X17680000Y-47491000D01*
X17721000Y-42520000D02*
X17721000Y-43960000D01*
X17721000Y-46040000D02*
X17721000Y-47480000D01*
X17761000Y-42532000D02*
X17761000Y-43960000D01*
X17761000Y-46040000D02*
X17761000Y-47468000D01*
X17801000Y-42545000D02*
X17801000Y-43960000D01*
X17801000Y-46040000D02*
X17801000Y-47455000D01*
X17841000Y-42558000D02*
X17841000Y-43960000D01*
X17841000Y-46040000D02*
X17841000Y-47442000D01*
X17881000Y-42572000D02*
X17881000Y-43960000D01*
X17881000Y-46040000D02*
X17881000Y-47428000D01*
X17921000Y-42586000D02*
X17921000Y-43960000D01*
X17921000Y-46040000D02*
X17921000Y-47414000D01*
X17961000Y-42602000D02*
X17961000Y-43960000D01*
X17961000Y-46040000D02*
X17961000Y-47398000D01*
X18001000Y-42618000D02*
X18001000Y-43960000D01*
X18001000Y-46040000D02*
X18001000Y-47382000D01*
X18041000Y-42635000D02*
X18041000Y-43960000D01*
X18041000Y-46040000D02*
X18041000Y-47365000D01*
X18081000Y-42652000D02*
X18081000Y-43960000D01*
X18081000Y-46040000D02*
X18081000Y-47348000D01*
X18121000Y-42671000D02*
X18121000Y-43960000D01*
X18121000Y-46040000D02*
X18121000Y-47329000D01*
X18161000Y-42690000D02*
X18161000Y-43960000D01*
X18161000Y-46040000D02*
X18161000Y-47310000D01*
X18201000Y-42710000D02*
X18201000Y-43960000D01*
X18201000Y-46040000D02*
X18201000Y-47290000D01*
X18241000Y-42732000D02*
X18241000Y-43960000D01*
X18241000Y-46040000D02*
X18241000Y-47268000D01*
X18281000Y-42753000D02*
X18281000Y-43960000D01*
X18281000Y-46040000D02*
X18281000Y-47247000D01*
X18321000Y-42776000D02*
X18321000Y-43960000D01*
X18321000Y-46040000D02*
X18321000Y-47224000D01*
X18361000Y-42800000D02*
X18361000Y-43960000D01*
X18361000Y-46040000D02*
X18361000Y-47200000D01*
X18401000Y-42825000D02*
X18401000Y-43960000D01*
X18401000Y-46040000D02*
X18401000Y-47175000D01*
X18441000Y-42851000D02*
X18441000Y-43960000D01*
X18441000Y-46040000D02*
X18441000Y-47149000D01*
X18481000Y-42878000D02*
X18481000Y-43960000D01*
X18481000Y-46040000D02*
X18481000Y-47122000D01*
X18521000Y-42905000D02*
X18521000Y-43960000D01*
X18521000Y-46040000D02*
X18521000Y-47095000D01*
X18561000Y-42935000D02*
X18561000Y-43960000D01*
X18561000Y-46040000D02*
X18561000Y-47065000D01*
X18601000Y-42965000D02*
X18601000Y-43960000D01*
X18601000Y-46040000D02*
X18601000Y-47035000D01*
X18641000Y-42996000D02*
X18641000Y-43960000D01*
X18641000Y-46040000D02*
X18641000Y-47004000D01*
X18681000Y-43029000D02*
X18681000Y-43960000D01*
X18681000Y-46040000D02*
X18681000Y-46971000D01*
X18721000Y-43063000D02*
X18721000Y-43960000D01*
X18721000Y-46040000D02*
X18721000Y-46937000D01*
X18761000Y-43099000D02*
X18761000Y-43960000D01*
X18761000Y-46040000D02*
X18761000Y-46901000D01*
X18801000Y-43136000D02*
X18801000Y-43960000D01*
X18801000Y-46040000D02*
X18801000Y-46864000D01*
X18841000Y-43174000D02*
X18841000Y-43960000D01*
X18841000Y-46040000D02*
X18841000Y-46826000D01*
X18881000Y-43215000D02*
X18881000Y-43960000D01*
X18881000Y-46040000D02*
X18881000Y-46785000D01*
X18921000Y-43257000D02*
X18921000Y-43960000D01*
X18921000Y-46040000D02*
X18921000Y-46743000D01*
X18961000Y-43301000D02*
X18961000Y-43960000D01*
X18961000Y-46040000D02*
X18961000Y-46699000D01*
X19001000Y-43347000D02*
X19001000Y-43960000D01*
X19001000Y-46040000D02*
X19001000Y-46653000D01*
X19041000Y-43395000D02*
X19041000Y-46605000D01*
X19081000Y-43446000D02*
X19081000Y-46554000D01*
X19121000Y-43500000D02*
X19121000Y-46500000D01*
X19161000Y-43557000D02*
X19161000Y-46443000D01*
X19201000Y-43617000D02*
X19201000Y-46383000D01*
X19241000Y-43681000D02*
X19241000Y-46319000D01*
X19281000Y-43749000D02*
X19281000Y-46251000D01*
X19321000Y-43822000D02*
X19321000Y-46178000D01*
X19361000Y-43902000D02*
X19361000Y-46098000D01*
X19401000Y-43989000D02*
X19401000Y-46011000D01*
X19441000Y-44085000D02*
X19441000Y-45915000D01*
X19481000Y-44195000D02*
X19481000Y-45805000D01*
X19521000Y-44323000D02*
X19521000Y-45677000D01*
X19561000Y-44482000D02*
X19561000Y-45518000D01*
X19601000Y-44716000D02*
X19601000Y-45284000D01*
X14195200Y-43525000D02*
X14695200Y-43525000D01*
X14445200Y-43275000D02*
X14445200Y-43775000D01*
%TO.C,RV10*%
D10*
X210500000Y-105000000D02*
X210427281Y-106109473D01*
X210427281Y-106109473D02*
X210210370Y-107199962D01*
X210210370Y-107199962D02*
X209852976Y-108252809D01*
X209852976Y-108252809D02*
X209361216Y-109250000D01*
X209361216Y-109250000D02*
X208743503Y-110174472D01*
X208743503Y-110174472D02*
X208010408Y-111010408D01*
X208010408Y-111010408D02*
X207174472Y-111743503D01*
X207174472Y-111743503D02*
X206250000Y-112361216D01*
X206250000Y-112361216D02*
X205252809Y-112852976D01*
X205252809Y-112852976D02*
X204199962Y-113210370D01*
X204199962Y-113210370D02*
X203109473Y-113427281D01*
X203109473Y-113427281D02*
X202000000Y-113500000D01*
X202000000Y-113500000D02*
X200890527Y-113427281D01*
X200890527Y-113427281D02*
X199800038Y-113210370D01*
X199800038Y-113210370D02*
X198747191Y-112852976D01*
X198747191Y-112852976D02*
X197750000Y-112361216D01*
X197750000Y-112361216D02*
X196825528Y-111743503D01*
X196825528Y-111743503D02*
X195989592Y-111010408D01*
X195989592Y-111010408D02*
X195256497Y-110174472D01*
X195256497Y-110174472D02*
X194638784Y-109250000D01*
X194638784Y-109250000D02*
X194147024Y-108252809D01*
X194147024Y-108252809D02*
X193789630Y-107199962D01*
X193789630Y-107199962D02*
X193572719Y-106109473D01*
X193572719Y-106109473D02*
X193500000Y-105000000D01*
X193500000Y-105000000D02*
X193572719Y-103890527D01*
X193572719Y-103890527D02*
X193789630Y-102800038D01*
X193789630Y-102800038D02*
X194147024Y-101747191D01*
X194147024Y-101747191D02*
X194638784Y-100750000D01*
X194638784Y-100750000D02*
X195256497Y-99825528D01*
X195256497Y-99825528D02*
X195989592Y-98989592D01*
X195989592Y-98989592D02*
X196825528Y-98256497D01*
X196825528Y-98256497D02*
X197750000Y-97638784D01*
X197750000Y-97638784D02*
X198747191Y-97147024D01*
X198747191Y-97147024D02*
X199800038Y-96789630D01*
X199800038Y-96789630D02*
X200890527Y-96572719D01*
X200890527Y-96572719D02*
X202000000Y-96500000D01*
X202000000Y-96500000D02*
X203109473Y-96572719D01*
X203109473Y-96572719D02*
X204199962Y-96789630D01*
X204199962Y-96789630D02*
X205252809Y-97147024D01*
X205252809Y-97147024D02*
X206250000Y-97638784D01*
X206250000Y-97638784D02*
X207174472Y-98256497D01*
X207174472Y-98256497D02*
X208010408Y-98989592D01*
X208010408Y-98989592D02*
X208743503Y-99825528D01*
X208743503Y-99825528D02*
X209361216Y-100750000D01*
X209361216Y-100750000D02*
X209852976Y-101747191D01*
X209852976Y-101747191D02*
X210210370Y-102800038D01*
X210210370Y-102800038D02*
X210427281Y-103890527D01*
X210427281Y-103890527D02*
X210500000Y-105000000D01*
X194700000Y-117500000D02*
X209300000Y-117500000D01*
X194700000Y-117500000D02*
X194700000Y-109400000D01*
X209300000Y-117500000D02*
X209300000Y-109400000D01*
D11*
X210500000Y-105000000D02*
X210427281Y-106109473D01*
X210427281Y-106109473D02*
X210210370Y-107199962D01*
X210210370Y-107199962D02*
X209852976Y-108252809D01*
X209852976Y-108252809D02*
X209361216Y-109250000D01*
X209361216Y-109250000D02*
X208743503Y-110174472D01*
X208743503Y-110174472D02*
X208010408Y-111010408D01*
X208010408Y-111010408D02*
X207174472Y-111743503D01*
X207174472Y-111743503D02*
X206250000Y-112361216D01*
X206250000Y-112361216D02*
X205252809Y-112852976D01*
X205252809Y-112852976D02*
X204199962Y-113210370D01*
X204199962Y-113210370D02*
X203109473Y-113427281D01*
X203109473Y-113427281D02*
X202000000Y-113500000D01*
X202000000Y-113500000D02*
X200890527Y-113427281D01*
X200890527Y-113427281D02*
X199800038Y-113210370D01*
X199800038Y-113210370D02*
X198747191Y-112852976D01*
X198747191Y-112852976D02*
X197750000Y-112361216D01*
X197750000Y-112361216D02*
X196825528Y-111743503D01*
X196825528Y-111743503D02*
X195989592Y-111010408D01*
X195989592Y-111010408D02*
X195256497Y-110174472D01*
X195256497Y-110174472D02*
X194638784Y-109250000D01*
X194638784Y-109250000D02*
X194147024Y-108252809D01*
X194147024Y-108252809D02*
X193789630Y-107199962D01*
X193789630Y-107199962D02*
X193572719Y-106109473D01*
X193572719Y-106109473D02*
X193500000Y-105000000D01*
X193500000Y-105000000D02*
X193572719Y-103890527D01*
X193572719Y-103890527D02*
X193789630Y-102800038D01*
X193789630Y-102800038D02*
X194147024Y-101747191D01*
X194147024Y-101747191D02*
X194638784Y-100750000D01*
X194638784Y-100750000D02*
X195256497Y-99825528D01*
X195256497Y-99825528D02*
X195989592Y-98989592D01*
X195989592Y-98989592D02*
X196825528Y-98256497D01*
X196825528Y-98256497D02*
X197750000Y-97638784D01*
X197750000Y-97638784D02*
X198747191Y-97147024D01*
X198747191Y-97147024D02*
X199800038Y-96789630D01*
X199800038Y-96789630D02*
X200890527Y-96572719D01*
X200890527Y-96572719D02*
X202000000Y-96500000D01*
X202000000Y-96500000D02*
X203109473Y-96572719D01*
X203109473Y-96572719D02*
X204199962Y-96789630D01*
X204199962Y-96789630D02*
X205252809Y-97147024D01*
X205252809Y-97147024D02*
X206250000Y-97638784D01*
X206250000Y-97638784D02*
X207174472Y-98256497D01*
X207174472Y-98256497D02*
X208010408Y-98989592D01*
X208010408Y-98989592D02*
X208743503Y-99825528D01*
X208743503Y-99825528D02*
X209361216Y-100750000D01*
X209361216Y-100750000D02*
X209852976Y-101747191D01*
X209852976Y-101747191D02*
X210210370Y-102800038D01*
X210210370Y-102800038D02*
X210427281Y-103890527D01*
X210427281Y-103890527D02*
X210500000Y-105000000D01*
X192500000Y-95500000D02*
X211500000Y-95500000D01*
X211500000Y-95500000D02*
X211500000Y-123240000D01*
X211500000Y-123240000D02*
X192500000Y-123240000D01*
X192500000Y-123240000D02*
X192500000Y-95500000D01*
X194700000Y-109400000D02*
X194700000Y-117500000D01*
X194700000Y-117500000D02*
X209300000Y-117500000D01*
X209300000Y-117500000D02*
X209300000Y-109400000D01*
%TO.C,C2*%
X192750000Y-134000009D02*
X195250000Y-133999991D01*
X195250000Y-133999991D02*
X195249963Y-128999991D01*
X195249963Y-128999991D02*
X192749963Y-129000009D01*
X192749963Y-129000009D02*
X192750000Y-134000009D01*
D12*
X192630001Y-134120010D02*
X192629962Y-128880010D01*
X195370001Y-134119990D02*
X195369962Y-128879990D01*
X192630001Y-134120010D02*
X192945001Y-134120008D01*
X195055001Y-134119992D02*
X195370001Y-134119990D01*
X192629962Y-128880010D02*
X192944962Y-128880008D01*
X195054962Y-128879992D02*
X195369962Y-128879990D01*
D13*
X192500008Y-135050011D02*
X195500008Y-135049989D01*
X195500008Y-135049989D02*
X195499956Y-127949989D01*
X195499956Y-127949989D02*
X192499956Y-127950011D01*
X192499956Y-127950011D02*
X192500008Y-135050011D01*
%TO.C,RV4*%
D10*
X169500000Y-146000000D02*
X169427281Y-147109473D01*
X169427281Y-147109473D02*
X169210370Y-148199962D01*
X169210370Y-148199962D02*
X168852976Y-149252809D01*
X168852976Y-149252809D02*
X168361216Y-150250000D01*
X168361216Y-150250000D02*
X167743503Y-151174472D01*
X167743503Y-151174472D02*
X167010408Y-152010408D01*
X167010408Y-152010408D02*
X166174472Y-152743503D01*
X166174472Y-152743503D02*
X165250000Y-153361216D01*
X165250000Y-153361216D02*
X164252809Y-153852976D01*
X164252809Y-153852976D02*
X163199962Y-154210370D01*
X163199962Y-154210370D02*
X162109473Y-154427281D01*
X162109473Y-154427281D02*
X161000000Y-154500000D01*
X161000000Y-154500000D02*
X159890527Y-154427281D01*
X159890527Y-154427281D02*
X158800038Y-154210370D01*
X158800038Y-154210370D02*
X157747191Y-153852976D01*
X157747191Y-153852976D02*
X156750000Y-153361216D01*
X156750000Y-153361216D02*
X155825528Y-152743503D01*
X155825528Y-152743503D02*
X154989592Y-152010408D01*
X154989592Y-152010408D02*
X154256497Y-151174472D01*
X154256497Y-151174472D02*
X153638784Y-150250000D01*
X153638784Y-150250000D02*
X153147024Y-149252809D01*
X153147024Y-149252809D02*
X152789630Y-148199962D01*
X152789630Y-148199962D02*
X152572719Y-147109473D01*
X152572719Y-147109473D02*
X152500000Y-146000000D01*
X152500000Y-146000000D02*
X152572719Y-144890527D01*
X152572719Y-144890527D02*
X152789630Y-143800038D01*
X152789630Y-143800038D02*
X153147024Y-142747191D01*
X153147024Y-142747191D02*
X153638784Y-141750000D01*
X153638784Y-141750000D02*
X154256497Y-140825528D01*
X154256497Y-140825528D02*
X154989592Y-139989592D01*
X154989592Y-139989592D02*
X155825528Y-139256497D01*
X155825528Y-139256497D02*
X156750000Y-138638784D01*
X156750000Y-138638784D02*
X157747191Y-138147024D01*
X157747191Y-138147024D02*
X158800038Y-137789630D01*
X158800038Y-137789630D02*
X159890527Y-137572719D01*
X159890527Y-137572719D02*
X161000000Y-137500000D01*
X161000000Y-137500000D02*
X162109473Y-137572719D01*
X162109473Y-137572719D02*
X163199962Y-137789630D01*
X163199962Y-137789630D02*
X164252809Y-138147024D01*
X164252809Y-138147024D02*
X165250000Y-138638784D01*
X165250000Y-138638784D02*
X166174472Y-139256497D01*
X166174472Y-139256497D02*
X167010408Y-139989592D01*
X167010408Y-139989592D02*
X167743503Y-140825528D01*
X167743503Y-140825528D02*
X168361216Y-141750000D01*
X168361216Y-141750000D02*
X168852976Y-142747191D01*
X168852976Y-142747191D02*
X169210370Y-143800038D01*
X169210370Y-143800038D02*
X169427281Y-144890527D01*
X169427281Y-144890527D02*
X169500000Y-146000000D01*
X153700000Y-158500000D02*
X168300000Y-158500000D01*
X153700000Y-158500000D02*
X153700000Y-150400000D01*
X168300000Y-158500000D02*
X168300000Y-150400000D01*
D11*
X169500000Y-146000000D02*
X169427281Y-147109473D01*
X169427281Y-147109473D02*
X169210370Y-148199962D01*
X169210370Y-148199962D02*
X168852976Y-149252809D01*
X168852976Y-149252809D02*
X168361216Y-150250000D01*
X168361216Y-150250000D02*
X167743503Y-151174472D01*
X167743503Y-151174472D02*
X167010408Y-152010408D01*
X167010408Y-152010408D02*
X166174472Y-152743503D01*
X166174472Y-152743503D02*
X165250000Y-153361216D01*
X165250000Y-153361216D02*
X164252809Y-153852976D01*
X164252809Y-153852976D02*
X163199962Y-154210370D01*
X163199962Y-154210370D02*
X162109473Y-154427281D01*
X162109473Y-154427281D02*
X161000000Y-154500000D01*
X161000000Y-154500000D02*
X159890527Y-154427281D01*
X159890527Y-154427281D02*
X158800038Y-154210370D01*
X158800038Y-154210370D02*
X157747191Y-153852976D01*
X157747191Y-153852976D02*
X156750000Y-153361216D01*
X156750000Y-153361216D02*
X155825528Y-152743503D01*
X155825528Y-152743503D02*
X154989592Y-152010408D01*
X154989592Y-152010408D02*
X154256497Y-151174472D01*
X154256497Y-151174472D02*
X153638784Y-150250000D01*
X153638784Y-150250000D02*
X153147024Y-149252809D01*
X153147024Y-149252809D02*
X152789630Y-148199962D01*
X152789630Y-148199962D02*
X152572719Y-147109473D01*
X152572719Y-147109473D02*
X152500000Y-146000000D01*
X152500000Y-146000000D02*
X152572719Y-144890527D01*
X152572719Y-144890527D02*
X152789630Y-143800038D01*
X152789630Y-143800038D02*
X153147024Y-142747191D01*
X153147024Y-142747191D02*
X153638784Y-141750000D01*
X153638784Y-141750000D02*
X154256497Y-140825528D01*
X154256497Y-140825528D02*
X154989592Y-139989592D01*
X154989592Y-139989592D02*
X155825528Y-139256497D01*
X155825528Y-139256497D02*
X156750000Y-138638784D01*
X156750000Y-138638784D02*
X157747191Y-138147024D01*
X157747191Y-138147024D02*
X158800038Y-137789630D01*
X158800038Y-137789630D02*
X159890527Y-137572719D01*
X159890527Y-137572719D02*
X161000000Y-137500000D01*
X161000000Y-137500000D02*
X162109473Y-137572719D01*
X162109473Y-137572719D02*
X163199962Y-137789630D01*
X163199962Y-137789630D02*
X164252809Y-138147024D01*
X164252809Y-138147024D02*
X165250000Y-138638784D01*
X165250000Y-138638784D02*
X166174472Y-139256497D01*
X166174472Y-139256497D02*
X167010408Y-139989592D01*
X167010408Y-139989592D02*
X167743503Y-140825528D01*
X167743503Y-140825528D02*
X168361216Y-141750000D01*
X168361216Y-141750000D02*
X168852976Y-142747191D01*
X168852976Y-142747191D02*
X169210370Y-143800038D01*
X169210370Y-143800038D02*
X169427281Y-144890527D01*
X169427281Y-144890527D02*
X169500000Y-146000000D01*
X151500000Y-136500000D02*
X170500000Y-136500000D01*
X170500000Y-136500000D02*
X170500000Y-164240000D01*
X170500000Y-164240000D02*
X151500000Y-164240000D01*
X151500000Y-164240000D02*
X151500000Y-136500000D01*
X153700000Y-150400000D02*
X153700000Y-158500000D01*
X153700000Y-158500000D02*
X168300000Y-158500000D01*
X168300000Y-158500000D02*
X168300000Y-150400000D01*
%TO.C,R6*%
D12*
X25869948Y-81729990D02*
X25539948Y-81729992D01*
X25869996Y-88269990D02*
X25869948Y-81729990D01*
X25539996Y-88269992D02*
X25869996Y-88269990D01*
X23129948Y-81730010D02*
X23459948Y-81730008D01*
X23129996Y-88270010D02*
X23129948Y-81730010D01*
X23459996Y-88270008D02*
X23129996Y-88270010D01*
%TO.C,J2*%
D10*
X24794022Y-165863990D02*
X24768140Y-165860582D01*
X24768140Y-165860582D02*
X24744022Y-165850592D01*
X24744022Y-165850592D02*
X24723311Y-165834700D01*
X24723311Y-165834700D02*
X24707420Y-165813990D01*
X24707420Y-165813990D02*
X24697429Y-165789872D01*
X24697429Y-165789872D02*
X24694022Y-165763990D01*
X24694022Y-165763990D02*
X24697429Y-165738108D01*
X24697429Y-165738108D02*
X24707419Y-165713990D01*
X24707419Y-165713990D02*
X24723311Y-165693279D01*
X24723311Y-165693279D02*
X24744022Y-165677387D01*
X24744022Y-165677387D02*
X24768140Y-165667397D01*
X24768140Y-165667397D02*
X24794022Y-165663990D01*
X24794022Y-165663990D02*
X24819904Y-165667397D01*
X24819904Y-165667397D02*
X24844022Y-165677387D01*
X24844022Y-165677387D02*
X24864732Y-165693279D01*
X24864732Y-165693279D02*
X24880624Y-165713989D01*
X24880624Y-165713989D02*
X24890614Y-165738108D01*
X24890614Y-165738108D02*
X24894022Y-165763989D01*
X24894022Y-165763989D02*
X24890615Y-165789871D01*
X24890615Y-165789871D02*
X24880625Y-165813989D01*
X24880625Y-165813989D02*
X24864733Y-165834700D01*
X24864733Y-165834700D02*
X24844022Y-165850592D01*
X24844022Y-165850592D02*
X24819904Y-165860582D01*
X24819904Y-165860582D02*
X24794022Y-165863990D01*
D14*
X12199980Y-145000015D02*
X27999980Y-144999983D01*
X28000020Y-164999983D02*
X12200020Y-165000015D01*
D13*
X11949979Y-144750016D02*
X28249979Y-144749983D01*
X28249979Y-144749983D02*
X28249987Y-148749983D01*
X28249987Y-148749983D02*
X28449987Y-148749982D01*
X28449987Y-148749982D02*
X28450013Y-161249982D01*
X28450013Y-161249982D02*
X28250013Y-161249983D01*
X28250013Y-161249983D02*
X28250021Y-165249983D01*
X28250021Y-165249983D02*
X11950021Y-165250016D01*
X11950021Y-165250016D02*
X11949979Y-144750016D01*
D14*
X27999980Y-144999983D02*
X27999987Y-148499983D01*
X12199980Y-145000015D02*
X12200020Y-165000015D01*
X28000013Y-161499983D02*
X28000020Y-164999983D01*
%TO.C,RV5*%
D10*
X210500000Y-146000000D02*
X210427281Y-147109473D01*
X210427281Y-147109473D02*
X210210370Y-148199962D01*
X210210370Y-148199962D02*
X209852976Y-149252809D01*
X209852976Y-149252809D02*
X209361216Y-150250000D01*
X209361216Y-150250000D02*
X208743503Y-151174472D01*
X208743503Y-151174472D02*
X208010408Y-152010408D01*
X208010408Y-152010408D02*
X207174472Y-152743503D01*
X207174472Y-152743503D02*
X206250000Y-153361216D01*
X206250000Y-153361216D02*
X205252809Y-153852976D01*
X205252809Y-153852976D02*
X204199962Y-154210370D01*
X204199962Y-154210370D02*
X203109473Y-154427281D01*
X203109473Y-154427281D02*
X202000000Y-154500000D01*
X202000000Y-154500000D02*
X200890527Y-154427281D01*
X200890527Y-154427281D02*
X199800038Y-154210370D01*
X199800038Y-154210370D02*
X198747191Y-153852976D01*
X198747191Y-153852976D02*
X197750000Y-153361216D01*
X197750000Y-153361216D02*
X196825528Y-152743503D01*
X196825528Y-152743503D02*
X195989592Y-152010408D01*
X195989592Y-152010408D02*
X195256497Y-151174472D01*
X195256497Y-151174472D02*
X194638784Y-150250000D01*
X194638784Y-150250000D02*
X194147024Y-149252809D01*
X194147024Y-149252809D02*
X193789630Y-148199962D01*
X193789630Y-148199962D02*
X193572719Y-147109473D01*
X193572719Y-147109473D02*
X193500000Y-146000000D01*
X193500000Y-146000000D02*
X193572719Y-144890527D01*
X193572719Y-144890527D02*
X193789630Y-143800038D01*
X193789630Y-143800038D02*
X194147024Y-142747191D01*
X194147024Y-142747191D02*
X194638784Y-141750000D01*
X194638784Y-141750000D02*
X195256497Y-140825528D01*
X195256497Y-140825528D02*
X195989592Y-139989592D01*
X195989592Y-139989592D02*
X196825528Y-139256497D01*
X196825528Y-139256497D02*
X197750000Y-138638784D01*
X197750000Y-138638784D02*
X198747191Y-138147024D01*
X198747191Y-138147024D02*
X199800038Y-137789630D01*
X199800038Y-137789630D02*
X200890527Y-137572719D01*
X200890527Y-137572719D02*
X202000000Y-137500000D01*
X202000000Y-137500000D02*
X203109473Y-137572719D01*
X203109473Y-137572719D02*
X204199962Y-137789630D01*
X204199962Y-137789630D02*
X205252809Y-138147024D01*
X205252809Y-138147024D02*
X206250000Y-138638784D01*
X206250000Y-138638784D02*
X207174472Y-139256497D01*
X207174472Y-139256497D02*
X208010408Y-139989592D01*
X208010408Y-139989592D02*
X208743503Y-140825528D01*
X208743503Y-140825528D02*
X209361216Y-141750000D01*
X209361216Y-141750000D02*
X209852976Y-142747191D01*
X209852976Y-142747191D02*
X210210370Y-143800038D01*
X210210370Y-143800038D02*
X210427281Y-144890527D01*
X210427281Y-144890527D02*
X210500000Y-146000000D01*
X194700000Y-158500000D02*
X209300000Y-158500000D01*
X194700000Y-158500000D02*
X194700000Y-150400000D01*
X209300000Y-158500000D02*
X209300000Y-150400000D01*
D11*
X210500000Y-146000000D02*
X210427281Y-147109473D01*
X210427281Y-147109473D02*
X210210370Y-148199962D01*
X210210370Y-148199962D02*
X209852976Y-149252809D01*
X209852976Y-149252809D02*
X209361216Y-150250000D01*
X209361216Y-150250000D02*
X208743503Y-151174472D01*
X208743503Y-151174472D02*
X208010408Y-152010408D01*
X208010408Y-152010408D02*
X207174472Y-152743503D01*
X207174472Y-152743503D02*
X206250000Y-153361216D01*
X206250000Y-153361216D02*
X205252809Y-153852976D01*
X205252809Y-153852976D02*
X204199962Y-154210370D01*
X204199962Y-154210370D02*
X203109473Y-154427281D01*
X203109473Y-154427281D02*
X202000000Y-154500000D01*
X202000000Y-154500000D02*
X200890527Y-154427281D01*
X200890527Y-154427281D02*
X199800038Y-154210370D01*
X199800038Y-154210370D02*
X198747191Y-153852976D01*
X198747191Y-153852976D02*
X197750000Y-153361216D01*
X197750000Y-153361216D02*
X196825528Y-152743503D01*
X196825528Y-152743503D02*
X195989592Y-152010408D01*
X195989592Y-152010408D02*
X195256497Y-151174472D01*
X195256497Y-151174472D02*
X194638784Y-150250000D01*
X194638784Y-150250000D02*
X194147024Y-149252809D01*
X194147024Y-149252809D02*
X193789630Y-148199962D01*
X193789630Y-148199962D02*
X193572719Y-147109473D01*
X193572719Y-147109473D02*
X193500000Y-146000000D01*
X193500000Y-146000000D02*
X193572719Y-144890527D01*
X193572719Y-144890527D02*
X193789630Y-143800038D01*
X193789630Y-143800038D02*
X194147024Y-142747191D01*
X194147024Y-142747191D02*
X194638784Y-141750000D01*
X194638784Y-141750000D02*
X195256497Y-140825528D01*
X195256497Y-140825528D02*
X195989592Y-139989592D01*
X195989592Y-139989592D02*
X196825528Y-139256497D01*
X196825528Y-139256497D02*
X197750000Y-138638784D01*
X197750000Y-138638784D02*
X198747191Y-138147024D01*
X198747191Y-138147024D02*
X199800038Y-137789630D01*
X199800038Y-137789630D02*
X200890527Y-137572719D01*
X200890527Y-137572719D02*
X202000000Y-137500000D01*
X202000000Y-137500000D02*
X203109473Y-137572719D01*
X203109473Y-137572719D02*
X204199962Y-137789630D01*
X204199962Y-137789630D02*
X205252809Y-138147024D01*
X205252809Y-138147024D02*
X206250000Y-138638784D01*
X206250000Y-138638784D02*
X207174472Y-139256497D01*
X207174472Y-139256497D02*
X208010408Y-139989592D01*
X208010408Y-139989592D02*
X208743503Y-140825528D01*
X208743503Y-140825528D02*
X209361216Y-141750000D01*
X209361216Y-141750000D02*
X209852976Y-142747191D01*
X209852976Y-142747191D02*
X210210370Y-143800038D01*
X210210370Y-143800038D02*
X210427281Y-144890527D01*
X210427281Y-144890527D02*
X210500000Y-146000000D01*
X192500000Y-136500000D02*
X211500000Y-136500000D01*
X211500000Y-136500000D02*
X211500000Y-164240000D01*
X211500000Y-164240000D02*
X192500000Y-164240000D01*
X192500000Y-164240000D02*
X192500000Y-136500000D01*
X194700000Y-150400000D02*
X194700000Y-158500000D01*
X194700000Y-158500000D02*
X209300000Y-158500000D01*
X209300000Y-158500000D02*
X209300000Y-150400000D01*
%TO.C,R8*%
D12*
X223270000Y-107370000D02*
X223270000Y-107040000D01*
X216730000Y-107370000D02*
X223270000Y-107370000D01*
X216730000Y-107040000D02*
X216730000Y-107370000D01*
X223270000Y-104630000D02*
X223270000Y-104960000D01*
X216730000Y-104630000D02*
X223270000Y-104630000D01*
X216730000Y-104960000D02*
X216730000Y-104630000D01*
%TO.C,C4*%
D11*
X225750000Y-118500009D02*
X228250000Y-118499991D01*
X228250000Y-118499991D02*
X228249963Y-113499991D01*
X228249963Y-113499991D02*
X225749963Y-113500009D01*
X225749963Y-113500009D02*
X225750000Y-118500009D01*
D12*
X225630001Y-118620010D02*
X225629962Y-113380010D01*
X228370001Y-118619990D02*
X228369962Y-113379990D01*
X225630001Y-118620010D02*
X225945001Y-118620008D01*
X228055001Y-118619992D02*
X228370001Y-118619990D01*
X225629962Y-113380010D02*
X225944962Y-113380008D01*
X228054962Y-113379992D02*
X228369962Y-113379990D01*
D13*
X225500008Y-119550011D02*
X228500008Y-119549989D01*
X228500008Y-119549989D02*
X228499956Y-112449989D01*
X228499956Y-112449989D02*
X225499956Y-112450011D01*
X225499956Y-112450011D02*
X225500008Y-119550011D01*
%TO.C,D1*%
D12*
X217879988Y-132310008D02*
X220119988Y-132309992D01*
X220119988Y-132309992D02*
X220119956Y-128069992D01*
X220119956Y-128069992D02*
X217879956Y-128070008D01*
X217879956Y-128070008D02*
X217879988Y-132310008D01*
X218999992Y-132960000D02*
X218999988Y-132310000D01*
X218999952Y-127420000D02*
X218999956Y-128070000D01*
X217879982Y-131590008D02*
X220119982Y-131589992D01*
X217879981Y-131470008D02*
X220119981Y-131469992D01*
X217879983Y-131710008D02*
X220119983Y-131709992D01*
D13*
X217750008Y-135050009D02*
X220250008Y-135049991D01*
X220250008Y-135049991D02*
X220249936Y-125329991D01*
X220249936Y-125329991D02*
X217749936Y-125330009D01*
X217749936Y-125330009D02*
X217750008Y-135050009D01*
%TO.C,SW3*%
D12*
X175015000Y-66015000D02*
X188985000Y-66015000D01*
X188985000Y-66015000D02*
X188985000Y-79985000D01*
X188985000Y-79985000D02*
X175015000Y-79985000D01*
X175015000Y-79985000D02*
X175015000Y-66015000D01*
%TO.C,C1*%
D11*
X85750000Y-134000009D02*
X88250000Y-133999991D01*
X88250000Y-133999991D02*
X88249963Y-128999991D01*
X88249963Y-128999991D02*
X85749963Y-129000009D01*
X85749963Y-129000009D02*
X85750000Y-134000009D01*
D12*
X85630001Y-134120010D02*
X85629962Y-128880010D01*
X88370001Y-134119990D02*
X88369962Y-128879990D01*
X85630001Y-134120010D02*
X85945001Y-134120008D01*
X88055001Y-134119992D02*
X88370001Y-134119990D01*
X85629962Y-128880010D02*
X85944962Y-128880008D01*
X88054962Y-128879992D02*
X88369962Y-128879990D01*
D13*
X85500008Y-135050011D02*
X88500008Y-135049989D01*
X88500008Y-135049989D02*
X88499956Y-127949989D01*
X88499956Y-127949989D02*
X85499956Y-127950011D01*
X85499956Y-127950011D02*
X85500008Y-135050011D01*
%TO.C,R5*%
D12*
X21369948Y-81729990D02*
X21039948Y-81729992D01*
X21369996Y-88269990D02*
X21369948Y-81729990D01*
X21039996Y-88269992D02*
X21369996Y-88269990D01*
X18629948Y-81730010D02*
X18959948Y-81730008D01*
X18629996Y-88270010D02*
X18629948Y-81730010D01*
X18959996Y-88270008D02*
X18629996Y-88270010D01*
D15*
%TO.C,U1*%
X89379900Y-125000000D02*
X109610000Y-125000000D01*
X109610000Y-135005000D01*
X89379900Y-135005000D01*
X89379900Y-125000000D01*
G36*
X109610000Y-135005000D02*
G01*
X89379900Y-135005000D01*
X89379900Y-125000000D01*
X109610000Y-125000000D01*
X109610000Y-135005000D01*
G37*
D14*
X89390000Y-128730000D02*
X89469792Y-128732612D01*
X89469792Y-128732612D02*
X89549242Y-128740437D01*
X89549242Y-128740437D02*
X89628010Y-128753442D01*
X89628010Y-128753442D02*
X89705759Y-128771570D01*
X89705759Y-128771570D02*
X89782156Y-128794745D01*
X89782156Y-128794745D02*
X89856874Y-128822867D01*
X89856874Y-128822867D02*
X89929592Y-128855815D01*
X89929592Y-128855815D02*
X90000000Y-128893449D01*
X90000000Y-128893449D02*
X90067796Y-128935607D01*
X90067796Y-128935607D02*
X90132689Y-128982109D01*
X90132689Y-128982109D02*
X90194402Y-129032755D01*
X90194402Y-129032755D02*
X90252670Y-129087330D01*
X90252670Y-129087330D02*
X90307245Y-129145598D01*
X90307245Y-129145598D02*
X90357891Y-129207311D01*
X90357891Y-129207311D02*
X90404393Y-129272204D01*
X90404393Y-129272204D02*
X90446551Y-129340000D01*
X90446551Y-129340000D02*
X90484185Y-129410408D01*
X90484185Y-129410408D02*
X90517133Y-129483126D01*
X90517133Y-129483126D02*
X90545255Y-129557844D01*
X90545255Y-129557844D02*
X90568430Y-129634241D01*
X90568430Y-129634241D02*
X90586558Y-129711990D01*
X90586558Y-129711990D02*
X90599563Y-129790758D01*
X90599563Y-129790758D02*
X90607388Y-129870208D01*
X90607388Y-129870208D02*
X90610000Y-129950000D01*
X90610000Y-130050000D02*
X90607388Y-130129792D01*
X90607388Y-130129792D02*
X90599563Y-130209242D01*
X90599563Y-130209242D02*
X90586558Y-130288010D01*
X90586558Y-130288010D02*
X90568430Y-130365759D01*
X90568430Y-130365759D02*
X90545255Y-130442156D01*
X90545255Y-130442156D02*
X90517133Y-130516874D01*
X90517133Y-130516874D02*
X90484185Y-130589592D01*
X90484185Y-130589592D02*
X90446551Y-130660000D01*
X90446551Y-130660000D02*
X90404393Y-130727796D01*
X90404393Y-130727796D02*
X90357891Y-130792689D01*
X90357891Y-130792689D02*
X90307245Y-130854402D01*
X90307245Y-130854402D02*
X90252670Y-130912670D01*
X90252670Y-130912670D02*
X90194402Y-130967245D01*
X90194402Y-130967245D02*
X90132689Y-131017891D01*
X90132689Y-131017891D02*
X90067796Y-131064393D01*
X90067796Y-131064393D02*
X90000000Y-131106551D01*
X90000000Y-131106551D02*
X89929592Y-131144185D01*
X89929592Y-131144185D02*
X89856874Y-131177133D01*
X89856874Y-131177133D02*
X89782156Y-131205255D01*
X89782156Y-131205255D02*
X89705759Y-131228430D01*
X89705759Y-131228430D02*
X89628010Y-131246558D01*
X89628010Y-131246558D02*
X89549242Y-131259563D01*
X89549242Y-131259563D02*
X89469792Y-131267388D01*
X89469792Y-131267388D02*
X89390000Y-131270000D01*
X89390000Y-133175000D02*
X89390000Y-131270000D01*
X89390000Y-128730000D02*
X89390000Y-126825000D01*
X89390000Y-126825000D02*
X89975000Y-126825000D01*
X89390000Y-133175000D02*
X89700000Y-133175000D01*
%TO.C,RV3*%
D10*
X128500000Y-146000000D02*
X128427281Y-147109473D01*
X128427281Y-147109473D02*
X128210370Y-148199962D01*
X128210370Y-148199962D02*
X127852976Y-149252809D01*
X127852976Y-149252809D02*
X127361216Y-150250000D01*
X127361216Y-150250000D02*
X126743503Y-151174472D01*
X126743503Y-151174472D02*
X126010408Y-152010408D01*
X126010408Y-152010408D02*
X125174472Y-152743503D01*
X125174472Y-152743503D02*
X124250000Y-153361216D01*
X124250000Y-153361216D02*
X123252809Y-153852976D01*
X123252809Y-153852976D02*
X122199962Y-154210370D01*
X122199962Y-154210370D02*
X121109473Y-154427281D01*
X121109473Y-154427281D02*
X120000000Y-154500000D01*
X120000000Y-154500000D02*
X118890527Y-154427281D01*
X118890527Y-154427281D02*
X117800038Y-154210370D01*
X117800038Y-154210370D02*
X116747191Y-153852976D01*
X116747191Y-153852976D02*
X115750000Y-153361216D01*
X115750000Y-153361216D02*
X114825528Y-152743503D01*
X114825528Y-152743503D02*
X113989592Y-152010408D01*
X113989592Y-152010408D02*
X113256497Y-151174472D01*
X113256497Y-151174472D02*
X112638784Y-150250000D01*
X112638784Y-150250000D02*
X112147024Y-149252809D01*
X112147024Y-149252809D02*
X111789630Y-148199962D01*
X111789630Y-148199962D02*
X111572719Y-147109473D01*
X111572719Y-147109473D02*
X111500000Y-146000000D01*
X111500000Y-146000000D02*
X111572719Y-144890527D01*
X111572719Y-144890527D02*
X111789630Y-143800038D01*
X111789630Y-143800038D02*
X112147024Y-142747191D01*
X112147024Y-142747191D02*
X112638784Y-141750000D01*
X112638784Y-141750000D02*
X113256497Y-140825528D01*
X113256497Y-140825528D02*
X113989592Y-139989592D01*
X113989592Y-139989592D02*
X114825528Y-139256497D01*
X114825528Y-139256497D02*
X115750000Y-138638784D01*
X115750000Y-138638784D02*
X116747191Y-138147024D01*
X116747191Y-138147024D02*
X117800038Y-137789630D01*
X117800038Y-137789630D02*
X118890527Y-137572719D01*
X118890527Y-137572719D02*
X120000000Y-137500000D01*
X120000000Y-137500000D02*
X121109473Y-137572719D01*
X121109473Y-137572719D02*
X122199962Y-137789630D01*
X122199962Y-137789630D02*
X123252809Y-138147024D01*
X123252809Y-138147024D02*
X124250000Y-138638784D01*
X124250000Y-138638784D02*
X125174472Y-139256497D01*
X125174472Y-139256497D02*
X126010408Y-139989592D01*
X126010408Y-139989592D02*
X126743503Y-140825528D01*
X126743503Y-140825528D02*
X127361216Y-141750000D01*
X127361216Y-141750000D02*
X127852976Y-142747191D01*
X127852976Y-142747191D02*
X128210370Y-143800038D01*
X128210370Y-143800038D02*
X128427281Y-144890527D01*
X128427281Y-144890527D02*
X128500000Y-146000000D01*
X112700000Y-158500000D02*
X127300000Y-158500000D01*
X112700000Y-158500000D02*
X112700000Y-150400000D01*
X127300000Y-158500000D02*
X127300000Y-150400000D01*
D11*
X128500000Y-146000000D02*
X128427281Y-147109473D01*
X128427281Y-147109473D02*
X128210370Y-148199962D01*
X128210370Y-148199962D02*
X127852976Y-149252809D01*
X127852976Y-149252809D02*
X127361216Y-150250000D01*
X127361216Y-150250000D02*
X126743503Y-151174472D01*
X126743503Y-151174472D02*
X126010408Y-152010408D01*
X126010408Y-152010408D02*
X125174472Y-152743503D01*
X125174472Y-152743503D02*
X124250000Y-153361216D01*
X124250000Y-153361216D02*
X123252809Y-153852976D01*
X123252809Y-153852976D02*
X122199962Y-154210370D01*
X122199962Y-154210370D02*
X121109473Y-154427281D01*
X121109473Y-154427281D02*
X120000000Y-154500000D01*
X120000000Y-154500000D02*
X118890527Y-154427281D01*
X118890527Y-154427281D02*
X117800038Y-154210370D01*
X117800038Y-154210370D02*
X116747191Y-153852976D01*
X116747191Y-153852976D02*
X115750000Y-153361216D01*
X115750000Y-153361216D02*
X114825528Y-152743503D01*
X114825528Y-152743503D02*
X113989592Y-152010408D01*
X113989592Y-152010408D02*
X113256497Y-151174472D01*
X113256497Y-151174472D02*
X112638784Y-150250000D01*
X112638784Y-150250000D02*
X112147024Y-149252809D01*
X112147024Y-149252809D02*
X111789630Y-148199962D01*
X111789630Y-148199962D02*
X111572719Y-147109473D01*
X111572719Y-147109473D02*
X111500000Y-146000000D01*
X111500000Y-146000000D02*
X111572719Y-144890527D01*
X111572719Y-144890527D02*
X111789630Y-143800038D01*
X111789630Y-143800038D02*
X112147024Y-142747191D01*
X112147024Y-142747191D02*
X112638784Y-141750000D01*
X112638784Y-141750000D02*
X113256497Y-140825528D01*
X113256497Y-140825528D02*
X113989592Y-139989592D01*
X113989592Y-139989592D02*
X114825528Y-139256497D01*
X114825528Y-139256497D02*
X115750000Y-138638784D01*
X115750000Y-138638784D02*
X116747191Y-138147024D01*
X116747191Y-138147024D02*
X117800038Y-137789630D01*
X117800038Y-137789630D02*
X118890527Y-137572719D01*
X118890527Y-137572719D02*
X120000000Y-137500000D01*
X120000000Y-137500000D02*
X121109473Y-137572719D01*
X121109473Y-137572719D02*
X122199962Y-137789630D01*
X122199962Y-137789630D02*
X123252809Y-138147024D01*
X123252809Y-138147024D02*
X124250000Y-138638784D01*
X124250000Y-138638784D02*
X125174472Y-139256497D01*
X125174472Y-139256497D02*
X126010408Y-139989592D01*
X126010408Y-139989592D02*
X126743503Y-140825528D01*
X126743503Y-140825528D02*
X127361216Y-141750000D01*
X127361216Y-141750000D02*
X127852976Y-142747191D01*
X127852976Y-142747191D02*
X128210370Y-143800038D01*
X128210370Y-143800038D02*
X128427281Y-144890527D01*
X128427281Y-144890527D02*
X128500000Y-146000000D01*
X110500000Y-136500000D02*
X129500000Y-136500000D01*
X129500000Y-136500000D02*
X129500000Y-164240000D01*
X129500000Y-164240000D02*
X110500000Y-164240000D01*
X110500000Y-164240000D02*
X110500000Y-136500000D01*
X112700000Y-150400000D02*
X112700000Y-158500000D01*
X112700000Y-158500000D02*
X127300000Y-158500000D01*
X127300000Y-158500000D02*
X127300000Y-150400000D01*
%TO.C,J1*%
X22581400Y-27548100D02*
X22568452Y-27646451D01*
X22568452Y-27646451D02*
X22530490Y-27738100D01*
X22530490Y-27738100D02*
X22470101Y-27816801D01*
X22470101Y-27816801D02*
X22391400Y-27877190D01*
X22391400Y-27877190D02*
X22299751Y-27915152D01*
X22299751Y-27915152D02*
X22201400Y-27928100D01*
X22201400Y-27928100D02*
X22103049Y-27915152D01*
X22103049Y-27915152D02*
X22011400Y-27877190D01*
X22011400Y-27877190D02*
X21932699Y-27816801D01*
X21932699Y-27816801D02*
X21872310Y-27738100D01*
X21872310Y-27738100D02*
X21834348Y-27646451D01*
X21834348Y-27646451D02*
X21821400Y-27548100D01*
X21821400Y-27548100D02*
X21834348Y-27449749D01*
X21834348Y-27449749D02*
X21872310Y-27358100D01*
X21872310Y-27358100D02*
X21932699Y-27279399D01*
X21932699Y-27279399D02*
X22011400Y-27219010D01*
X22011400Y-27219010D02*
X22103049Y-27181048D01*
X22103049Y-27181048D02*
X22201400Y-27168100D01*
X22201400Y-27168100D02*
X22299751Y-27181048D01*
X22299751Y-27181048D02*
X22391400Y-27219010D01*
X22391400Y-27219010D02*
X22470101Y-27279399D01*
X22470101Y-27279399D02*
X22530490Y-27358100D01*
X22530490Y-27358100D02*
X22568452Y-27449749D01*
X22568452Y-27449749D02*
X22581400Y-27548100D01*
X20525000Y-26951200D02*
X72137800Y-26951200D01*
X72137800Y-26951200D02*
X72137800Y-21795000D01*
X72137800Y-21795000D02*
X20525000Y-21795000D01*
X20525000Y-21795000D02*
X20525000Y-26951200D01*
D12*
X20143000Y-25643100D02*
X20130052Y-25741451D01*
X20130052Y-25741451D02*
X20092090Y-25833100D01*
X20092090Y-25833100D02*
X20031701Y-25911801D01*
X20031701Y-25911801D02*
X19953000Y-25972190D01*
X19953000Y-25972190D02*
X19861351Y-26010152D01*
X19861351Y-26010152D02*
X19763000Y-26023100D01*
X19763000Y-26023100D02*
X19664649Y-26010152D01*
X19664649Y-26010152D02*
X19573000Y-25972190D01*
X19573000Y-25972190D02*
X19494299Y-25911801D01*
X19494299Y-25911801D02*
X19433910Y-25833100D01*
X19433910Y-25833100D02*
X19395948Y-25741451D01*
X19395948Y-25741451D02*
X19383000Y-25643100D01*
X19383000Y-25643100D02*
X19395948Y-25544749D01*
X19395948Y-25544749D02*
X19433910Y-25453100D01*
X19433910Y-25453100D02*
X19494299Y-25374399D01*
X19494299Y-25374399D02*
X19573000Y-25314010D01*
X19573000Y-25314010D02*
X19664649Y-25276048D01*
X19664649Y-25276048D02*
X19763000Y-25263100D01*
X19763000Y-25263100D02*
X19861351Y-25276048D01*
X19861351Y-25276048D02*
X19953000Y-25314010D01*
X19953000Y-25314010D02*
X20031701Y-25374399D01*
X20031701Y-25374399D02*
X20092090Y-25453100D01*
X20092090Y-25453100D02*
X20130052Y-25544749D01*
X20130052Y-25544749D02*
X20143000Y-25643100D01*
X20143000Y-25643100D02*
X20130052Y-25741451D01*
X20130052Y-25741451D02*
X20092090Y-25833100D01*
X20092090Y-25833100D02*
X20031701Y-25911801D01*
X20031701Y-25911801D02*
X19953000Y-25972190D01*
X19953000Y-25972190D02*
X19861351Y-26010152D01*
X19861351Y-26010152D02*
X19763000Y-26023100D01*
X19763000Y-26023100D02*
X19664649Y-26010152D01*
X19664649Y-26010152D02*
X19573000Y-25972190D01*
X19573000Y-25972190D02*
X19494299Y-25911801D01*
X19494299Y-25911801D02*
X19433910Y-25833100D01*
X19433910Y-25833100D02*
X19395948Y-25741451D01*
X19395948Y-25741451D02*
X19383000Y-25643100D01*
X19383000Y-25643100D02*
X19395948Y-25544749D01*
X19395948Y-25544749D02*
X19433910Y-25453100D01*
X19433910Y-25453100D02*
X19494299Y-25374399D01*
X19494299Y-25374399D02*
X19573000Y-25314010D01*
X19573000Y-25314010D02*
X19664649Y-25276048D01*
X19664649Y-25276048D02*
X19763000Y-25263100D01*
X19763000Y-25263100D02*
X19861351Y-25276048D01*
X19861351Y-25276048D02*
X19953000Y-25314010D01*
X19953000Y-25314010D02*
X20031701Y-25374399D01*
X20031701Y-25374399D02*
X20092090Y-25453100D01*
X20092090Y-25453100D02*
X20130052Y-25544749D01*
X20130052Y-25544749D02*
X20143000Y-25643100D01*
D13*
X20271000Y-21541000D02*
X20271000Y-27205200D01*
X20271000Y-27205200D02*
X72391800Y-27205200D01*
X72391800Y-27205200D02*
X72391800Y-21541000D01*
X72391800Y-21541000D02*
X20271000Y-21541000D01*
D11*
X22201400Y-25643100D02*
X22201400Y-19255000D01*
X24741400Y-25643100D02*
X24741400Y-19255000D01*
X22201400Y-19636000D02*
X20931400Y-19636000D01*
X24741400Y-19636000D02*
X26011400Y-19636000D01*
X22201400Y-19636000D02*
X21947400Y-19509000D01*
X22201400Y-19636000D02*
X21947400Y-19763000D01*
X21947400Y-19509000D02*
X21947400Y-19763000D01*
X24741400Y-19636000D02*
X24995400Y-19509000D01*
X24741400Y-19636000D02*
X24995400Y-19763000D01*
X24995400Y-19509000D02*
X24995400Y-19763000D01*
X20525000Y-21795000D02*
X20525000Y-11000000D01*
X72137800Y-21795000D02*
X72137800Y-11000000D01*
X20525000Y-11381000D02*
X72137800Y-11381000D01*
X20525000Y-11381000D02*
X20779000Y-11254000D01*
X20525000Y-11381000D02*
X20779000Y-11508000D01*
X20779000Y-11254000D02*
X20779000Y-11508000D01*
X72137800Y-11381000D02*
X71883800Y-11254000D01*
X72137800Y-11381000D02*
X71883800Y-11508000D01*
X71883800Y-11254000D02*
X71883800Y-11508000D01*
X22201400Y-23103100D02*
X75058800Y-23103100D01*
X22201400Y-25643100D02*
X75058800Y-25643100D01*
X74677800Y-23103100D02*
X74677800Y-21833100D01*
X74677800Y-25643100D02*
X74677800Y-26913100D01*
X74677800Y-23103100D02*
X74550800Y-22849100D01*
X74677800Y-23103100D02*
X74804800Y-22849100D01*
X74550800Y-22849100D02*
X74804800Y-22849100D01*
X74677800Y-25643100D02*
X74550800Y-25897100D01*
X74677800Y-25643100D02*
X74804800Y-25897100D01*
X74550800Y-25897100D02*
X74804800Y-25897100D01*
X20525000Y-21795000D02*
X11000000Y-21795000D01*
X46331400Y-24373100D02*
X11000000Y-24373100D01*
X11381000Y-21795000D02*
X11381000Y-20525000D01*
X11381000Y-24373100D02*
X11381000Y-25643100D01*
X11381000Y-21795000D02*
X11254000Y-21541000D01*
X11381000Y-21795000D02*
X11508000Y-21541000D01*
X11254000Y-21541000D02*
X11508000Y-21541000D01*
X11381000Y-24373100D02*
X11254000Y-24627100D01*
X11381000Y-24373100D02*
X11508000Y-24627100D01*
X11254000Y-24627100D02*
X11508000Y-24627100D01*
X20525000Y-21795000D02*
X12270000Y-21795000D01*
X20525000Y-26951200D02*
X12270000Y-26951200D01*
X12651000Y-21795000D02*
X12651000Y-26951200D01*
X12651000Y-21795000D02*
X12524000Y-22049000D01*
X12651000Y-21795000D02*
X12778000Y-22049000D01*
X12524000Y-22049000D02*
X12778000Y-22049000D01*
X12651000Y-26951200D02*
X12524000Y-26697200D01*
X12651000Y-26951200D02*
X12778000Y-26697200D01*
X12524000Y-26697200D02*
X12778000Y-26697200D01*
D12*
X20398000Y-27078200D02*
X72264800Y-27078200D01*
X72264800Y-27078200D02*
X72264800Y-21668000D01*
X72264800Y-21668000D02*
X20398000Y-21668000D01*
X20398000Y-21668000D02*
X20398000Y-27078200D01*
D13*
X20271000Y-21541000D02*
X20271000Y-27205200D01*
X20271000Y-27205200D02*
X72391800Y-27205200D01*
X72391800Y-27205200D02*
X72391800Y-21541000D01*
X72391800Y-21541000D02*
X20271000Y-21541000D01*
%TO.C,RV8*%
D10*
X128500000Y-105000000D02*
X128427281Y-106109473D01*
X128427281Y-106109473D02*
X128210370Y-107199962D01*
X128210370Y-107199962D02*
X127852976Y-108252809D01*
X127852976Y-108252809D02*
X127361216Y-109250000D01*
X127361216Y-109250000D02*
X126743503Y-110174472D01*
X126743503Y-110174472D02*
X126010408Y-111010408D01*
X126010408Y-111010408D02*
X125174472Y-111743503D01*
X125174472Y-111743503D02*
X124250000Y-112361216D01*
X124250000Y-112361216D02*
X123252809Y-112852976D01*
X123252809Y-112852976D02*
X122199962Y-113210370D01*
X122199962Y-113210370D02*
X121109473Y-113427281D01*
X121109473Y-113427281D02*
X120000000Y-113500000D01*
X120000000Y-113500000D02*
X118890527Y-113427281D01*
X118890527Y-113427281D02*
X117800038Y-113210370D01*
X117800038Y-113210370D02*
X116747191Y-112852976D01*
X116747191Y-112852976D02*
X115750000Y-112361216D01*
X115750000Y-112361216D02*
X114825528Y-111743503D01*
X114825528Y-111743503D02*
X113989592Y-111010408D01*
X113989592Y-111010408D02*
X113256497Y-110174472D01*
X113256497Y-110174472D02*
X112638784Y-109250000D01*
X112638784Y-109250000D02*
X112147024Y-108252809D01*
X112147024Y-108252809D02*
X111789630Y-107199962D01*
X111789630Y-107199962D02*
X111572719Y-106109473D01*
X111572719Y-106109473D02*
X111500000Y-105000000D01*
X111500000Y-105000000D02*
X111572719Y-103890527D01*
X111572719Y-103890527D02*
X111789630Y-102800038D01*
X111789630Y-102800038D02*
X112147024Y-101747191D01*
X112147024Y-101747191D02*
X112638784Y-100750000D01*
X112638784Y-100750000D02*
X113256497Y-99825528D01*
X113256497Y-99825528D02*
X113989592Y-98989592D01*
X113989592Y-98989592D02*
X114825528Y-98256497D01*
X114825528Y-98256497D02*
X115750000Y-97638784D01*
X115750000Y-97638784D02*
X116747191Y-97147024D01*
X116747191Y-97147024D02*
X117800038Y-96789630D01*
X117800038Y-96789630D02*
X118890527Y-96572719D01*
X118890527Y-96572719D02*
X120000000Y-96500000D01*
X120000000Y-96500000D02*
X121109473Y-96572719D01*
X121109473Y-96572719D02*
X122199962Y-96789630D01*
X122199962Y-96789630D02*
X123252809Y-97147024D01*
X123252809Y-97147024D02*
X124250000Y-97638784D01*
X124250000Y-97638784D02*
X125174472Y-98256497D01*
X125174472Y-98256497D02*
X126010408Y-98989592D01*
X126010408Y-98989592D02*
X126743503Y-99825528D01*
X126743503Y-99825528D02*
X127361216Y-100750000D01*
X127361216Y-100750000D02*
X127852976Y-101747191D01*
X127852976Y-101747191D02*
X128210370Y-102800038D01*
X128210370Y-102800038D02*
X128427281Y-103890527D01*
X128427281Y-103890527D02*
X128500000Y-105000000D01*
X112700000Y-117500000D02*
X127300000Y-117500000D01*
X112700000Y-117500000D02*
X112700000Y-109400000D01*
X127300000Y-117500000D02*
X127300000Y-109400000D01*
D11*
X128500000Y-105000000D02*
X128427281Y-106109473D01*
X128427281Y-106109473D02*
X128210370Y-107199962D01*
X128210370Y-107199962D02*
X127852976Y-108252809D01*
X127852976Y-108252809D02*
X127361216Y-109250000D01*
X127361216Y-109250000D02*
X126743503Y-110174472D01*
X126743503Y-110174472D02*
X126010408Y-111010408D01*
X126010408Y-111010408D02*
X125174472Y-111743503D01*
X125174472Y-111743503D02*
X124250000Y-112361216D01*
X124250000Y-112361216D02*
X123252809Y-112852976D01*
X123252809Y-112852976D02*
X122199962Y-113210370D01*
X122199962Y-113210370D02*
X121109473Y-113427281D01*
X121109473Y-113427281D02*
X120000000Y-113500000D01*
X120000000Y-113500000D02*
X118890527Y-113427281D01*
X118890527Y-113427281D02*
X117800038Y-113210370D01*
X117800038Y-113210370D02*
X116747191Y-112852976D01*
X116747191Y-112852976D02*
X115750000Y-112361216D01*
X115750000Y-112361216D02*
X114825528Y-111743503D01*
X114825528Y-111743503D02*
X113989592Y-111010408D01*
X113989592Y-111010408D02*
X113256497Y-110174472D01*
X113256497Y-110174472D02*
X112638784Y-109250000D01*
X112638784Y-109250000D02*
X112147024Y-108252809D01*
X112147024Y-108252809D02*
X111789630Y-107199962D01*
X111789630Y-107199962D02*
X111572719Y-106109473D01*
X111572719Y-106109473D02*
X111500000Y-105000000D01*
X111500000Y-105000000D02*
X111572719Y-103890527D01*
X111572719Y-103890527D02*
X111789630Y-102800038D01*
X111789630Y-102800038D02*
X112147024Y-101747191D01*
X112147024Y-101747191D02*
X112638784Y-100750000D01*
X112638784Y-100750000D02*
X113256497Y-99825528D01*
X113256497Y-99825528D02*
X113989592Y-98989592D01*
X113989592Y-98989592D02*
X114825528Y-98256497D01*
X114825528Y-98256497D02*
X115750000Y-97638784D01*
X115750000Y-97638784D02*
X116747191Y-97147024D01*
X116747191Y-97147024D02*
X117800038Y-96789630D01*
X117800038Y-96789630D02*
X118890527Y-96572719D01*
X118890527Y-96572719D02*
X120000000Y-96500000D01*
X120000000Y-96500000D02*
X121109473Y-96572719D01*
X121109473Y-96572719D02*
X122199962Y-96789630D01*
X122199962Y-96789630D02*
X123252809Y-97147024D01*
X123252809Y-97147024D02*
X124250000Y-97638784D01*
X124250000Y-97638784D02*
X125174472Y-98256497D01*
X125174472Y-98256497D02*
X126010408Y-98989592D01*
X126010408Y-98989592D02*
X126743503Y-99825528D01*
X126743503Y-99825528D02*
X127361216Y-100750000D01*
X127361216Y-100750000D02*
X127852976Y-101747191D01*
X127852976Y-101747191D02*
X128210370Y-102800038D01*
X128210370Y-102800038D02*
X128427281Y-103890527D01*
X128427281Y-103890527D02*
X128500000Y-105000000D01*
X110500000Y-95500000D02*
X129500000Y-95500000D01*
X129500000Y-95500000D02*
X129500000Y-123240000D01*
X129500000Y-123240000D02*
X110500000Y-123240000D01*
X110500000Y-123240000D02*
X110500000Y-95500000D01*
X112700000Y-109400000D02*
X112700000Y-117500000D01*
X112700000Y-117500000D02*
X127300000Y-117500000D01*
X127300000Y-117500000D02*
X127300000Y-109400000D01*
%TO.C,RV2*%
D10*
X87500000Y-146000000D02*
X87427281Y-147109473D01*
X87427281Y-147109473D02*
X87210370Y-148199962D01*
X87210370Y-148199962D02*
X86852976Y-149252809D01*
X86852976Y-149252809D02*
X86361216Y-150250000D01*
X86361216Y-150250000D02*
X85743503Y-151174472D01*
X85743503Y-151174472D02*
X85010408Y-152010408D01*
X85010408Y-152010408D02*
X84174472Y-152743503D01*
X84174472Y-152743503D02*
X83250000Y-153361216D01*
X83250000Y-153361216D02*
X82252809Y-153852976D01*
X82252809Y-153852976D02*
X81199962Y-154210370D01*
X81199962Y-154210370D02*
X80109473Y-154427281D01*
X80109473Y-154427281D02*
X79000000Y-154500000D01*
X79000000Y-154500000D02*
X77890527Y-154427281D01*
X77890527Y-154427281D02*
X76800038Y-154210370D01*
X76800038Y-154210370D02*
X75747191Y-153852976D01*
X75747191Y-153852976D02*
X74750000Y-153361216D01*
X74750000Y-153361216D02*
X73825528Y-152743503D01*
X73825528Y-152743503D02*
X72989592Y-152010408D01*
X72989592Y-152010408D02*
X72256497Y-151174472D01*
X72256497Y-151174472D02*
X71638784Y-150250000D01*
X71638784Y-150250000D02*
X71147024Y-149252809D01*
X71147024Y-149252809D02*
X70789630Y-148199962D01*
X70789630Y-148199962D02*
X70572719Y-147109473D01*
X70572719Y-147109473D02*
X70500000Y-146000000D01*
X70500000Y-146000000D02*
X70572719Y-144890527D01*
X70572719Y-144890527D02*
X70789630Y-143800038D01*
X70789630Y-143800038D02*
X71147024Y-142747191D01*
X71147024Y-142747191D02*
X71638784Y-141750000D01*
X71638784Y-141750000D02*
X72256497Y-140825528D01*
X72256497Y-140825528D02*
X72989592Y-139989592D01*
X72989592Y-139989592D02*
X73825528Y-139256497D01*
X73825528Y-139256497D02*
X74750000Y-138638784D01*
X74750000Y-138638784D02*
X75747191Y-138147024D01*
X75747191Y-138147024D02*
X76800038Y-137789630D01*
X76800038Y-137789630D02*
X77890527Y-137572719D01*
X77890527Y-137572719D02*
X79000000Y-137500000D01*
X79000000Y-137500000D02*
X80109473Y-137572719D01*
X80109473Y-137572719D02*
X81199962Y-137789630D01*
X81199962Y-137789630D02*
X82252809Y-138147024D01*
X82252809Y-138147024D02*
X83250000Y-138638784D01*
X83250000Y-138638784D02*
X84174472Y-139256497D01*
X84174472Y-139256497D02*
X85010408Y-139989592D01*
X85010408Y-139989592D02*
X85743503Y-140825528D01*
X85743503Y-140825528D02*
X86361216Y-141750000D01*
X86361216Y-141750000D02*
X86852976Y-142747191D01*
X86852976Y-142747191D02*
X87210370Y-143800038D01*
X87210370Y-143800038D02*
X87427281Y-144890527D01*
X87427281Y-144890527D02*
X87500000Y-146000000D01*
X71700000Y-158500000D02*
X86300000Y-158500000D01*
X71700000Y-158500000D02*
X71700000Y-150400000D01*
X86300000Y-158500000D02*
X86300000Y-150400000D01*
D11*
X87500000Y-146000000D02*
X87427281Y-147109473D01*
X87427281Y-147109473D02*
X87210370Y-148199962D01*
X87210370Y-148199962D02*
X86852976Y-149252809D01*
X86852976Y-149252809D02*
X86361216Y-150250000D01*
X86361216Y-150250000D02*
X85743503Y-151174472D01*
X85743503Y-151174472D02*
X85010408Y-152010408D01*
X85010408Y-152010408D02*
X84174472Y-152743503D01*
X84174472Y-152743503D02*
X83250000Y-153361216D01*
X83250000Y-153361216D02*
X82252809Y-153852976D01*
X82252809Y-153852976D02*
X81199962Y-154210370D01*
X81199962Y-154210370D02*
X80109473Y-154427281D01*
X80109473Y-154427281D02*
X79000000Y-154500000D01*
X79000000Y-154500000D02*
X77890527Y-154427281D01*
X77890527Y-154427281D02*
X76800038Y-154210370D01*
X76800038Y-154210370D02*
X75747191Y-153852976D01*
X75747191Y-153852976D02*
X74750000Y-153361216D01*
X74750000Y-153361216D02*
X73825528Y-152743503D01*
X73825528Y-152743503D02*
X72989592Y-152010408D01*
X72989592Y-152010408D02*
X72256497Y-151174472D01*
X72256497Y-151174472D02*
X71638784Y-150250000D01*
X71638784Y-150250000D02*
X71147024Y-149252809D01*
X71147024Y-149252809D02*
X70789630Y-148199962D01*
X70789630Y-148199962D02*
X70572719Y-147109473D01*
X70572719Y-147109473D02*
X70500000Y-146000000D01*
X70500000Y-146000000D02*
X70572719Y-144890527D01*
X70572719Y-144890527D02*
X70789630Y-143800038D01*
X70789630Y-143800038D02*
X71147024Y-142747191D01*
X71147024Y-142747191D02*
X71638784Y-141750000D01*
X71638784Y-141750000D02*
X72256497Y-140825528D01*
X72256497Y-140825528D02*
X72989592Y-139989592D01*
X72989592Y-139989592D02*
X73825528Y-139256497D01*
X73825528Y-139256497D02*
X74750000Y-138638784D01*
X74750000Y-138638784D02*
X75747191Y-138147024D01*
X75747191Y-138147024D02*
X76800038Y-137789630D01*
X76800038Y-137789630D02*
X77890527Y-137572719D01*
X77890527Y-137572719D02*
X79000000Y-137500000D01*
X79000000Y-137500000D02*
X80109473Y-137572719D01*
X80109473Y-137572719D02*
X81199962Y-137789630D01*
X81199962Y-137789630D02*
X82252809Y-138147024D01*
X82252809Y-138147024D02*
X83250000Y-138638784D01*
X83250000Y-138638784D02*
X84174472Y-139256497D01*
X84174472Y-139256497D02*
X85010408Y-139989592D01*
X85010408Y-139989592D02*
X85743503Y-140825528D01*
X85743503Y-140825528D02*
X86361216Y-141750000D01*
X86361216Y-141750000D02*
X86852976Y-142747191D01*
X86852976Y-142747191D02*
X87210370Y-143800038D01*
X87210370Y-143800038D02*
X87427281Y-144890527D01*
X87427281Y-144890527D02*
X87500000Y-146000000D01*
X69500000Y-136500000D02*
X88500000Y-136500000D01*
X88500000Y-136500000D02*
X88500000Y-164240000D01*
X88500000Y-164240000D02*
X69500000Y-164240000D01*
X69500000Y-164240000D02*
X69500000Y-136500000D01*
X71700000Y-150400000D02*
X71700000Y-158500000D01*
X71700000Y-158500000D02*
X86300000Y-158500000D01*
X86300000Y-158500000D02*
X86300000Y-150400000D01*
%TO.C,SW2*%
D12*
X51015000Y-66015000D02*
X64985000Y-66015000D01*
X64985000Y-66015000D02*
X64985000Y-79985000D01*
X64985000Y-79985000D02*
X51015000Y-79985000D01*
X51015000Y-79985000D02*
X51015000Y-66015000D01*
%TO.C,R7*%
X215369948Y-126919990D02*
X215039948Y-126919992D01*
X215369996Y-133459990D02*
X215369948Y-126919990D01*
X215039996Y-133459992D02*
X215369996Y-133459990D01*
X212629948Y-126920010D02*
X212959948Y-126920008D01*
X212629996Y-133460010D02*
X212629948Y-126920010D01*
X212959996Y-133460008D02*
X212629996Y-133460010D01*
D15*
%TO.C,U2*%
X191620073Y-135000054D02*
X171389973Y-134999946D01*
X171390027Y-124994946D01*
X191620127Y-124995054D01*
X191620073Y-135000054D01*
G36*
X191620127Y-124995054D02*
G01*
X191620073Y-135000054D01*
X171389973Y-134999946D01*
X171390027Y-124994946D01*
X191620127Y-124995054D01*
G37*
D14*
X191609993Y-131270054D02*
X191530201Y-131267441D01*
X191530201Y-131267441D02*
X191450751Y-131259616D01*
X191450751Y-131259616D02*
X191371983Y-131246610D01*
X191371983Y-131246610D02*
X191294234Y-131228481D01*
X191294234Y-131228481D02*
X191217837Y-131205306D01*
X191217837Y-131205306D02*
X191143120Y-131177184D01*
X191143120Y-131177184D02*
X191070402Y-131144236D01*
X191070402Y-131144236D02*
X190999994Y-131106601D01*
X190999994Y-131106601D02*
X190932199Y-131064443D01*
X190932199Y-131064443D02*
X190867306Y-131017941D01*
X190867306Y-131017941D02*
X190805593Y-130967294D01*
X190805593Y-130967294D02*
X190747325Y-130912719D01*
X190747325Y-130912719D02*
X190692751Y-130854451D01*
X190692751Y-130854451D02*
X190642105Y-130792737D01*
X190642105Y-130792737D02*
X190595603Y-130727844D01*
X190595603Y-130727844D02*
X190553446Y-130660048D01*
X190553446Y-130660048D02*
X190515812Y-130589640D01*
X190515812Y-130589640D02*
X190482864Y-130516921D01*
X190482864Y-130516921D02*
X190454743Y-130442204D01*
X190454743Y-130442204D02*
X190431569Y-130365807D01*
X190431569Y-130365807D02*
X190413440Y-130288057D01*
X190413440Y-130288057D02*
X190400436Y-130209289D01*
X190400436Y-130209289D02*
X190392611Y-130129839D01*
X190392611Y-130129839D02*
X190390000Y-130050047D01*
X190390000Y-129950047D02*
X190392613Y-129870255D01*
X190392613Y-129870255D02*
X190400438Y-129790805D01*
X190400438Y-129790805D02*
X190413443Y-129712037D01*
X190413443Y-129712037D02*
X190431572Y-129634288D01*
X190431572Y-129634288D02*
X190454748Y-129557891D01*
X190454748Y-129557891D02*
X190482870Y-129483174D01*
X190482870Y-129483174D02*
X190515818Y-129410456D01*
X190515818Y-129410456D02*
X190553453Y-129340048D01*
X190553453Y-129340048D02*
X190595611Y-129272253D01*
X190595611Y-129272253D02*
X190642113Y-129207360D01*
X190642113Y-129207360D02*
X190692760Y-129145647D01*
X190692760Y-129145647D02*
X190747335Y-129087379D01*
X190747335Y-129087379D02*
X190805603Y-129032805D01*
X190805603Y-129032805D02*
X190867316Y-128982159D01*
X190867316Y-128982159D02*
X190932210Y-128935657D01*
X190932210Y-128935657D02*
X191000006Y-128893499D01*
X191000006Y-128893499D02*
X191070414Y-128855866D01*
X191070414Y-128855866D02*
X191143132Y-128822918D01*
X191143132Y-128822918D02*
X191217850Y-128794797D01*
X191217850Y-128794797D02*
X191294247Y-128771622D01*
X191294247Y-128771622D02*
X191371996Y-128753494D01*
X191371996Y-128753494D02*
X191450765Y-128740490D01*
X191450765Y-128740490D02*
X191530215Y-128732665D01*
X191530215Y-128732665D02*
X191610007Y-128730054D01*
X191610017Y-126825054D02*
X191610007Y-128730054D01*
X191609993Y-131270054D02*
X191609983Y-133175054D01*
X191609983Y-133175054D02*
X191024983Y-133175051D01*
X191610017Y-126825054D02*
X191300017Y-126825052D01*
%TO.C,R2*%
D12*
X45270000Y-74370000D02*
X45270000Y-74040000D01*
X38730000Y-74370000D02*
X45270000Y-74370000D01*
X38730000Y-74040000D02*
X38730000Y-74370000D01*
X45270000Y-71630000D02*
X45270000Y-71960000D01*
X38730000Y-71630000D02*
X45270000Y-71630000D01*
X38730000Y-71960000D02*
X38730000Y-71630000D01*
%TO.C,RV6*%
D10*
X46500000Y-105000000D02*
X46427281Y-106109473D01*
X46427281Y-106109473D02*
X46210370Y-107199962D01*
X46210370Y-107199962D02*
X45852976Y-108252809D01*
X45852976Y-108252809D02*
X45361216Y-109250000D01*
X45361216Y-109250000D02*
X44743503Y-110174472D01*
X44743503Y-110174472D02*
X44010408Y-111010408D01*
X44010408Y-111010408D02*
X43174472Y-111743503D01*
X43174472Y-111743503D02*
X42250000Y-112361216D01*
X42250000Y-112361216D02*
X41252809Y-112852976D01*
X41252809Y-112852976D02*
X40199962Y-113210370D01*
X40199962Y-113210370D02*
X39109473Y-113427281D01*
X39109473Y-113427281D02*
X38000000Y-113500000D01*
X38000000Y-113500000D02*
X36890527Y-113427281D01*
X36890527Y-113427281D02*
X35800038Y-113210370D01*
X35800038Y-113210370D02*
X34747191Y-112852976D01*
X34747191Y-112852976D02*
X33750000Y-112361216D01*
X33750000Y-112361216D02*
X32825528Y-111743503D01*
X32825528Y-111743503D02*
X31989592Y-111010408D01*
X31989592Y-111010408D02*
X31256497Y-110174472D01*
X31256497Y-110174472D02*
X30638784Y-109250000D01*
X30638784Y-109250000D02*
X30147024Y-108252809D01*
X30147024Y-108252809D02*
X29789630Y-107199962D01*
X29789630Y-107199962D02*
X29572719Y-106109473D01*
X29572719Y-106109473D02*
X29500000Y-105000000D01*
X29500000Y-105000000D02*
X29572719Y-103890527D01*
X29572719Y-103890527D02*
X29789630Y-102800038D01*
X29789630Y-102800038D02*
X30147024Y-101747191D01*
X30147024Y-101747191D02*
X30638784Y-100750000D01*
X30638784Y-100750000D02*
X31256497Y-99825528D01*
X31256497Y-99825528D02*
X31989592Y-98989592D01*
X31989592Y-98989592D02*
X32825528Y-98256497D01*
X32825528Y-98256497D02*
X33750000Y-97638784D01*
X33750000Y-97638784D02*
X34747191Y-97147024D01*
X34747191Y-97147024D02*
X35800038Y-96789630D01*
X35800038Y-96789630D02*
X36890527Y-96572719D01*
X36890527Y-96572719D02*
X38000000Y-96500000D01*
X38000000Y-96500000D02*
X39109473Y-96572719D01*
X39109473Y-96572719D02*
X40199962Y-96789630D01*
X40199962Y-96789630D02*
X41252809Y-97147024D01*
X41252809Y-97147024D02*
X42250000Y-97638784D01*
X42250000Y-97638784D02*
X43174472Y-98256497D01*
X43174472Y-98256497D02*
X44010408Y-98989592D01*
X44010408Y-98989592D02*
X44743503Y-99825528D01*
X44743503Y-99825528D02*
X45361216Y-100750000D01*
X45361216Y-100750000D02*
X45852976Y-101747191D01*
X45852976Y-101747191D02*
X46210370Y-102800038D01*
X46210370Y-102800038D02*
X46427281Y-103890527D01*
X46427281Y-103890527D02*
X46500000Y-105000000D01*
X30700000Y-117500000D02*
X45300000Y-117500000D01*
X30700000Y-117500000D02*
X30700000Y-109400000D01*
X45300000Y-117500000D02*
X45300000Y-109400000D01*
D11*
X46500000Y-105000000D02*
X46427281Y-106109473D01*
X46427281Y-106109473D02*
X46210370Y-107199962D01*
X46210370Y-107199962D02*
X45852976Y-108252809D01*
X45852976Y-108252809D02*
X45361216Y-109250000D01*
X45361216Y-109250000D02*
X44743503Y-110174472D01*
X44743503Y-110174472D02*
X44010408Y-111010408D01*
X44010408Y-111010408D02*
X43174472Y-111743503D01*
X43174472Y-111743503D02*
X42250000Y-112361216D01*
X42250000Y-112361216D02*
X41252809Y-112852976D01*
X41252809Y-112852976D02*
X40199962Y-113210370D01*
X40199962Y-113210370D02*
X39109473Y-113427281D01*
X39109473Y-113427281D02*
X38000000Y-113500000D01*
X38000000Y-113500000D02*
X36890527Y-113427281D01*
X36890527Y-113427281D02*
X35800038Y-113210370D01*
X35800038Y-113210370D02*
X34747191Y-112852976D01*
X34747191Y-112852976D02*
X33750000Y-112361216D01*
X33750000Y-112361216D02*
X32825528Y-111743503D01*
X32825528Y-111743503D02*
X31989592Y-111010408D01*
X31989592Y-111010408D02*
X31256497Y-110174472D01*
X31256497Y-110174472D02*
X30638784Y-109250000D01*
X30638784Y-109250000D02*
X30147024Y-108252809D01*
X30147024Y-108252809D02*
X29789630Y-107199962D01*
X29789630Y-107199962D02*
X29572719Y-106109473D01*
X29572719Y-106109473D02*
X29500000Y-105000000D01*
X29500000Y-105000000D02*
X29572719Y-103890527D01*
X29572719Y-103890527D02*
X29789630Y-102800038D01*
X29789630Y-102800038D02*
X30147024Y-101747191D01*
X30147024Y-101747191D02*
X30638784Y-100750000D01*
X30638784Y-100750000D02*
X31256497Y-99825528D01*
X31256497Y-99825528D02*
X31989592Y-98989592D01*
X31989592Y-98989592D02*
X32825528Y-98256497D01*
X32825528Y-98256497D02*
X33750000Y-97638784D01*
X33750000Y-97638784D02*
X34747191Y-97147024D01*
X34747191Y-97147024D02*
X35800038Y-96789630D01*
X35800038Y-96789630D02*
X36890527Y-96572719D01*
X36890527Y-96572719D02*
X38000000Y-96500000D01*
X38000000Y-96500000D02*
X39109473Y-96572719D01*
X39109473Y-96572719D02*
X40199962Y-96789630D01*
X40199962Y-96789630D02*
X41252809Y-97147024D01*
X41252809Y-97147024D02*
X42250000Y-97638784D01*
X42250000Y-97638784D02*
X43174472Y-98256497D01*
X43174472Y-98256497D02*
X44010408Y-98989592D01*
X44010408Y-98989592D02*
X44743503Y-99825528D01*
X44743503Y-99825528D02*
X45361216Y-100750000D01*
X45361216Y-100750000D02*
X45852976Y-101747191D01*
X45852976Y-101747191D02*
X46210370Y-102800038D01*
X46210370Y-102800038D02*
X46427281Y-103890527D01*
X46427281Y-103890527D02*
X46500000Y-105000000D01*
X28500000Y-95500000D02*
X47500000Y-95500000D01*
X47500000Y-95500000D02*
X47500000Y-123240000D01*
X47500000Y-123240000D02*
X28500000Y-123240000D01*
X28500000Y-123240000D02*
X28500000Y-95500000D01*
X30700000Y-109400000D02*
X30700000Y-117500000D01*
X30700000Y-117500000D02*
X45300000Y-117500000D01*
X45300000Y-117500000D02*
X45300000Y-109400000D01*
%TO.C,RV7*%
D10*
X87500000Y-105000000D02*
X87427281Y-106109473D01*
X87427281Y-106109473D02*
X87210370Y-107199962D01*
X87210370Y-107199962D02*
X86852976Y-108252809D01*
X86852976Y-108252809D02*
X86361216Y-109250000D01*
X86361216Y-109250000D02*
X85743503Y-110174472D01*
X85743503Y-110174472D02*
X85010408Y-111010408D01*
X85010408Y-111010408D02*
X84174472Y-111743503D01*
X84174472Y-111743503D02*
X83250000Y-112361216D01*
X83250000Y-112361216D02*
X82252809Y-112852976D01*
X82252809Y-112852976D02*
X81199962Y-113210370D01*
X81199962Y-113210370D02*
X80109473Y-113427281D01*
X80109473Y-113427281D02*
X79000000Y-113500000D01*
X79000000Y-113500000D02*
X77890527Y-113427281D01*
X77890527Y-113427281D02*
X76800038Y-113210370D01*
X76800038Y-113210370D02*
X75747191Y-112852976D01*
X75747191Y-112852976D02*
X74750000Y-112361216D01*
X74750000Y-112361216D02*
X73825528Y-111743503D01*
X73825528Y-111743503D02*
X72989592Y-111010408D01*
X72989592Y-111010408D02*
X72256497Y-110174472D01*
X72256497Y-110174472D02*
X71638784Y-109250000D01*
X71638784Y-109250000D02*
X71147024Y-108252809D01*
X71147024Y-108252809D02*
X70789630Y-107199962D01*
X70789630Y-107199962D02*
X70572719Y-106109473D01*
X70572719Y-106109473D02*
X70500000Y-105000000D01*
X70500000Y-105000000D02*
X70572719Y-103890527D01*
X70572719Y-103890527D02*
X70789630Y-102800038D01*
X70789630Y-102800038D02*
X71147024Y-101747191D01*
X71147024Y-101747191D02*
X71638784Y-100750000D01*
X71638784Y-100750000D02*
X72256497Y-99825528D01*
X72256497Y-99825528D02*
X72989592Y-98989592D01*
X72989592Y-98989592D02*
X73825528Y-98256497D01*
X73825528Y-98256497D02*
X74750000Y-97638784D01*
X74750000Y-97638784D02*
X75747191Y-97147024D01*
X75747191Y-97147024D02*
X76800038Y-96789630D01*
X76800038Y-96789630D02*
X77890527Y-96572719D01*
X77890527Y-96572719D02*
X79000000Y-96500000D01*
X79000000Y-96500000D02*
X80109473Y-96572719D01*
X80109473Y-96572719D02*
X81199962Y-96789630D01*
X81199962Y-96789630D02*
X82252809Y-97147024D01*
X82252809Y-97147024D02*
X83250000Y-97638784D01*
X83250000Y-97638784D02*
X84174472Y-98256497D01*
X84174472Y-98256497D02*
X85010408Y-98989592D01*
X85010408Y-98989592D02*
X85743503Y-99825528D01*
X85743503Y-99825528D02*
X86361216Y-100750000D01*
X86361216Y-100750000D02*
X86852976Y-101747191D01*
X86852976Y-101747191D02*
X87210370Y-102800038D01*
X87210370Y-102800038D02*
X87427281Y-103890527D01*
X87427281Y-103890527D02*
X87500000Y-105000000D01*
X71700000Y-117500000D02*
X86300000Y-117500000D01*
X71700000Y-117500000D02*
X71700000Y-109400000D01*
X86300000Y-117500000D02*
X86300000Y-109400000D01*
D11*
X87500000Y-105000000D02*
X87427281Y-106109473D01*
X87427281Y-106109473D02*
X87210370Y-107199962D01*
X87210370Y-107199962D02*
X86852976Y-108252809D01*
X86852976Y-108252809D02*
X86361216Y-109250000D01*
X86361216Y-109250000D02*
X85743503Y-110174472D01*
X85743503Y-110174472D02*
X85010408Y-111010408D01*
X85010408Y-111010408D02*
X84174472Y-111743503D01*
X84174472Y-111743503D02*
X83250000Y-112361216D01*
X83250000Y-112361216D02*
X82252809Y-112852976D01*
X82252809Y-112852976D02*
X81199962Y-113210370D01*
X81199962Y-113210370D02*
X80109473Y-113427281D01*
X80109473Y-113427281D02*
X79000000Y-113500000D01*
X79000000Y-113500000D02*
X77890527Y-113427281D01*
X77890527Y-113427281D02*
X76800038Y-113210370D01*
X76800038Y-113210370D02*
X75747191Y-112852976D01*
X75747191Y-112852976D02*
X74750000Y-112361216D01*
X74750000Y-112361216D02*
X73825528Y-111743503D01*
X73825528Y-111743503D02*
X72989592Y-111010408D01*
X72989592Y-111010408D02*
X72256497Y-110174472D01*
X72256497Y-110174472D02*
X71638784Y-109250000D01*
X71638784Y-109250000D02*
X71147024Y-108252809D01*
X71147024Y-108252809D02*
X70789630Y-107199962D01*
X70789630Y-107199962D02*
X70572719Y-106109473D01*
X70572719Y-106109473D02*
X70500000Y-105000000D01*
X70500000Y-105000000D02*
X70572719Y-103890527D01*
X70572719Y-103890527D02*
X70789630Y-102800038D01*
X70789630Y-102800038D02*
X71147024Y-101747191D01*
X71147024Y-101747191D02*
X71638784Y-100750000D01*
X71638784Y-100750000D02*
X72256497Y-99825528D01*
X72256497Y-99825528D02*
X72989592Y-98989592D01*
X72989592Y-98989592D02*
X73825528Y-98256497D01*
X73825528Y-98256497D02*
X74750000Y-97638784D01*
X74750000Y-97638784D02*
X75747191Y-97147024D01*
X75747191Y-97147024D02*
X76800038Y-96789630D01*
X76800038Y-96789630D02*
X77890527Y-96572719D01*
X77890527Y-96572719D02*
X79000000Y-96500000D01*
X79000000Y-96500000D02*
X80109473Y-96572719D01*
X80109473Y-96572719D02*
X81199962Y-96789630D01*
X81199962Y-96789630D02*
X82252809Y-97147024D01*
X82252809Y-97147024D02*
X83250000Y-97638784D01*
X83250000Y-97638784D02*
X84174472Y-98256497D01*
X84174472Y-98256497D02*
X85010408Y-98989592D01*
X85010408Y-98989592D02*
X85743503Y-99825528D01*
X85743503Y-99825528D02*
X86361216Y-100750000D01*
X86361216Y-100750000D02*
X86852976Y-101747191D01*
X86852976Y-101747191D02*
X87210370Y-102800038D01*
X87210370Y-102800038D02*
X87427281Y-103890527D01*
X87427281Y-103890527D02*
X87500000Y-105000000D01*
X69500000Y-95500000D02*
X88500000Y-95500000D01*
X88500000Y-95500000D02*
X88500000Y-123240000D01*
X88500000Y-123240000D02*
X69500000Y-123240000D01*
X69500000Y-123240000D02*
X69500000Y-95500000D01*
X71700000Y-109400000D02*
X71700000Y-117500000D01*
X71700000Y-117500000D02*
X86300000Y-117500000D01*
X86300000Y-117500000D02*
X86300000Y-109400000D01*
%TD*%
M02*
