%TF.GenerationSoftware,Flux,Flux PCB Export,1*%
%TF.CreationDate,2026-09-12T20:35:21+00:00*%
%TF.ProjectId,input,696e7075-742e-46b6-9963-61645f706362,rev?*%
%TF.SameCoordinates,Original*%
%TF.FileFunction,Paste,Bot*%
%TF.FilePolarity,Positive*%
%FSLAX46Y46*%
G04 Gerber Fmt 4.6, Leading zero omitted, Abs format (unit mm)*
G04 Filename: acidbrain-midi-sequencer-hat*
G04 Build it with Flux! Visit our site at: https://www.flux.ai (Flux) date 2026-09-12 20:35:21*
%MOMM*%
%LPD*%
G01*
G04 APERTURE LIST*
%ADD10R,1.980000X1.980000*%
%ADD11C,1.980000*%
%ADD12C,1.600000*%
%ADD13C,2.200000*%
%ADD14R,1.110000X1.110000*%
%ADD15C,1.110000*%
%ADD16R,1.950000X1.950000*%
%ADD17C,1.950000*%
%ADD18R,1.600000X1.600000*%
%ADD19R,1.400000X1.400000*%
%ADD20C,1.400000*%
%ADD21C,1.524000*%
G04 APERTURE END LIST*
D10*
%TO.C,RV1*%
X33000000Y-162250000D03*
D11*
X38000000Y-162250000D03*
X43000000Y-162250000D03*
%TD*%
D12*
%TO.C,R3*%
X201810000Y-73000000D03*
X194190000Y-73000000D03*
%TD*%
D13*
%TO.C,SW4*%
X184540000Y-34920000D03*
X178190000Y-37460000D03*
%TD*%
D12*
%TO.C,R1*%
X45810000Y-40000000D03*
X38190000Y-40000000D03*
%TD*%
D14*
%TO.C,U3*%
X216190000Y-113460000D03*
D15*
X216190000Y-118540000D03*
X223810000Y-116000000D03*
X216190000Y-116000000D03*
X223810000Y-113460000D03*
X223810000Y-118540000D03*
%TD*%
D16*
%TO.C,J3*%
X215299945Y-147500037D03*
D17*
X225299982Y-152499963D03*
X215300055Y-162500037D03*
X212800037Y-160000055D03*
X215300000Y-155000037D03*
X212799963Y-150000055D03*
X225300018Y-157499963D03*
%TD*%
D13*
%TO.C,SW1*%
X60540000Y-34920000D03*
X54190000Y-37460000D03*
%TD*%
D10*
%TO.C,RV9*%
X156000000Y-121250000D03*
D11*
X161000000Y-121250000D03*
X166000000Y-121250000D03*
%TD*%
D12*
%TO.C,R4*%
X201810000Y-40000000D03*
X194190000Y-40000000D03*
%TD*%
D18*
%TO.C,C3*%
X16000000Y-45000000D03*
D12*
X18000000Y-45000000D03*
%TD*%
D10*
%TO.C,RV10*%
X197000000Y-121250000D03*
D11*
X202000000Y-121250000D03*
X207000000Y-121250000D03*
%TD*%
D12*
%TO.C,C2*%
X194000000Y-134000000D03*
X193999963Y-129000000D03*
%TD*%
D10*
%TO.C,RV4*%
X156000000Y-162250000D03*
D11*
X161000000Y-162250000D03*
X166000000Y-162250000D03*
%TD*%
D12*
%TO.C,R6*%
X24499944Y-81190000D03*
X24500000Y-88810000D03*
%TD*%
D16*
%TO.C,J2*%
X24700015Y-162499990D03*
D17*
X14700005Y-157500010D03*
X24699985Y-147499990D03*
X27199990Y-149999985D03*
X24700000Y-154999990D03*
X27200010Y-159999985D03*
X14699995Y-152500010D03*
%TD*%
D10*
%TO.C,RV5*%
X197000000Y-162250000D03*
D11*
X202000000Y-162250000D03*
X207000000Y-162250000D03*
%TD*%
D12*
%TO.C,R8*%
X223810000Y-106000000D03*
X216190000Y-106000000D03*
%TD*%
%TO.C,C4*%
X227000000Y-118500000D03*
X226999963Y-113500000D03*
%TD*%
D18*
%TO.C,D1*%
X219000000Y-134000000D03*
D12*
X218999944Y-126380000D03*
%TD*%
D13*
%TO.C,SW3*%
X184540000Y-67920000D03*
X178190000Y-70460000D03*
%TD*%
D12*
%TO.C,C1*%
X87000000Y-134000000D03*
X86999963Y-129000000D03*
%TD*%
%TO.C,R5*%
X19999944Y-81190000D03*
X20000000Y-88810000D03*
%TD*%
D19*
%TO.C,U1*%
X90610000Y-133810000D03*
D20*
X105850000Y-126190000D03*
X108390000Y-133810000D03*
X90610000Y-126190000D03*
X100770000Y-126190000D03*
X103310000Y-126190000D03*
X95690000Y-126190000D03*
X103310000Y-133810000D03*
X108390000Y-126190000D03*
X93150000Y-133810000D03*
X100770000Y-133810000D03*
X105850000Y-133810000D03*
X95690000Y-133810000D03*
X98230000Y-126190000D03*
X93150000Y-126190000D03*
X98230000Y-133810000D03*
%TD*%
D10*
%TO.C,RV3*%
X115000000Y-162250000D03*
D11*
X120000000Y-162250000D03*
X125000000Y-162250000D03*
%TD*%
D21*
%TO.C,J1*%
X62841400Y-23103100D03*
X34901400Y-23103100D03*
X60301400Y-23103100D03*
X39981400Y-23103100D03*
X29821400Y-25643100D03*
X29821400Y-23103100D03*
X67921400Y-25643100D03*
X34901400Y-25643100D03*
X57761400Y-23103100D03*
X50141400Y-25643100D03*
X57761400Y-25643100D03*
X22201400Y-23103100D03*
X37441400Y-25643100D03*
X47601400Y-23103100D03*
X32361400Y-25643100D03*
X55221400Y-23103100D03*
X27281400Y-23103100D03*
X22201400Y-25643100D03*
X67921400Y-23103100D03*
X55221400Y-25643100D03*
X65381400Y-25643100D03*
X62841400Y-25643100D03*
X42521400Y-23103100D03*
X70461400Y-23103100D03*
X65381400Y-23103100D03*
X32361400Y-23103100D03*
X27281400Y-25643100D03*
X45061400Y-25643100D03*
X52681400Y-23103100D03*
X37441400Y-23103100D03*
X52681400Y-25643100D03*
X45061400Y-23103100D03*
X47601400Y-25643100D03*
X24741400Y-23103100D03*
X42521400Y-25643100D03*
X24741400Y-25643100D03*
X50141400Y-23103100D03*
X39981400Y-25643100D03*
X60301400Y-25643100D03*
X70461400Y-25643100D03*
%TD*%
D10*
%TO.C,RV8*%
X115000000Y-121250000D03*
D11*
X120000000Y-121250000D03*
X125000000Y-121250000D03*
%TD*%
D10*
%TO.C,RV2*%
X74000000Y-162250000D03*
D11*
X79000000Y-162250000D03*
X84000000Y-162250000D03*
%TD*%
D13*
%TO.C,SW2*%
X60540000Y-67920000D03*
X54190000Y-70460000D03*
%TD*%
D12*
%TO.C,R7*%
X213999944Y-126380000D03*
X214000000Y-134000000D03*
%TD*%
D19*
%TO.C,U2*%
X190390020Y-126190047D03*
D20*
X175149980Y-133809966D03*
X172610020Y-126189953D03*
X190389980Y-133810047D03*
X180229980Y-133809993D03*
X177689980Y-133809980D03*
X185309980Y-133810020D03*
X177690020Y-126189980D03*
X172609980Y-133809953D03*
X187850020Y-126190034D03*
X180230020Y-126189993D03*
X175150020Y-126189966D03*
X185310020Y-126190020D03*
X182769980Y-133810007D03*
X187849980Y-133810034D03*
X182770020Y-126190007D03*
%TD*%
D12*
%TO.C,R2*%
X45810000Y-73000000D03*
X38190000Y-73000000D03*
%TD*%
D10*
%TO.C,RV6*%
X33000000Y-121250000D03*
D11*
X38000000Y-121250000D03*
X43000000Y-121250000D03*
%TD*%
D10*
%TO.C,RV7*%
X74000000Y-121250000D03*
D11*
X79000000Y-121250000D03*
X84000000Y-121250000D03*
%TD*%
M02*
