%TF.GenerationSoftware,Flux,Flux PCB Export,1*%
%TF.CreationDate,2026-09-12T20:35:23+00:00*%
%TF.ProjectId,input,696e7075-742e-46b6-9963-61645f706362,rev?*%
%TF.SameCoordinates,Original*%
%TF.FileFunction,Soldermask,Top*%
%TF.FilePolarity,Negative*%
%FSLAX46Y46*%
G04 Gerber Fmt 4.6, Leading zero omitted, Abs format (unit mm)*
G04 Filename: acidbrain-midi-sequencer-hat*
G04 Build it with Flux! Visit our site at: https://www.flux.ai (Flux) date 2026-09-12 20:35:23*
%MOMM*%
%LPD*%
G01*
G04 APERTURE LIST*
%ADD10C,0.000000*%
%ADD11R,1.980000X1.980000*%
%ADD12C,1.980000*%
%ADD13C,1.600000*%
%ADD14C,2.200000*%
%ADD15R,1.110000X1.110000*%
%ADD16C,1.110000*%
%ADD17R,1.950000X1.950000*%
%ADD18C,1.950000*%
%ADD19R,1.600000X1.600000*%
%ADD20R,1.400000X1.400000*%
%ADD21C,1.400000*%
%ADD22C,1.524000*%
G04 APERTURE END LIST*
D10*
%TO.C,*%
G36*
X225210391Y-13113692D02*
G01*
X225260482Y-13118166D01*
X225689939Y-13232015D01*
X225737253Y-13249057D01*
X226124018Y-13470827D01*
X226165309Y-13499534D01*
X226481497Y-13813850D01*
X226513952Y-13852266D01*
X226738015Y-14237707D01*
X226759421Y-14283213D01*
X226876090Y-14713512D01*
X226884988Y-14763008D01*
X226886312Y-15208842D01*
X226882097Y-15258955D01*
X226767985Y-15689939D01*
X226750943Y-15737253D01*
X226529173Y-16124018D01*
X226500466Y-16165309D01*
X226186150Y-16481497D01*
X226147734Y-16513952D01*
X225762293Y-16738015D01*
X225716787Y-16759421D01*
X225286488Y-16876090D01*
X225236992Y-16884988D01*
X224791158Y-16886312D01*
X224741045Y-16882097D01*
X224310061Y-16767985D01*
X224262747Y-16750943D01*
X223875982Y-16529173D01*
X223834691Y-16500466D01*
X223518503Y-16186150D01*
X223486048Y-16147734D01*
X223261985Y-15762293D01*
X223240579Y-15716787D01*
X223123910Y-15286488D01*
X223115012Y-15236992D01*
X223113688Y-14791158D01*
X223117903Y-14741045D01*
X223232015Y-14310061D01*
X223249057Y-14262747D01*
X223470827Y-13875982D01*
X223499534Y-13834691D01*
X223813850Y-13518503D01*
X223852266Y-13486048D01*
X224237707Y-13261985D01*
X224283213Y-13240579D01*
X224713512Y-13123910D01*
X224763008Y-13115012D01*
X225208842Y-13113688D01*
X225210391Y-13113692D01*
G37*
G36*
X225210391Y-173113692D02*
G01*
X225260482Y-173118166D01*
X225689939Y-173232015D01*
X225737253Y-173249057D01*
X226124018Y-173470827D01*
X226165309Y-173499534D01*
X226481497Y-173813850D01*
X226513952Y-173852266D01*
X226738015Y-174237707D01*
X226759421Y-174283213D01*
X226876090Y-174713512D01*
X226884988Y-174763008D01*
X226886312Y-175208842D01*
X226882097Y-175258955D01*
X226767985Y-175689939D01*
X226750943Y-175737253D01*
X226529173Y-176124018D01*
X226500466Y-176165309D01*
X226186150Y-176481497D01*
X226147734Y-176513952D01*
X225762293Y-176738015D01*
X225716787Y-176759421D01*
X225286488Y-176876090D01*
X225236992Y-176884988D01*
X224791158Y-176886312D01*
X224741045Y-176882097D01*
X224310061Y-176767985D01*
X224262747Y-176750943D01*
X223875982Y-176529173D01*
X223834691Y-176500466D01*
X223518503Y-176186150D01*
X223486048Y-176147734D01*
X223261985Y-175762293D01*
X223240579Y-175716787D01*
X223123910Y-175286488D01*
X223115012Y-175236992D01*
X223113688Y-174791158D01*
X223117903Y-174741045D01*
X223232015Y-174310061D01*
X223249057Y-174262747D01*
X223470827Y-173875982D01*
X223499534Y-173834691D01*
X223813850Y-173518503D01*
X223852266Y-173486048D01*
X224237707Y-173261985D01*
X224283213Y-173240579D01*
X224713512Y-173123910D01*
X224763008Y-173115012D01*
X225208842Y-173113688D01*
X225210391Y-173113692D01*
G37*
G36*
X15210391Y-13113692D02*
G01*
X15260482Y-13118166D01*
X15689939Y-13232015D01*
X15737253Y-13249057D01*
X16124018Y-13470827D01*
X16165309Y-13499534D01*
X16481497Y-13813850D01*
X16513952Y-13852266D01*
X16738015Y-14237707D01*
X16759421Y-14283213D01*
X16876090Y-14713512D01*
X16884988Y-14763008D01*
X16886312Y-15208842D01*
X16882097Y-15258955D01*
X16767985Y-15689939D01*
X16750943Y-15737253D01*
X16529173Y-16124018D01*
X16500466Y-16165309D01*
X16186150Y-16481497D01*
X16147734Y-16513952D01*
X15762293Y-16738015D01*
X15716787Y-16759421D01*
X15286488Y-16876090D01*
X15236992Y-16884988D01*
X14791158Y-16886312D01*
X14741045Y-16882097D01*
X14310061Y-16767985D01*
X14262747Y-16750943D01*
X13875982Y-16529173D01*
X13834691Y-16500466D01*
X13518503Y-16186150D01*
X13486048Y-16147734D01*
X13261985Y-15762293D01*
X13240579Y-15716787D01*
X13123910Y-15286488D01*
X13115012Y-15236992D01*
X13113688Y-14791158D01*
X13117903Y-14741045D01*
X13232015Y-14310061D01*
X13249057Y-14262747D01*
X13470827Y-13875982D01*
X13499534Y-13834691D01*
X13813850Y-13518503D01*
X13852266Y-13486048D01*
X14237707Y-13261985D01*
X14283213Y-13240579D01*
X14713512Y-13123910D01*
X14763008Y-13115012D01*
X15208842Y-13113688D01*
X15210391Y-13113692D01*
G37*
G36*
X15210391Y-173113692D02*
G01*
X15260482Y-173118166D01*
X15689939Y-173232015D01*
X15737253Y-173249057D01*
X16124018Y-173470827D01*
X16165309Y-173499534D01*
X16481497Y-173813850D01*
X16513952Y-173852266D01*
X16738015Y-174237707D01*
X16759421Y-174283213D01*
X16876090Y-174713512D01*
X16884988Y-174763008D01*
X16886312Y-175208842D01*
X16882097Y-175258955D01*
X16767985Y-175689939D01*
X16750943Y-175737253D01*
X16529173Y-176124018D01*
X16500466Y-176165309D01*
X16186150Y-176481497D01*
X16147734Y-176513952D01*
X15762293Y-176738015D01*
X15716787Y-176759421D01*
X15286488Y-176876090D01*
X15236992Y-176884988D01*
X14791158Y-176886312D01*
X14741045Y-176882097D01*
X14310061Y-176767985D01*
X14262747Y-176750943D01*
X13875982Y-176529173D01*
X13834691Y-176500466D01*
X13518503Y-176186150D01*
X13486048Y-176147734D01*
X13261985Y-175762293D01*
X13240579Y-175716787D01*
X13123910Y-175286488D01*
X13115012Y-175236992D01*
X13113688Y-174791158D01*
X13117903Y-174741045D01*
X13232015Y-174310061D01*
X13249057Y-174262747D01*
X13470827Y-173875982D01*
X13499534Y-173834691D01*
X13813850Y-173518503D01*
X13852266Y-173486048D01*
X14237707Y-173261985D01*
X14283213Y-173240579D01*
X14713512Y-173123910D01*
X14763008Y-173115012D01*
X15208842Y-173113688D01*
X15210391Y-173113692D01*
G37*
%TD*%
D11*
%TO.C,RV1*%
X33000000Y-162250000D03*
D12*
X38000000Y-162250000D03*
X43000000Y-162250000D03*
%TD*%
D13*
%TO.C,R3*%
X201810000Y-73000000D03*
X194190000Y-73000000D03*
%TD*%
D14*
%TO.C,SW4*%
X184540000Y-34920000D03*
X178190000Y-37460000D03*
%TD*%
D13*
%TO.C,R1*%
X45810000Y-40000000D03*
X38190000Y-40000000D03*
%TD*%
D15*
%TO.C,U3*%
X216190000Y-113460000D03*
D16*
X216190000Y-118540000D03*
X223810000Y-116000000D03*
X216190000Y-116000000D03*
X223810000Y-113460000D03*
X223810000Y-118540000D03*
%TD*%
D17*
%TO.C,J3*%
X215299945Y-147500037D03*
D18*
X225299982Y-152499963D03*
X215300055Y-162500037D03*
X212800037Y-160000055D03*
X215300000Y-155000037D03*
X212799963Y-150000055D03*
X225300018Y-157499963D03*
%TD*%
D14*
%TO.C,SW1*%
X60540000Y-34920000D03*
X54190000Y-37460000D03*
%TD*%
D11*
%TO.C,RV9*%
X156000000Y-121250000D03*
D12*
X161000000Y-121250000D03*
X166000000Y-121250000D03*
%TD*%
D13*
%TO.C,R4*%
X201810000Y-40000000D03*
X194190000Y-40000000D03*
%TD*%
D19*
%TO.C,C3*%
X16000000Y-45000000D03*
D13*
X18000000Y-45000000D03*
%TD*%
D11*
%TO.C,RV10*%
X197000000Y-121250000D03*
D12*
X202000000Y-121250000D03*
X207000000Y-121250000D03*
%TD*%
D13*
%TO.C,C2*%
X194000000Y-134000000D03*
X193999963Y-129000000D03*
%TD*%
D11*
%TO.C,RV4*%
X156000000Y-162250000D03*
D12*
X161000000Y-162250000D03*
X166000000Y-162250000D03*
%TD*%
D13*
%TO.C,R6*%
X24499944Y-81190000D03*
X24500000Y-88810000D03*
%TD*%
D17*
%TO.C,J2*%
X24700015Y-162499990D03*
D18*
X14700005Y-157500010D03*
X24699985Y-147499990D03*
X27199990Y-149999985D03*
X24700000Y-154999990D03*
X27200010Y-159999985D03*
X14699995Y-152500010D03*
%TD*%
D11*
%TO.C,RV5*%
X197000000Y-162250000D03*
D12*
X202000000Y-162250000D03*
X207000000Y-162250000D03*
%TD*%
D13*
%TO.C,R8*%
X223810000Y-106000000D03*
X216190000Y-106000000D03*
%TD*%
%TO.C,C4*%
X227000000Y-118500000D03*
X226999963Y-113500000D03*
%TD*%
D19*
%TO.C,D1*%
X219000000Y-134000000D03*
D13*
X218999944Y-126380000D03*
%TD*%
D14*
%TO.C,SW3*%
X184540000Y-67920000D03*
X178190000Y-70460000D03*
%TD*%
D13*
%TO.C,C1*%
X87000000Y-134000000D03*
X86999963Y-129000000D03*
%TD*%
%TO.C,R5*%
X19999944Y-81190000D03*
X20000000Y-88810000D03*
%TD*%
D20*
%TO.C,U1*%
X90610000Y-133810000D03*
D21*
X105850000Y-126190000D03*
X108390000Y-133810000D03*
X90610000Y-126190000D03*
X100770000Y-126190000D03*
X103310000Y-126190000D03*
X95690000Y-126190000D03*
X103310000Y-133810000D03*
X108390000Y-126190000D03*
X93150000Y-133810000D03*
X100770000Y-133810000D03*
X105850000Y-133810000D03*
X95690000Y-133810000D03*
X98230000Y-126190000D03*
X93150000Y-126190000D03*
X98230000Y-133810000D03*
%TD*%
D11*
%TO.C,RV3*%
X115000000Y-162250000D03*
D12*
X120000000Y-162250000D03*
X125000000Y-162250000D03*
%TD*%
D22*
%TO.C,J1*%
X62841400Y-23103100D03*
X34901400Y-23103100D03*
X60301400Y-23103100D03*
X39981400Y-23103100D03*
X29821400Y-25643100D03*
X29821400Y-23103100D03*
X67921400Y-25643100D03*
X34901400Y-25643100D03*
X57761400Y-23103100D03*
X50141400Y-25643100D03*
X57761400Y-25643100D03*
X22201400Y-23103100D03*
X37441400Y-25643100D03*
X47601400Y-23103100D03*
X32361400Y-25643100D03*
X55221400Y-23103100D03*
X27281400Y-23103100D03*
X22201400Y-25643100D03*
X67921400Y-23103100D03*
X55221400Y-25643100D03*
X65381400Y-25643100D03*
X62841400Y-25643100D03*
X42521400Y-23103100D03*
X70461400Y-23103100D03*
X65381400Y-23103100D03*
X32361400Y-23103100D03*
X27281400Y-25643100D03*
X45061400Y-25643100D03*
X52681400Y-23103100D03*
X37441400Y-23103100D03*
X52681400Y-25643100D03*
X45061400Y-23103100D03*
X47601400Y-25643100D03*
X24741400Y-23103100D03*
X42521400Y-25643100D03*
X24741400Y-25643100D03*
X50141400Y-23103100D03*
X39981400Y-25643100D03*
X60301400Y-25643100D03*
X70461400Y-25643100D03*
%TD*%
D11*
%TO.C,RV8*%
X115000000Y-121250000D03*
D12*
X120000000Y-121250000D03*
X125000000Y-121250000D03*
%TD*%
D11*
%TO.C,RV2*%
X74000000Y-162250000D03*
D12*
X79000000Y-162250000D03*
X84000000Y-162250000D03*
%TD*%
D14*
%TO.C,SW2*%
X60540000Y-67920000D03*
X54190000Y-70460000D03*
%TD*%
D13*
%TO.C,R7*%
X213999944Y-126380000D03*
X214000000Y-134000000D03*
%TD*%
D20*
%TO.C,U2*%
X190390020Y-126190047D03*
D21*
X175149980Y-133809966D03*
X172610020Y-126189953D03*
X190389980Y-133810047D03*
X180229980Y-133809993D03*
X177689980Y-133809980D03*
X185309980Y-133810020D03*
X177690020Y-126189980D03*
X172609980Y-133809953D03*
X187850020Y-126190034D03*
X180230020Y-126189993D03*
X175150020Y-126189966D03*
X185310020Y-126190020D03*
X182769980Y-133810007D03*
X187849980Y-133810034D03*
X182770020Y-126190007D03*
%TD*%
D13*
%TO.C,R2*%
X45810000Y-73000000D03*
X38190000Y-73000000D03*
%TD*%
D11*
%TO.C,RV6*%
X33000000Y-121250000D03*
D12*
X38000000Y-121250000D03*
X43000000Y-121250000D03*
%TD*%
D11*
%TO.C,RV7*%
X74000000Y-121250000D03*
D12*
X79000000Y-121250000D03*
X84000000Y-121250000D03*
%TD*%
M02*
