M48
; DRILL file Flux date 2026-09-12T20:35:24
; FORMAT={-:-/ absolute / metric / decimal}
; #@! TF.CreationDate,2026-09-12T20:35:24+00:00
; #@! TF.GenerationSoftware,Flux,Flux PCB Export,1
; #@! TF.FileFunction,MixedPlating,1,2
FMAT,2
METRIC
; #@! TA.AperFunction,Plated,PTH,ComponentDrill
T1C0.710
; #@! TA.AperFunction,Plated,PTH,ComponentDrill
T2C0.800
; #@! TA.AperFunction,Plated,PTH,ComponentDrill
T3C0.900
; #@! TA.AperFunction,Plated,PTH,ComponentDrill
T4C1.016
; #@! TA.AperFunction,Plated,PTH,ComponentDrill
T5C1.300
; #@! TA.AperFunction,Plated,PTH,ComponentDrill
T6C1.320
; #@! TA.AperFunction,Plated,PTH,ComponentDrill
T7C1.500
; #@! TA.AperFunction,NonPlated,NPTH,ComponentDrill
T8C1.700
; #@! TA.AperFunction,NonPlated,NPTH,ComponentDrill
T9C2.400
; #@! TA.AperFunction,NonPlated,NPTH,ComponentDrill
T10C3.200
; #@! TA.AperFunction,NonPlated,NPTH,ComponentDrill
T11C4.000
%
G90
G05
T1
X216.19Y-113.46
X216.19Y-116.0
X216.19Y-118.54
X223.81Y-113.46
X223.81Y-116.0
X223.81Y-118.54
T2
X16.0Y-45.0
X18.0Y-45.0
X20.0Y-81.19
X20.0Y-88.81
X24.5Y-81.19
X24.5Y-88.81
X38.19Y-40.0
X38.19Y-73.0
X45.81Y-40.0
X45.81Y-73.0
X87.0Y-129.0
X87.0Y-134.0
X194.0Y-129.0
X194.0Y-134.0
X194.19Y-40.0
X194.19Y-73.0
X201.81Y-40.0
X201.81Y-73.0
X214.0Y-126.38
X214.0Y-134.0
X216.19Y-106.0
X219.0Y-126.38
X219.0Y-134.0
X223.81Y-106.0
X227.0Y-113.5
X227.0Y-118.5
T3
X90.61Y-126.19
X90.61Y-133.81
X93.15Y-126.19
X93.15Y-133.81
X95.69Y-126.19
X95.69Y-133.81
X98.23Y-126.19
X98.23Y-133.81
X100.77Y-126.19
X100.77Y-133.81
X103.31Y-126.19
X103.31Y-133.81
X105.85Y-126.19
X105.85Y-133.81
X108.39Y-126.19
X108.39Y-133.81
X172.61Y-133.81
X172.61Y-126.19
X175.15Y-133.81
X175.15Y-126.19
X177.69Y-133.81
X177.69Y-126.19
X180.23Y-133.81
X180.23Y-126.19
X182.77Y-133.81
X182.77Y-126.19
X185.31Y-133.81
X185.31Y-126.19
X187.85Y-133.81
X187.85Y-126.19
X190.39Y-133.81
X190.39Y-126.19
T4
X22.201Y-23.103
X22.201Y-25.643
X24.741Y-23.103
X24.741Y-25.643
X27.281Y-23.103
X27.281Y-25.643
X29.821Y-23.103
X29.821Y-25.643
X32.361Y-23.103
X32.361Y-25.643
X34.901Y-23.103
X34.901Y-25.643
X37.441Y-23.103
X37.441Y-25.643
X39.981Y-23.103
X39.981Y-25.643
X42.521Y-23.103
X42.521Y-25.643
X45.061Y-23.103
X45.061Y-25.643
X47.601Y-23.103
X47.601Y-25.643
X50.141Y-23.103
X50.141Y-25.643
X52.681Y-23.103
X52.681Y-25.643
X55.221Y-23.103
X55.221Y-25.643
X57.761Y-23.103
X57.761Y-25.643
X60.301Y-23.103
X60.301Y-25.643
X62.841Y-23.103
X62.841Y-25.643
X65.381Y-23.103
X65.381Y-25.643
X67.921Y-23.103
X67.921Y-25.643
X70.461Y-23.103
X70.461Y-25.643
T5
X14.7Y-152.5
X14.7Y-157.5
X24.7Y-147.5
X24.7Y-155.0
X24.7Y-162.5
X27.2Y-150.0
X27.2Y-160.0
X212.8Y-150.0
X212.8Y-160.0
X215.3Y-147.5
X215.3Y-155.0
X215.3Y-162.5
X225.3Y-152.5
X225.3Y-157.5
T6
X33.0Y-121.25
X33.0Y-162.25
X38.0Y-121.25
X38.0Y-162.25
X43.0Y-121.25
X43.0Y-162.25
X74.0Y-121.25
X74.0Y-162.25
X79.0Y-121.25
X79.0Y-162.25
X84.0Y-121.25
X84.0Y-162.25
X115.0Y-121.25
X115.0Y-162.25
X120.0Y-121.25
X120.0Y-162.25
X125.0Y-121.25
X125.0Y-162.25
X156.0Y-121.25
X156.0Y-162.25
X161.0Y-121.25
X161.0Y-162.25
X166.0Y-121.25
X166.0Y-162.25
X197.0Y-121.25
X197.0Y-162.25
X202.0Y-121.25
X202.0Y-162.25
X207.0Y-121.25
X207.0Y-162.25
T7
X54.19Y-37.46
X54.19Y-70.46
X60.54Y-34.92
X60.54Y-67.92
X178.19Y-37.46
X178.19Y-70.46
X184.54Y-34.92
X184.54Y-67.92
T8
X52.92Y-40.0
X52.92Y-73.0
X63.08Y-40.0
X63.08Y-73.0
X176.92Y-40.0
X176.92Y-73.0
X187.08Y-40.0
X187.08Y-73.0
T9
X19.7Y-147.5
X19.7Y-162.5
X220.3Y-147.5
X220.3Y-162.5
T10
X15.0Y-15.0
X15.0Y-175.0
X225.0Y-15.0
X225.0Y-175.0
T11
X58.0Y-40.0
X58.0Y-73.0
X182.0Y-40.0
X182.0Y-73.0
M30
