%TF.GenerationSoftware,Flux,Flux PCB Export,1*%
%TF.CreationDate,2026-09-12T20:35:22+00:00*%
%TF.ProjectId,input,696e7075-742e-46b6-9963-61645f706362,rev?*%
%TF.SameCoordinates,Original*%
%TF.FileFunction,Copper,L1,Top*%
%TF.FilePolarity,Positive*%
%FSLAX46Y46*%
G04 Gerber Fmt 4.6, Leading zero omitted, Abs format (unit mm)*
G04 Filename: acidbrain-midi-sequencer-hat*
G04 Build it with Flux! Visit our site at: https://www.flux.ai (Flux) date 2026-09-12 20:35:22*
%MOMM*%
%LPD*%
G01*
G04 APERTURE LIST*
%TA.AperFunction,ComponentPad*%
%ADD10R,1.980000X1.980000*%
%TD*%
%TA.AperFunction,ComponentPad*%
%ADD11C,1.980000*%
%TD*%
%TA.AperFunction,ComponentPad*%
%ADD12C,1.600000*%
%TD*%
%TA.AperFunction,ComponentPad*%
%ADD13C,2.200000*%
%TD*%
%TA.AperFunction,ComponentPad*%
%ADD14R,1.110000X1.110000*%
%TD*%
%TA.AperFunction,ComponentPad*%
%ADD15C,1.110000*%
%TD*%
%TA.AperFunction,ComponentPad*%
%ADD16R,1.950000X1.950000*%
%TD*%
%TA.AperFunction,ComponentPad*%
%ADD17C,1.950000*%
%TD*%
%TA.AperFunction,ComponentPad*%
%ADD18R,1.600000X1.600000*%
%TD*%
%TA.AperFunction,ComponentPad*%
%ADD19R,1.400000X1.400000*%
%TD*%
%TA.AperFunction,ComponentPad*%
%ADD20C,1.400000*%
%TD*%
%TA.AperFunction,ComponentPad*%
%ADD21C,1.524000*%
%TD*%
%TA.AperFunction,Conductor*%
%ADD22C,0.254000*%
%TD*%
G04 APERTURE END LIST*
D10*
%TO.P,RV1,CCW*%
%TO.N,GND*%
X33000000Y-162250000D03*
D11*
%TO.P,RV1,WIPER*%
%TO.N,ADC_KEY*%
X38000000Y-162250000D03*
%TO.P,RV1,CW*%
%TO.N,3V3*%
X43000000Y-162250000D03*
%TD*%
D12*
%TO.P,R3,P2*%
%TO.N,3V3*%
X201810000Y-73000000D03*
%TO.P,R3,P1*%
%TO.N,KEY_NEW_N*%
X194190000Y-73000000D03*
%TD*%
D13*
%TO.P,SW4,1*%
%TO.N,KEY_DRONE_N*%
X184540000Y-34920000D03*
%TO.P,SW4,2*%
%TO.N,GND*%
X178190000Y-37460000D03*
%TD*%
D12*
%TO.P,R1,P2*%
%TO.N,3V3*%
X45810000Y-40000000D03*
%TO.P,R1,P1*%
%TO.N,KEY_PLAY_PAUSE_N*%
X38190000Y-40000000D03*
%TD*%
D14*
%TO.P,U3,ANODE*%
%TO.N,MIDI_IN_LED_A*%
X216190000Y-113460000D03*
D15*
%TO.P,U3,NC*%
%TO.N,N/C*%
X216190000Y-118540000D03*
%TO.P,U3,GND*%
%TO.N,GND*%
X223810000Y-116000000D03*
%TO.P,U3,CATHODE*%
%TO.N,MIDI_IN_LOOP_M*%
X216190000Y-116000000D03*
%TO.P,U3,VCC*%
%TO.N,3V3*%
X223810000Y-113460000D03*
%TO.P,U3,VO*%
%TO.N,MIDI_IN_RX*%
X223810000Y-118540000D03*
%TD*%
D16*
%TO.P,J3,1*%
%TO.N,N/C*%
X215299945Y-147500037D03*
D17*
%TO.P,J3,GND*%
X225299982Y-152499963D03*
%TO.P,J3,3*%
X215300055Y-162500037D03*
%TO.P,J3,5*%
%TO.N,MIDI_IN_LOOP_M*%
X212800037Y-160000055D03*
%TO.P,J3,2*%
%TO.N,N/C*%
X215300000Y-155000037D03*
%TO.P,J3,4*%
%TO.N,MIDI_IN_LOOP_P*%
X212799963Y-150000055D03*
%TO.P,J3,GND*%
%TO.N,N/C*%
X225300018Y-157499963D03*
%TD*%
D13*
%TO.P,SW1,1*%
%TO.N,KEY_PLAY_PAUSE_N*%
X60540000Y-34920000D03*
%TO.P,SW1,2*%
%TO.N,GND*%
X54190000Y-37460000D03*
%TD*%
D10*
%TO.P,RV9,CCW*%
%TO.N,GND*%
X156000000Y-121250000D03*
D11*
%TO.P,RV9,WIPER*%
%TO.N,ADC_SLIDE*%
X161000000Y-121250000D03*
%TO.P,RV9,CW*%
%TO.N,3V3*%
X166000000Y-121250000D03*
%TD*%
D12*
%TO.P,R4,P2*%
%TO.N,3V3*%
X201810000Y-40000000D03*
%TO.P,R4,P1*%
%TO.N,KEY_DRONE_N*%
X194190000Y-40000000D03*
%TD*%
D18*
%TO.P,C3,P1*%
%TO.N,3V3*%
X16000000Y-45000000D03*
D12*
%TO.P,C3,P2*%
%TO.N,GND*%
X18000000Y-45000000D03*
%TD*%
D10*
%TO.P,RV10,CCW*%
%TO.N,GND*%
X197000000Y-121250000D03*
D11*
%TO.P,RV10,WIPER*%
%TO.N,ADC_GATE*%
X202000000Y-121250000D03*
%TO.P,RV10,CW*%
%TO.N,3V3*%
X207000000Y-121250000D03*
%TD*%
D12*
%TO.P,C2,P1*%
%TO.N,3V3*%
X194000000Y-134000000D03*
%TO.P,C2,P2*%
%TO.N,GND*%
X193999963Y-129000000D03*
%TD*%
D10*
%TO.P,RV4,CCW*%
%TO.N,GND*%
X156000000Y-162250000D03*
D11*
%TO.P,RV4,WIPER*%
%TO.N,ADC_DENSITY*%
X161000000Y-162250000D03*
%TO.P,RV4,CW*%
%TO.N,3V3*%
X166000000Y-162250000D03*
%TD*%
D12*
%TO.P,R6,P2*%
%TO.N,MIDI_OUT_PIN4*%
X24499944Y-81190000D03*
%TO.P,R6,P1*%
%TO.N,3V3*%
X24500000Y-88810000D03*
%TD*%
D16*
%TO.P,J2,1*%
%TO.N,N/C*%
X24700015Y-162499990D03*
D17*
%TO.P,J2,GND*%
X14700005Y-157500010D03*
%TO.P,J2,3*%
X24699985Y-147499990D03*
%TO.P,J2,5*%
%TO.N,MIDI_OUT_PIN5*%
X27199990Y-149999985D03*
%TO.P,J2,2*%
%TO.N,GND*%
X24700000Y-154999990D03*
%TO.P,J2,4*%
%TO.N,MIDI_OUT_PIN4*%
X27200010Y-159999985D03*
%TO.P,J2,GND*%
%TO.N,N/C*%
X14699995Y-152500010D03*
%TD*%
D10*
%TO.P,RV5,CCW*%
%TO.N,GND*%
X197000000Y-162250000D03*
D11*
%TO.P,RV5,WIPER*%
%TO.N,ADC_COMPLEXITY*%
X202000000Y-162250000D03*
%TO.P,RV5,CW*%
%TO.N,3V3*%
X207000000Y-162250000D03*
%TD*%
D12*
%TO.P,R8,P2*%
%TO.N,3V3*%
X223810000Y-106000000D03*
%TO.P,R8,P1*%
%TO.N,MIDI_IN_RX*%
X216190000Y-106000000D03*
%TD*%
%TO.P,C4,P1*%
%TO.N,3V3*%
X227000000Y-118500000D03*
%TO.P,C4,P2*%
%TO.N,GND*%
X226999963Y-113500000D03*
%TD*%
D18*
%TO.P,D1,K*%
%TO.N,MIDI_IN_LED_A*%
X219000000Y-134000000D03*
D12*
%TO.P,D1,A*%
%TO.N,MIDI_IN_LOOP_M*%
X218999944Y-126380000D03*
%TD*%
D13*
%TO.P,SW3,1*%
%TO.N,KEY_NEW_N*%
X184540000Y-67920000D03*
%TO.P,SW3,2*%
%TO.N,GND*%
X178190000Y-70460000D03*
%TD*%
D12*
%TO.P,C1,P1*%
%TO.N,3V3*%
X87000000Y-134000000D03*
%TO.P,C1,P2*%
%TO.N,GND*%
X86999963Y-129000000D03*
%TD*%
%TO.P,R5,P2*%
%TO.N,MIDI_OUT_PIN5*%
X19999944Y-81190000D03*
%TO.P,R5,P1*%
%TO.N,MIDI_OUT_TX_GPIO*%
X20000000Y-88810000D03*
%TD*%
D19*
%TO.P,U1,CH0*%
%TO.N,ADC_KEY*%
X90610000Y-133810000D03*
D20*
%TO.P,U1,SHDN/CS*%
%TO.N,SPI_CS_ADC1*%
X105850000Y-126190000D03*
%TO.P,U1,CH7*%
%TO.N,ADC_ACCENT*%
X108390000Y-133810000D03*
%TO.P,U1,VDD*%
%TO.N,3V3*%
X90610000Y-126190000D03*
%TO.P,U1,DOUT*%
%TO.N,SPI_MISO*%
X100770000Y-126190000D03*
%TO.P,U1,DIN*%
%TO.N,SPI_MOSI*%
X103310000Y-126190000D03*
%TO.P,U1,AGND*%
%TO.N,GND*%
X95690000Y-126190000D03*
%TO.P,U1,CH5*%
%TO.N,ADC_SWING*%
X103310000Y-133810000D03*
%TO.P,U1,DGND*%
%TO.N,GND*%
X108390000Y-126190000D03*
%TO.P,U1,CH1*%
%TO.N,ADC_SCALE*%
X93150000Y-133810000D03*
%TO.P,U1,CH4*%
%TO.N,ADC_COMPLEXITY*%
X100770000Y-133810000D03*
%TO.P,U1,CH6*%
%TO.N,ADC_OCTAVE_SPAN*%
X105850000Y-133810000D03*
%TO.P,U1,CH2*%
%TO.N,ADC_STEPS*%
X95690000Y-133810000D03*
%TO.P,U1,CLK*%
%TO.N,SPI_SCLK*%
X98230000Y-126190000D03*
%TO.P,U1,VREF*%
%TO.N,3V3*%
X93150000Y-126190000D03*
%TO.P,U1,CH3*%
%TO.N,ADC_DENSITY*%
X98230000Y-133810000D03*
%TD*%
D10*
%TO.P,RV3,CCW*%
%TO.N,GND*%
X115000000Y-162250000D03*
D11*
%TO.P,RV3,WIPER*%
%TO.N,ADC_STEPS*%
X120000000Y-162250000D03*
%TO.P,RV3,CW*%
%TO.N,3V3*%
X125000000Y-162250000D03*
%TD*%
D21*
%TO.P,J1,GROUND*%
%TO.N,GND*%
X62841400Y-23103100D03*
%TO.P,J1,GPIO 18 (PCM Clock)*%
%TO.N,N/C*%
X34901400Y-23103100D03*
%TO.P,J1,GPIO 12 (PWM0)*%
X60301400Y-23103100D03*
%TO.P,J1,GPIO 23*%
X39981400Y-23103100D03*
%TO.P,J1,GPIO4 (GPCLK0)*%
X29821400Y-25643100D03*
%TO.P,J1,GPIO 14 (UART Transmit)*%
%TO.N,MIDI_OUT_TX_GPIO*%
X29821400Y-23103100D03*
%TO.P,J1,GPIO 26*%
%TO.N,N/C*%
X67921400Y-25643100D03*
%TO.P,J1,GPIO 17*%
X34901400Y-25643100D03*
%TO.P,J1,GROUND*%
%TO.N,GND*%
X57761400Y-23103100D03*
%TO.P,J1,GPIO 11 (SPI0 SCLK)*%
%TO.N,SPI_SCLK*%
X50141400Y-25643100D03*
%TO.P,J1,GPIO 5*%
%TO.N,KEY_PLAY_PAUSE_N*%
X57761400Y-25643100D03*
%TO.P,J1,5V PWR*%
%TO.N,N/C*%
X22201400Y-23103100D03*
%TO.P,J1,GPIO 27*%
X37441400Y-25643100D03*
%TO.P,J1,GPIO 25*%
X47601400Y-23103100D03*
%TO.P,J1,GROUND*%
%TO.N,GND*%
X32361400Y-25643100D03*
%TO.P,J1,GPIO 1 (HAT EEPROM i2c Clock)*%
%TO.N,N/C*%
X55221400Y-23103100D03*
%TO.P,J1,GROUND*%
%TO.N,GND*%
X27281400Y-23103100D03*
%TO.P,J1,3v3*%
%TO.N,3V3*%
X22201400Y-25643100D03*
%TO.P,J1,GPIO 20 (PCM Data-In)*%
%TO.N,N/C*%
X67921400Y-23103100D03*
%TO.P,J1,GPIO 0 (HAT EEPROM i2c Data)*%
X55221400Y-25643100D03*
%TO.P,J1,GPIO 19 (PCM Frame Sync)*%
%TO.N,KEY_DRONE_N*%
X65381400Y-25643100D03*
%TO.P,J1,GPIO 13 (PWM1)*%
%TO.N,KEY_NEW_N*%
X62841400Y-25643100D03*
%TO.P,J1,GPIO 24*%
%TO.N,N/C*%
X42521400Y-23103100D03*
%TO.P,J1,GPIO 21 (PCM Data-Out)*%
X70461400Y-23103100D03*
%TO.P,J1,GPIO 16*%
X65381400Y-23103100D03*
%TO.P,J1,GPIO 15 (UART Receive)*%
%TO.N,MIDI_IN_RX*%
X32361400Y-23103100D03*
%TO.P,J1,GPIO3 (I2C1 SCL)*%
%TO.N,N/C*%
X27281400Y-25643100D03*
%TO.P,J1,GPIO 10 (SPI0 MOSI)*%
%TO.N,SPI_MOSI*%
X45061400Y-25643100D03*
%TO.P,J1,GPIO 7 (SPI Chip Select 1)*%
%TO.N,SPI_CS_ADC2*%
X52681400Y-23103100D03*
%TO.P,J1,GROUND*%
%TO.N,GND*%
X37441400Y-23103100D03*
%TO.P,J1,Ground*%
X52681400Y-25643100D03*
%TO.P,J1,GROUND*%
X45061400Y-23103100D03*
%TO.P,J1,GPIO 9 (SPI0 MISO)*%
%TO.N,SPI_MISO*%
X47601400Y-25643100D03*
%TO.P,J1,5V PWR *%
%TO.N,N/C*%
X24741400Y-23103100D03*
%TO.P,J1,3v3*%
%TO.N,3V3*%
X42521400Y-25643100D03*
%TO.P,J1,GPIO2 (I2C1 SDA)*%
%TO.N,N/C*%
X24741400Y-25643100D03*
%TO.P,J1,GPIO 8 (SPI Chip Select 0)*%
%TO.N,SPI_CS_ADC1*%
X50141400Y-23103100D03*
%TO.P,J1,GPIO 22*%
%TO.N,N/C*%
X39981400Y-25643100D03*
%TO.P,J1,GPIO 6*%
%TO.N,KEY_STOP_N*%
X60301400Y-25643100D03*
%TO.P,J1,GROUND*%
%TO.N,GND*%
X70461400Y-25643100D03*
%TD*%
D10*
%TO.P,RV8,CCW*%
%TO.N,GND*%
X115000000Y-121250000D03*
D11*
%TO.P,RV8,WIPER*%
%TO.N,ADC_ACCENT*%
X120000000Y-121250000D03*
%TO.P,RV8,CW*%
%TO.N,3V3*%
X125000000Y-121250000D03*
%TD*%
D10*
%TO.P,RV2,CCW*%
%TO.N,GND*%
X74000000Y-162250000D03*
D11*
%TO.P,RV2,WIPER*%
%TO.N,ADC_SCALE*%
X79000000Y-162250000D03*
%TO.P,RV2,CW*%
%TO.N,3V3*%
X84000000Y-162250000D03*
%TD*%
D13*
%TO.P,SW2,1*%
%TO.N,KEY_STOP_N*%
X60540000Y-67920000D03*
%TO.P,SW2,2*%
%TO.N,GND*%
X54190000Y-70460000D03*
%TD*%
D12*
%TO.P,R7,P2*%
%TO.N,MIDI_IN_LED_A*%
X213999944Y-126380000D03*
%TO.P,R7,P1*%
%TO.N,MIDI_IN_LOOP_P*%
X214000000Y-134000000D03*
%TD*%
D19*
%TO.P,U2,CH0*%
%TO.N,ADC_SLIDE*%
X190390020Y-126190047D03*
D20*
%TO.P,U2,SHDN/CS*%
%TO.N,SPI_CS_ADC2*%
X175149980Y-133809966D03*
%TO.P,U2,CH7*%
%TO.N,N/C*%
X172610020Y-126189953D03*
%TO.P,U2,VDD*%
%TO.N,3V3*%
X190389980Y-133810047D03*
%TO.P,U2,DOUT*%
%TO.N,SPI_MISO*%
X180229980Y-133809993D03*
%TO.P,U2,DIN*%
%TO.N,SPI_MOSI*%
X177689980Y-133809980D03*
%TO.P,U2,AGND*%
%TO.N,GND*%
X185309980Y-133810020D03*
%TO.P,U2,CH5*%
%TO.N,N/C*%
X177690020Y-126189980D03*
%TO.P,U2,DGND*%
%TO.N,GND*%
X172609980Y-133809953D03*
%TO.P,U2,CH1*%
%TO.N,ADC_GATE*%
X187850020Y-126190034D03*
%TO.P,U2,CH4*%
%TO.N,N/C*%
X180230020Y-126189993D03*
%TO.P,U2,CH6*%
X175150020Y-126189966D03*
%TO.P,U2,CH2*%
X185310020Y-126190020D03*
%TO.P,U2,CLK*%
%TO.N,SPI_SCLK*%
X182769980Y-133810007D03*
%TO.P,U2,VREF*%
%TO.N,3V3*%
X187849980Y-133810034D03*
%TO.P,U2,CH3*%
%TO.N,N/C*%
X182770020Y-126190007D03*
%TD*%
D12*
%TO.P,R2,P2*%
%TO.N,3V3*%
X45810000Y-73000000D03*
%TO.P,R2,P1*%
%TO.N,KEY_STOP_N*%
X38190000Y-73000000D03*
%TD*%
D10*
%TO.P,RV6,CCW*%
%TO.N,GND*%
X33000000Y-121250000D03*
D11*
%TO.P,RV6,WIPER*%
%TO.N,ADC_SWING*%
X38000000Y-121250000D03*
%TO.P,RV6,CW*%
%TO.N,3V3*%
X43000000Y-121250000D03*
%TD*%
D10*
%TO.P,RV7,CCW*%
%TO.N,GND*%
X74000000Y-121250000D03*
D11*
%TO.P,RV7,WIPER*%
%TO.N,ADC_OCTAVE_SPAN*%
X79000000Y-121250000D03*
%TO.P,RV7,CW*%
%TO.N,3V3*%
X84000000Y-121250000D03*
%TD*%
%TO.N,KEY_PLAY_PAUSE_N*%
D22*
X57761400Y-26595600D02*
X57761400Y-25643100D01*
X59627500Y-34007500D02*
X57761400Y-32141400D01*
X57761400Y-32141400D02*
X57761400Y-26595600D01*
X60540000Y-34920000D02*
X59627500Y-34007500D01*
%TO.N,SPI_MOSI*%
X51411400Y-24982100D02*
X50819100Y-24389700D01*
X50819100Y-24389700D02*
X46314800Y-24389700D01*
X103310000Y-83891700D02*
X61524200Y-42105900D01*
X61524200Y-39187000D02*
X51411400Y-29074200D01*
X45734900Y-24969600D02*
X45061400Y-25643100D01*
X46314800Y-24389700D02*
X45734900Y-24969600D01*
X51411400Y-29074200D02*
X51411400Y-24982100D01*
X103310000Y-125299500D02*
X103310000Y-83891700D01*
X61524200Y-42105900D02*
X61524200Y-39187000D01*
X103310000Y-126190000D02*
X103310000Y-125299500D01*
%TO.N,ADC_SLIDE*%
X161000000Y-121250000D02*
X161834700Y-122084700D01*
X161834700Y-122084700D02*
X167274000Y-127524000D01*
X188060500Y-127524000D02*
X189394400Y-126190000D01*
X167274000Y-127524000D02*
X188060500Y-127524000D01*
X189394400Y-126190000D02*
X190390000Y-126190000D01*
%TO.N,ADC_SCALE*%
X92520300Y-134439700D02*
X79000000Y-147960000D01*
X79000000Y-161069500D02*
X79000000Y-162250000D01*
X93150000Y-133810000D02*
X92520300Y-134439700D01*
X79000000Y-147960000D02*
X79000000Y-161069500D01*
%TO.N,MIDI_OUT_PIN5*%
X22491600Y-107738600D02*
X22491600Y-83681600D01*
X20700400Y-81890400D02*
X20000000Y-81190000D01*
X22491600Y-83681600D02*
X20700400Y-81890400D01*
X27200000Y-150000000D02*
X27200000Y-148834500D01*
X27200000Y-148834500D02*
X27200000Y-112447000D01*
X27200000Y-112447000D02*
X22491600Y-107738600D01*
%TO.N,ADC_STEPS*%
X119165300Y-161415300D02*
X95690000Y-137940000D01*
X95690000Y-134700500D02*
X95690000Y-133810000D01*
X95690000Y-137940000D02*
X95690000Y-134700500D01*
X120000000Y-162250000D02*
X119165300Y-161415300D01*
%TO.N,MIDI_IN_LOOP_M*%
X219000000Y-126380000D02*
X222203500Y-129583500D01*
X222203500Y-150596600D02*
X212800000Y-160000000D01*
X222203500Y-129583500D02*
X222203500Y-150596600D01*
%TO.N,KEY_DRONE_N*%
X173995000Y-24375000D02*
X66649500Y-24375000D01*
X184540000Y-34920000D02*
X173995000Y-24375000D01*
X193489600Y-39299600D02*
X189110000Y-34920000D01*
X66649500Y-24375000D02*
X65381400Y-25643100D01*
X189110000Y-34920000D02*
X185830500Y-34920000D01*
X194190000Y-40000000D02*
X193489600Y-39299600D01*
X185830500Y-34920000D02*
X184540000Y-34920000D01*
%TO.N,ADC_ACCENT*%
X108390000Y-132919500D02*
X108390000Y-133810000D01*
X108390000Y-132860000D02*
X108390000Y-132919500D01*
X119165300Y-122084700D02*
X108390000Y-132860000D01*
X120000000Y-121250000D02*
X119165300Y-122084700D01*
%TO.N,SPI_CS_ADC1*%
X59016100Y-22426800D02*
X58296500Y-21707100D01*
X105850000Y-75031800D02*
X59016100Y-28197900D01*
X58296500Y-21707100D02*
X51537400Y-21707100D01*
X59016100Y-28197900D02*
X59016100Y-22426800D01*
X105850000Y-126190000D02*
X105850000Y-125299500D01*
X50814900Y-22429600D02*
X50141400Y-23103100D01*
X51537400Y-21707100D02*
X50814900Y-22429600D01*
X105850000Y-125299500D02*
X105850000Y-75031800D01*
%TO.N,SPI_SCLK*%
X50141400Y-44150000D02*
X50141400Y-26595600D01*
X50141400Y-26595600D02*
X50141400Y-25643100D01*
X98230000Y-125299500D02*
X98230000Y-92238600D01*
X98230000Y-126190000D02*
X98230000Y-125299500D01*
X98230000Y-92238600D02*
X50141400Y-44150000D01*
%TO.N,SPI_MISO*%
X96960800Y-93779000D02*
X96960800Y-126764200D01*
X47601400Y-26595600D02*
X47601400Y-44419600D01*
X100140300Y-126819700D02*
X100770000Y-126190000D01*
X47601400Y-25643100D02*
X47601400Y-26595600D01*
X47601400Y-44419600D02*
X96960800Y-93779000D01*
X99466500Y-127493500D02*
X100140300Y-126819700D01*
X96960800Y-126764200D02*
X97690100Y-127493500D01*
X97690100Y-127493500D02*
X99466500Y-127493500D01*
%TO.N,MIDI_IN_LED_A*%
X214700400Y-127080400D02*
X219000000Y-131380000D01*
X214000000Y-126380000D02*
X214700400Y-127080400D01*
X219000000Y-131380000D02*
X219000000Y-133009500D01*
X219000000Y-133009500D02*
X219000000Y-134000000D01*
%TO.N,ADC_GATE*%
X201165300Y-120415300D02*
X202000000Y-121250000D01*
X187850000Y-126190000D02*
X188479700Y-125560300D01*
X194386500Y-119653500D02*
X200403500Y-119653500D01*
X188479700Y-125560300D02*
X194386500Y-119653500D01*
X200403500Y-119653500D02*
X201165300Y-120415300D01*
%TO.N,MIDI_OUT_TX_GPIO*%
X21619700Y-21704100D02*
X28422400Y-21704100D01*
X28422400Y-21704100D02*
X29147900Y-22429600D01*
X14593500Y-83403500D02*
X14593500Y-28730300D01*
X20000000Y-88810000D02*
X19299600Y-88109600D01*
X14593500Y-28730300D02*
X21619700Y-21704100D01*
X29147900Y-22429600D02*
X29821400Y-23103100D01*
X19299600Y-88109600D02*
X14593500Y-83403500D01*
%TO.N,MIDI_IN_LOOP_P*%
X212800000Y-150000000D02*
X212800000Y-148834500D01*
X212800000Y-148834500D02*
X212800000Y-135200000D01*
X213299600Y-134700400D02*
X214000000Y-134000000D01*
X212800000Y-135200000D02*
X213299600Y-134700400D01*
%TO.N,KEY_NEW_N*%
X63514900Y-26316600D02*
X62841400Y-25643100D01*
X194190000Y-73000000D02*
X193489600Y-72299600D01*
X183249500Y-67920000D02*
X105118300Y-67920000D01*
X184540000Y-67920000D02*
X183249500Y-67920000D01*
X189110000Y-67920000D02*
X185830500Y-67920000D01*
X105118300Y-67920000D02*
X63514900Y-26316600D01*
X185830500Y-67920000D02*
X184540000Y-67920000D01*
X193489600Y-72299600D02*
X189110000Y-67920000D01*
%TO.N,ADC_DENSITY*%
X145837000Y-147087000D02*
X160165300Y-161415300D01*
X160165300Y-161415300D02*
X161000000Y-162250000D01*
X98859700Y-134439700D02*
X111507000Y-147087000D01*
X98230000Y-133810000D02*
X98859700Y-134439700D01*
X111507000Y-147087000D02*
X145837000Y-147087000D01*
%TO.N,3V3*%
X45810000Y-39009500D02*
X45810000Y-28931700D01*
X207000000Y-162250000D02*
X207000000Y-161069500D01*
X87700400Y-133299600D02*
X87000000Y-134000000D01*
X45810000Y-73000000D02*
X44819500Y-73000000D01*
X201810000Y-72009500D02*
X201810000Y-73000000D01*
X194000000Y-134000000D02*
X194700400Y-133299600D01*
X201810000Y-73000000D02*
X202510400Y-73700400D01*
X40310000Y-73000000D02*
X25200400Y-88109600D01*
X223810000Y-105009500D02*
X223810000Y-106000000D01*
X43000000Y-162250000D02*
X44593500Y-163843500D01*
X43194900Y-26316600D02*
X42521400Y-25643100D01*
X193810000Y-133810000D02*
X194000000Y-134000000D01*
X85180500Y-121250000D02*
X84000000Y-121250000D01*
X208180500Y-121250000D02*
X216020000Y-121250000D01*
X90610000Y-127080500D02*
X90610000Y-130390000D01*
X90610000Y-130390000D02*
X87700400Y-133299600D01*
X16000000Y-45000000D02*
X16000000Y-43667400D01*
X93150000Y-126190000D02*
X92259500Y-126190000D01*
X223810000Y-106000000D02*
X223810000Y-106990500D01*
X194700400Y-134700400D02*
X194000000Y-134000000D01*
X16000000Y-46332600D02*
X16000000Y-45000000D01*
X82406500Y-163843500D02*
X84000000Y-162250000D01*
X189082600Y-133810000D02*
X189499500Y-133810000D01*
X43000000Y-161069500D02*
X43000000Y-162250000D01*
X16000000Y-43667400D02*
X22201400Y-37466000D01*
X45810000Y-72009500D02*
X45810000Y-73000000D01*
X90610000Y-126190000D02*
X90610000Y-127080500D01*
X45810000Y-40990500D02*
X45810000Y-72009500D01*
X84000000Y-162250000D02*
X85593500Y-163843500D01*
X45810000Y-28931700D02*
X43194900Y-26316600D01*
X190390000Y-133810000D02*
X193810000Y-133810000D01*
X227000000Y-118500000D02*
X227000000Y-117509500D01*
X187850000Y-133810000D02*
X189082600Y-133810000D01*
X223282900Y-113987100D02*
X223810000Y-113460000D01*
X207000000Y-147000000D02*
X194700400Y-134700400D01*
X216020000Y-121250000D02*
X223282900Y-113987100D01*
X45810000Y-40000000D02*
X45810000Y-40990500D01*
X205923300Y-122326700D02*
X207000000Y-121250000D01*
X123406500Y-163843500D02*
X125000000Y-162250000D01*
X202510400Y-73700400D02*
X223810000Y-95000000D01*
X85670000Y-121250000D02*
X85180500Y-121250000D01*
X189082600Y-133810000D02*
X189082600Y-133810000D01*
X223810000Y-106990500D02*
X223810000Y-112714500D01*
X44867700Y-72057700D02*
X41725000Y-72057700D01*
X43000000Y-121250000D02*
X43000000Y-122430500D01*
X125000000Y-121250000D02*
X125834700Y-120415300D01*
X165165300Y-120415300D02*
X166000000Y-121250000D01*
X44593500Y-163843500D02*
X82406500Y-163843500D01*
X164403500Y-119653500D02*
X165165300Y-120415300D01*
X45810000Y-73000000D02*
X44867700Y-72057700D01*
X22201400Y-26595600D02*
X22201400Y-25643100D01*
X90610000Y-126190000D02*
X89980300Y-125560300D01*
X126596500Y-119653500D02*
X164403500Y-119653500D01*
X92259500Y-126190000D02*
X91500500Y-126190000D01*
X224337100Y-113987100D02*
X223810000Y-113460000D01*
X44819500Y-73000000D02*
X40310000Y-73000000D01*
X207000000Y-121250000D02*
X208180500Y-121250000D01*
X85593500Y-163843500D02*
X123406500Y-163843500D01*
X227000000Y-116650000D02*
X224337100Y-113987100D01*
X22201400Y-37466000D02*
X22201400Y-26595600D01*
X24500000Y-88810000D02*
X25200400Y-89510400D01*
X194700400Y-133299600D02*
X205673300Y-122326700D01*
X166834700Y-161415300D02*
X187850000Y-140400000D01*
X166000000Y-162250000D02*
X166834700Y-161415300D01*
X43000000Y-122430500D02*
X43000000Y-161069500D01*
X25200400Y-88109600D02*
X24500000Y-88810000D01*
X89980300Y-125560300D02*
X85670000Y-121250000D01*
X223810000Y-112714500D02*
X223810000Y-113460000D01*
X201810000Y-40990500D02*
X201810000Y-72009500D01*
X223810000Y-95000000D02*
X223810000Y-105009500D01*
X207000000Y-161069500D02*
X207000000Y-147000000D01*
X45810000Y-40000000D02*
X45810000Y-39009500D01*
X43000000Y-107310000D02*
X43000000Y-120069500D01*
X205673300Y-122326700D02*
X205923300Y-122326700D01*
X187850000Y-134700500D02*
X187850000Y-133810000D01*
X125834700Y-120415300D02*
X126596500Y-119653500D01*
X41725000Y-72057700D02*
X16000000Y-46332600D01*
X189499500Y-133810000D02*
X190390000Y-133810000D01*
X43000000Y-120069500D02*
X43000000Y-121250000D01*
X25200400Y-89510400D02*
X43000000Y-107310000D01*
X91500500Y-126190000D02*
X90610000Y-126190000D01*
X227000000Y-117509500D02*
X227000000Y-116650000D01*
X187850000Y-140400000D02*
X187850000Y-134700500D01*
X201810000Y-40000000D02*
X201810000Y-40990500D01*
%TD*%
M02*
