%TF.GenerationSoftware,Flux,Flux PCB Export,1*%
%TF.CreationDate,2026-09-12T20:35:22+00:00*%
%TF.ProjectId,input,696e7075-742e-46b6-9963-61645f706362,rev?*%
%TF.SameCoordinates,Original*%
%TF.FileFunction,Legend,Bot*%
%TF.FilePolarity,Positive*%
%FSLAX46Y46*%
G04 Gerber Fmt 4.6, Leading zero omitted, Abs format (unit mm)*
G04 Filename: acidbrain-midi-sequencer-hat*
G04 Build it with Flux! Visit our site at: https://www.flux.ai (Flux) date 2026-09-12 20:35:22*
%MOMM*%
%LPD*%
G01*
G04 APERTURE LIST*
%ADD10C,0.000000*%
G04 APERTURE END LIST*
D10*
%TO.C,*%
G36*
X37339985Y-149928667D02*
G01*
X37393830Y-149932137D01*
X37438781Y-149939188D01*
X37472000Y-149947500D01*
X37499067Y-149956722D01*
X37527715Y-149969487D01*
X37550783Y-149982605D01*
X37574861Y-149999824D01*
X37596584Y-150019187D01*
X37615568Y-150040710D01*
X37629873Y-150061363D01*
X37643583Y-150087047D01*
X37654482Y-150114949D01*
X37663381Y-150148991D01*
X37668303Y-150181608D01*
X37670478Y-150220955D01*
X37669304Y-150253664D01*
X37664710Y-150285914D01*
X37655845Y-150318947D01*
X37644074Y-150347682D01*
X37630257Y-150372539D01*
X37611782Y-150398130D01*
X37590290Y-150421544D01*
X37568180Y-150440845D01*
X37541432Y-150459542D01*
X37511942Y-150475779D01*
X37482500Y-150488500D01*
X37714500Y-150907500D01*
X37714500Y-150915500D01*
X37574500Y-150915500D01*
X37360500Y-150516500D01*
X37128500Y-150516500D01*
X37128500Y-150915500D01*
X36997500Y-150915500D01*
X36997500Y-150409500D01*
X37128500Y-150409500D01*
X37331521Y-150409488D01*
X37371771Y-150406753D01*
X37403225Y-150400601D01*
X37431865Y-150390933D01*
X37455648Y-150378982D01*
X37478898Y-150362576D01*
X37503304Y-150337785D01*
X37521465Y-150309242D01*
X37533363Y-150276964D01*
X37538818Y-150243468D01*
X37538432Y-150200475D01*
X37531906Y-150162547D01*
X37519448Y-150129343D01*
X37510377Y-150113565D01*
X37499620Y-150099132D01*
X37478437Y-150078566D01*
X37452895Y-150061926D01*
X37423391Y-150049329D01*
X37387187Y-150040285D01*
X37361488Y-150036948D01*
X37333891Y-150035548D01*
X37128500Y-150035500D01*
X37128500Y-150409500D01*
X36997500Y-150409500D01*
X36997500Y-150035500D01*
X36997500Y-149928500D01*
X37339985Y-149928667D01*
G37*
G36*
X38179500Y-150742500D02*
G01*
X38462500Y-149928500D01*
X38604500Y-149928500D01*
X38238500Y-150915500D01*
X38123500Y-150915500D01*
X37757500Y-149928500D01*
X37899500Y-149928500D01*
X38179500Y-150742500D01*
G37*
G36*
X39116500Y-150915500D02*
G01*
X38990500Y-150915500D01*
X38990500Y-150079500D01*
X38737500Y-150172500D01*
X38737500Y-150058500D01*
X39097500Y-149923500D01*
X39116500Y-149923500D01*
X39116500Y-150915500D01*
G37*
G36*
X27415500Y-85092960D02*
G01*
X27016501Y-85306962D01*
X27016502Y-85538962D01*
X27415502Y-85538960D01*
X27415502Y-85669960D01*
X26428502Y-85669964D01*
X26428566Y-85538964D01*
X26535502Y-85538964D01*
X26909502Y-85538962D01*
X26909489Y-85335941D01*
X26906755Y-85295691D01*
X26900602Y-85264238D01*
X26890934Y-85235597D01*
X26878983Y-85211814D01*
X26862577Y-85188564D01*
X26837785Y-85164158D01*
X26809243Y-85145998D01*
X26776965Y-85134100D01*
X26743469Y-85128645D01*
X26700476Y-85129031D01*
X26662547Y-85135557D01*
X26629343Y-85148016D01*
X26613566Y-85157086D01*
X26599132Y-85167844D01*
X26578567Y-85189026D01*
X26561927Y-85214569D01*
X26549330Y-85244073D01*
X26540286Y-85280276D01*
X26536949Y-85305975D01*
X26535549Y-85333573D01*
X26535502Y-85538964D01*
X26428566Y-85538964D01*
X26428668Y-85327479D01*
X26432138Y-85273634D01*
X26439188Y-85228683D01*
X26447501Y-85195464D01*
X26456722Y-85168397D01*
X26469488Y-85139749D01*
X26482606Y-85116681D01*
X26499825Y-85092602D01*
X26519187Y-85070880D01*
X26540710Y-85051895D01*
X26561363Y-85037591D01*
X26587047Y-85023880D01*
X26614949Y-85012981D01*
X26648991Y-85004082D01*
X26681608Y-84999160D01*
X26720955Y-84996985D01*
X26753664Y-84998159D01*
X26785914Y-85002753D01*
X26818947Y-85011617D01*
X26847682Y-85023389D01*
X26872539Y-85037206D01*
X26898130Y-85055680D01*
X26921544Y-85077172D01*
X26940845Y-85099282D01*
X26959543Y-85126030D01*
X26975779Y-85155520D01*
X26988501Y-85184962D01*
X27407500Y-84952960D01*
X27415500Y-84952960D01*
X27415500Y-85092960D01*
G37*
G36*
X27143975Y-84218413D02*
G01*
X27199060Y-84227633D01*
X27230497Y-84236711D01*
X27256467Y-84246782D01*
X27281001Y-84258839D01*
X27307282Y-84275050D01*
X27331689Y-84293854D01*
X27353939Y-84315015D01*
X27373345Y-84337953D01*
X27387967Y-84359459D01*
X27400388Y-84382304D01*
X27411888Y-84410054D01*
X27420514Y-84439554D01*
X27426264Y-84470804D01*
X27429139Y-84503804D01*
X27429259Y-84534154D01*
X27426837Y-84564017D01*
X27420876Y-84596564D01*
X27410099Y-84631162D01*
X27393068Y-84667100D01*
X27370714Y-84700401D01*
X27346046Y-84728117D01*
X27317077Y-84753689D01*
X27281169Y-84778611D01*
X27242185Y-84799236D01*
X27204469Y-84814125D01*
X27168852Y-84824438D01*
X27126429Y-84832752D01*
X27081515Y-84837587D01*
X27039499Y-84838962D01*
X26957996Y-84838509D01*
X26893964Y-84834884D01*
X26826673Y-84826473D01*
X26771075Y-84815145D01*
X26731981Y-84804271D01*
X26689194Y-84789006D01*
X26654937Y-84773713D01*
X26617792Y-84753294D01*
X26588372Y-84733584D01*
X26561309Y-84711838D01*
X26532941Y-84683930D01*
X26511311Y-84657839D01*
X26489209Y-84624866D01*
X26472949Y-84594432D01*
X26457112Y-84556394D01*
X26446222Y-84521618D01*
X26437811Y-84484839D01*
X26431878Y-84446056D01*
X26428424Y-84405269D01*
X26427498Y-84354964D01*
X26533498Y-84354964D01*
X26534461Y-84400416D01*
X26539354Y-84443160D01*
X26547139Y-84479167D01*
X26559546Y-84516437D01*
X26574094Y-84547517D01*
X26594016Y-84579314D01*
X26617893Y-84608230D01*
X26645488Y-84633969D01*
X26666811Y-84649838D01*
X26689785Y-84663937D01*
X26714410Y-84676266D01*
X26740686Y-84686824D01*
X26768612Y-84695611D01*
X26798190Y-84702628D01*
X26857499Y-84710962D01*
X26838888Y-84693218D01*
X26822430Y-84674110D01*
X26808126Y-84653638D01*
X26797579Y-84635005D01*
X26787274Y-84612001D01*
X26779122Y-84587632D01*
X26773123Y-84561900D01*
X26769696Y-84538759D01*
X26768295Y-84518962D01*
X26872498Y-84518962D01*
X26874873Y-84550775D01*
X26881414Y-84579350D01*
X26892992Y-84608499D01*
X26909320Y-84636272D01*
X26929824Y-84661462D01*
X26952738Y-84682532D01*
X26978027Y-84699477D01*
X27007499Y-84712962D01*
X27080612Y-84712304D01*
X27135987Y-84705858D01*
X27161425Y-84700057D01*
X27188249Y-84691477D01*
X27210499Y-84682024D01*
X27231249Y-84670852D01*
X27252824Y-84656236D01*
X27272105Y-84640114D01*
X27288420Y-84622925D01*
X27301768Y-84604668D01*
X27311143Y-84587543D01*
X27318888Y-84567269D01*
X27323667Y-84545927D01*
X27325480Y-84523517D01*
X27324745Y-84503004D01*
X27322037Y-84483508D01*
X27317362Y-84465106D01*
X27310717Y-84447797D01*
X27292952Y-84418292D01*
X27280647Y-84404128D01*
X27266374Y-84391058D01*
X27233506Y-84369258D01*
X27195803Y-84353508D01*
X27153225Y-84343758D01*
X27102644Y-84339973D01*
X27053882Y-84342653D01*
X27010070Y-84351458D01*
X26971257Y-84366388D01*
X26937445Y-84387443D01*
X26920732Y-84401712D01*
X26907935Y-84415462D01*
X26897107Y-84430212D01*
X26888248Y-84445962D01*
X26881357Y-84462712D01*
X26876436Y-84480462D01*
X26873483Y-84499212D01*
X26872498Y-84518962D01*
X26768295Y-84518962D01*
X26767696Y-84510494D01*
X26767854Y-84482162D01*
X26770186Y-84455469D01*
X26774696Y-84429997D01*
X26781383Y-84405745D01*
X26790248Y-84382713D01*
X26801289Y-84360901D01*
X26814508Y-84340309D01*
X26829904Y-84320938D01*
X26844834Y-84305305D01*
X26864237Y-84288225D01*
X26885139Y-84272829D01*
X26927322Y-84249123D01*
X26973879Y-84231772D01*
X27000760Y-84225061D01*
X27028909Y-84220192D01*
X27084549Y-84216037D01*
X27143975Y-84218413D01*
G37*
G36*
X18175500Y-85098958D02*
G01*
X17776501Y-85312959D01*
X17776502Y-85544959D01*
X18175502Y-85544958D01*
X18175502Y-85675958D01*
X17188502Y-85675962D01*
X17188566Y-85544961D01*
X17295502Y-85544961D01*
X17669502Y-85544960D01*
X17669489Y-85341938D01*
X17666755Y-85301688D01*
X17660602Y-85270235D01*
X17650934Y-85241595D01*
X17638983Y-85217811D01*
X17622577Y-85194562D01*
X17597785Y-85170156D01*
X17569243Y-85151995D01*
X17536965Y-85140097D01*
X17503469Y-85134642D01*
X17460476Y-85135028D01*
X17422547Y-85141554D01*
X17389343Y-85154013D01*
X17373566Y-85163083D01*
X17359132Y-85173841D01*
X17338567Y-85195024D01*
X17321927Y-85220567D01*
X17309330Y-85250071D01*
X17300286Y-85286274D01*
X17296949Y-85311973D01*
X17295549Y-85339571D01*
X17295502Y-85544961D01*
X17188566Y-85544961D01*
X17188668Y-85333477D01*
X17192138Y-85279631D01*
X17199188Y-85234680D01*
X17207501Y-85201462D01*
X17216722Y-85174395D01*
X17229488Y-85145746D01*
X17242606Y-85122678D01*
X17259825Y-85098600D01*
X17279187Y-85076877D01*
X17300710Y-85057893D01*
X17321363Y-85043589D01*
X17347047Y-85029878D01*
X17374949Y-85018979D01*
X17408991Y-85010080D01*
X17441608Y-85005158D01*
X17480955Y-85002982D01*
X17513664Y-85004157D01*
X17545914Y-85008750D01*
X17578947Y-85017615D01*
X17607682Y-85029386D01*
X17632539Y-85043203D01*
X17658130Y-85061678D01*
X17681544Y-85083170D01*
X17700845Y-85105280D01*
X17719543Y-85132028D01*
X17735779Y-85161518D01*
X17748501Y-85190960D01*
X18167500Y-84958958D01*
X18175500Y-84958958D01*
X18175500Y-85098958D01*
G37*
G36*
X17906723Y-84211961D02*
G01*
X17941418Y-84216445D01*
X17970110Y-84222471D01*
X18000997Y-84231760D01*
X18026357Y-84241990D01*
X18050161Y-84254182D01*
X18075462Y-84270517D01*
X18098732Y-84289416D01*
X18117224Y-84308092D01*
X18133617Y-84328359D01*
X18149773Y-84353425D01*
X18161654Y-84377024D01*
X18171429Y-84402179D01*
X18179099Y-84428889D01*
X18185287Y-84461318D01*
X18188445Y-84491360D01*
X18189480Y-84527040D01*
X18188055Y-84558833D01*
X18184348Y-84589094D01*
X18178360Y-84617825D01*
X18170090Y-84645024D01*
X18159540Y-84670692D01*
X18146708Y-84694829D01*
X18131594Y-84717434D01*
X18114204Y-84738535D01*
X18094880Y-84757898D01*
X18073837Y-84775043D01*
X18051076Y-84789968D01*
X18026595Y-84802676D01*
X18000396Y-84813164D01*
X17972478Y-84821434D01*
X17946640Y-84826849D01*
X17915499Y-84830959D01*
X17915499Y-84711959D01*
X17959989Y-84702361D01*
X17997835Y-84687068D01*
X18014266Y-84677286D01*
X18029036Y-84666080D01*
X18042145Y-84653450D01*
X18052391Y-84640869D01*
X18062311Y-84625521D01*
X18071339Y-84607030D01*
X18082299Y-84569931D01*
X18085449Y-84547201D01*
X18086488Y-84525451D01*
X18085561Y-84501552D01*
X18082748Y-84481333D01*
X18072421Y-84446624D01*
X18064218Y-84429819D01*
X18054139Y-84414202D01*
X18042186Y-84399772D01*
X18028358Y-84386530D01*
X18013041Y-84374619D01*
X17996315Y-84364268D01*
X17961078Y-84349070D01*
X17917921Y-84338914D01*
X17869015Y-84335008D01*
X17821051Y-84337543D01*
X17791105Y-84343199D01*
X17763462Y-84352045D01*
X17738124Y-84364082D01*
X17715090Y-84379309D01*
X17692775Y-84399401D01*
X17675856Y-84420187D01*
X17662482Y-84443100D01*
X17652653Y-84468141D01*
X17645974Y-84497883D01*
X17643557Y-84527370D01*
X17644984Y-84564828D01*
X17650389Y-84598011D01*
X17658273Y-84623658D01*
X17669128Y-84646418D01*
X17679499Y-84661960D01*
X17706499Y-84694960D01*
X17680499Y-84794960D01*
X17188499Y-84744962D01*
X17188497Y-84238962D01*
X17304497Y-84238961D01*
X17304499Y-84638961D01*
X17573499Y-84667960D01*
X17559988Y-84642619D01*
X17549017Y-84616097D01*
X17540587Y-84588393D01*
X17534698Y-84559507D01*
X17531349Y-84529440D01*
X17530585Y-84495577D01*
X17532671Y-84463116D01*
X17536777Y-84436122D01*
X17543013Y-84410445D01*
X17551379Y-84386083D01*
X17561874Y-84363037D01*
X17576475Y-84338311D01*
X17593858Y-84315303D01*
X17611349Y-84296581D01*
X17630868Y-84279394D01*
X17651952Y-84264137D01*
X17677893Y-84249016D01*
X17702207Y-84237810D01*
X17731840Y-84227318D01*
X17763441Y-84219294D01*
X17797012Y-84213740D01*
X17832551Y-84210654D01*
X17869996Y-84210039D01*
X17906723Y-84211961D01*
G37*
G36*
X100616630Y-124066428D02*
G01*
X100621700Y-124115889D01*
X100627001Y-124138416D01*
X100634145Y-124159475D01*
X100648319Y-124188309D01*
X100666641Y-124213838D01*
X100687002Y-124234044D01*
X100712643Y-124252021D01*
X100741799Y-124265849D01*
X100771614Y-124274880D01*
X100804383Y-124280426D01*
X100843500Y-124282500D01*
X100880091Y-124280757D01*
X100916436Y-124274880D01*
X100949055Y-124264855D01*
X100975683Y-124252021D01*
X101001159Y-124234044D01*
X101023044Y-124212016D01*
X101041021Y-124186516D01*
X101053855Y-124160176D01*
X101060999Y-124139238D01*
X101066300Y-124116801D01*
X101071370Y-124067426D01*
X101071500Y-123388500D01*
X101202500Y-123388500D01*
X101201819Y-124081064D01*
X101197307Y-124122323D01*
X101188596Y-124161093D01*
X101175686Y-124197372D01*
X101158577Y-124231161D01*
X101139588Y-124259442D01*
X101117198Y-124285706D01*
X101094727Y-124306829D01*
X101067125Y-124327688D01*
X101037071Y-124345501D01*
X101008297Y-124358778D01*
X100973611Y-124370839D01*
X100940721Y-124379003D01*
X100896883Y-124385824D01*
X100843500Y-124389500D01*
X100808852Y-124388447D01*
X100775783Y-124385289D01*
X100735586Y-124378135D01*
X100698000Y-124367500D01*
X100666781Y-124355125D01*
X100634125Y-124337916D01*
X100607290Y-124319697D01*
X100579531Y-124295997D01*
X100557531Y-124272677D01*
X100538531Y-124247263D01*
X100522531Y-124219755D01*
X100509531Y-124190153D01*
X100499531Y-124158458D01*
X100492531Y-124124669D01*
X100488867Y-124093386D01*
X100487500Y-124060500D01*
X100487500Y-123388500D01*
X100616500Y-123388500D01*
X100616630Y-124066428D01*
G37*
G36*
X101787500Y-124375500D02*
G01*
X101661500Y-124375500D01*
X101661500Y-123539500D01*
X101408500Y-123632500D01*
X101408500Y-123518500D01*
X101768500Y-123383500D01*
X101787500Y-123383500D01*
X101787500Y-124375500D01*
G37*
G36*
X219677122Y-103188667D02*
G01*
X219730967Y-103192137D01*
X219775919Y-103199188D01*
X219809137Y-103207500D01*
X219836204Y-103216722D01*
X219864853Y-103229487D01*
X219887921Y-103242605D01*
X219911999Y-103259824D01*
X219933721Y-103279187D01*
X219952706Y-103300710D01*
X219967010Y-103321363D01*
X219980721Y-103347047D01*
X219991619Y-103374949D01*
X220000518Y-103408991D01*
X220005440Y-103441608D01*
X220007615Y-103480955D01*
X220006441Y-103513664D01*
X220001847Y-103545914D01*
X219992983Y-103578947D01*
X219981211Y-103607682D01*
X219967394Y-103632539D01*
X219948920Y-103658130D01*
X219927427Y-103681544D01*
X219905317Y-103700845D01*
X219878569Y-103719542D01*
X219849079Y-103735779D01*
X219819637Y-103748500D01*
X220051637Y-104167500D01*
X220051637Y-104175500D01*
X219911637Y-104175500D01*
X219697637Y-103776500D01*
X219465637Y-103776500D01*
X219465637Y-104175500D01*
X219334637Y-104175500D01*
X219334637Y-103669500D01*
X219465637Y-103669500D01*
X219668659Y-103669488D01*
X219708909Y-103666753D01*
X219740362Y-103660601D01*
X219769003Y-103650933D01*
X219792786Y-103638982D01*
X219816036Y-103622576D01*
X219840442Y-103597785D01*
X219858602Y-103569242D01*
X219870500Y-103536964D01*
X219875955Y-103503468D01*
X219875569Y-103460475D01*
X219869044Y-103422547D01*
X219856585Y-103389343D01*
X219847515Y-103373565D01*
X219836757Y-103359132D01*
X219815575Y-103338566D01*
X219790032Y-103321926D01*
X219760528Y-103309329D01*
X219724325Y-103300285D01*
X219698626Y-103296948D01*
X219671028Y-103295548D01*
X219465637Y-103295500D01*
X219465637Y-103669500D01*
X219334637Y-103669500D01*
X219334637Y-103295500D01*
X219334637Y-103188500D01*
X219677122Y-103188667D01*
G37*
G36*
X220520168Y-103177993D02*
G01*
X220570008Y-103188473D01*
X220612090Y-103204459D01*
X220647346Y-103224563D01*
X220679118Y-103249825D01*
X220707809Y-103282268D01*
X220728434Y-103315877D01*
X220744430Y-103356254D01*
X220753337Y-103397188D01*
X220756637Y-103445500D01*
X220754200Y-103481500D01*
X220746887Y-103515500D01*
X220734700Y-103547500D01*
X220718847Y-103575684D01*
X220697818Y-103602900D01*
X220673287Y-103627088D01*
X220645255Y-103648275D01*
X220611637Y-103667500D01*
X220639727Y-103680965D01*
X220665497Y-103696609D01*
X220690795Y-103716017D01*
X220711731Y-103736203D01*
X220731793Y-103760530D01*
X220747601Y-103784891D01*
X220760257Y-103810391D01*
X220769750Y-103837016D01*
X220776078Y-103864766D01*
X220779363Y-103896098D01*
X220779106Y-103928333D01*
X220775474Y-103962401D01*
X220769357Y-103990925D01*
X220759225Y-104021034D01*
X220747331Y-104046038D01*
X220730700Y-104072188D01*
X220713028Y-104093672D01*
X220689936Y-104115856D01*
X220667362Y-104133372D01*
X220643069Y-104148513D01*
X220617057Y-104161278D01*
X220589327Y-104171669D01*
X220556076Y-104180520D01*
X220524693Y-104185863D01*
X220487333Y-104189036D01*
X220448106Y-104189199D01*
X220410260Y-104186323D01*
X220378479Y-104181210D01*
X220344817Y-104172581D01*
X220316755Y-104162354D01*
X220287276Y-104147973D01*
X220260012Y-104130547D01*
X220234971Y-104110112D01*
X220215151Y-104090097D01*
X220196065Y-104065637D01*
X220181956Y-104042168D01*
X220170534Y-104017074D01*
X220160897Y-103986901D01*
X220155186Y-103958354D01*
X220151973Y-103924297D01*
X220152298Y-103906500D01*
X220276637Y-103906500D01*
X220279762Y-103946250D01*
X220289137Y-103981500D01*
X220304762Y-104012250D01*
X220326637Y-104038500D01*
X220354075Y-104059500D01*
X220386387Y-104074500D01*
X220423575Y-104083500D01*
X220465637Y-104086500D01*
X220507262Y-104083500D01*
X220544137Y-104074500D01*
X220576262Y-104059500D01*
X220603637Y-104038500D01*
X220625512Y-104011875D01*
X220641137Y-103981000D01*
X220650512Y-103945875D01*
X220653637Y-103906500D01*
X220650387Y-103866938D01*
X220640637Y-103831250D01*
X220624387Y-103799438D01*
X220601637Y-103771500D01*
X220573200Y-103748750D01*
X220540887Y-103732500D01*
X220504700Y-103722750D01*
X220464637Y-103719500D01*
X220424262Y-103722688D01*
X220388137Y-103732250D01*
X220356262Y-103748188D01*
X220328637Y-103770500D01*
X220305887Y-103798500D01*
X220289637Y-103830500D01*
X220279887Y-103866500D01*
X220276637Y-103906500D01*
X220152298Y-103906500D01*
X220152712Y-103883891D01*
X220159468Y-103843848D01*
X220172434Y-103806063D01*
X220190309Y-103772563D01*
X220214550Y-103739738D01*
X220243640Y-103711092D01*
X220277669Y-103686679D01*
X220316637Y-103666500D01*
X220290980Y-103652427D01*
X220269347Y-103637533D01*
X220248133Y-103619334D01*
X220230602Y-103600631D01*
X220215040Y-103580100D01*
X220200697Y-103556404D01*
X220190233Y-103533336D01*
X220181911Y-103506996D01*
X220176725Y-103479254D01*
X220174674Y-103450108D01*
X220174752Y-103447500D01*
X220299637Y-103447500D01*
X220302512Y-103483625D01*
X220311137Y-103516000D01*
X220325512Y-103544625D01*
X220347051Y-103570957D01*
X220371660Y-103591153D01*
X220400020Y-103605473D01*
X220432129Y-103613918D01*
X220465637Y-103616500D01*
X220501262Y-103613563D01*
X220533137Y-103604750D01*
X220559614Y-103591153D01*
X220584224Y-103570957D01*
X220605325Y-103544625D01*
X220619387Y-103516000D01*
X220627825Y-103483625D01*
X220630637Y-103447500D01*
X220627762Y-103411750D01*
X220619137Y-103379500D01*
X220604762Y-103350750D01*
X220584637Y-103325500D01*
X220559575Y-103304500D01*
X220531387Y-103289500D01*
X220500075Y-103280500D01*
X220465637Y-103277500D01*
X220430387Y-103280375D01*
X220398637Y-103289000D01*
X220370387Y-103303375D01*
X220344211Y-103324945D01*
X220324445Y-103350195D01*
X220310430Y-103379445D01*
X220302164Y-103412695D01*
X220299637Y-103447500D01*
X220174752Y-103447500D01*
X220175594Y-103418973D01*
X220179637Y-103386625D01*
X220185887Y-103359531D01*
X220194637Y-103334000D01*
X220207469Y-103307145D01*
X220221532Y-103284934D01*
X220249715Y-103252174D01*
X220283644Y-103224563D01*
X220321809Y-103203016D01*
X220364183Y-103187492D01*
X220414523Y-103177512D01*
X220469688Y-103174518D01*
X220520168Y-103177993D01*
G37*
G36*
X218545507Y-144971498D02*
G01*
X218160507Y-144971499D01*
X217745507Y-144959501D01*
X218545508Y-145283498D01*
X218545509Y-145383498D01*
X217747510Y-145706501D01*
X218160510Y-145693499D01*
X218545510Y-145693498D01*
X218545510Y-145823498D01*
X217558510Y-145823502D01*
X217558510Y-145655502D01*
X218363509Y-145332499D01*
X217558507Y-145010502D01*
X217558507Y-144841502D01*
X218545507Y-144841498D01*
X218545507Y-144971498D01*
G37*
G36*
X218545506Y-144601498D02*
G01*
X217558506Y-144601502D01*
X217558505Y-144471502D01*
X218545505Y-144471498D01*
X218545506Y-144601498D01*
G37*
G36*
X218145204Y-143521466D02*
G01*
X218193398Y-143528110D01*
X218242830Y-143539593D01*
X218285897Y-143554147D01*
X218329771Y-143574198D01*
X218364155Y-143594366D01*
X218392900Y-143615059D01*
X218421756Y-143640416D01*
X218447717Y-143668491D01*
X218470784Y-143699283D01*
X218491011Y-143732780D01*
X218506909Y-143765158D01*
X218521239Y-143802635D01*
X218529583Y-143831115D01*
X218536878Y-143864389D01*
X218541503Y-143895061D01*
X218544615Y-143930799D01*
X218545505Y-144232498D01*
X217558505Y-144232502D01*
X217558517Y-143950501D01*
X217665503Y-143950501D01*
X217665504Y-144102501D01*
X218439504Y-144102498D01*
X218438379Y-143933475D01*
X218432068Y-143886344D01*
X218421511Y-143846881D01*
X218409761Y-143817631D01*
X218393031Y-143787190D01*
X218372583Y-143759360D01*
X218351286Y-143736813D01*
X218323995Y-143714129D01*
X218297100Y-143696738D01*
X218267737Y-143681973D01*
X218231752Y-143668499D01*
X218188105Y-143657425D01*
X218140600Y-143650453D01*
X218094548Y-143647684D01*
X218016270Y-143647519D01*
X217970809Y-143649429D01*
X217932856Y-143653749D01*
X217892923Y-143661561D01*
X217859884Y-143671127D01*
X217832872Y-143681523D01*
X217804169Y-143695718D01*
X217780950Y-143710165D01*
X217759503Y-143726501D01*
X217740260Y-143744572D01*
X217720963Y-143767158D01*
X217704541Y-143791806D01*
X217692530Y-143815066D01*
X217683987Y-143836259D01*
X217676065Y-143862451D01*
X217670343Y-143890222D01*
X217667191Y-143915282D01*
X217665503Y-143950501D01*
X217558517Y-143950501D01*
X217558517Y-143950478D01*
X217561231Y-143899500D01*
X217567910Y-143854640D01*
X217577554Y-143815372D01*
X217591915Y-143774556D01*
X217608600Y-143738994D01*
X217632483Y-143699547D01*
X217658077Y-143666377D01*
X217689612Y-143634014D01*
X217722237Y-143607436D01*
X217758237Y-143584021D01*
X217800842Y-143562322D01*
X217842578Y-143546109D01*
X217890252Y-143532750D01*
X217940484Y-143523765D01*
X217993274Y-143519153D01*
X218094550Y-143518618D01*
X218145204Y-143521466D01*
G37*
G36*
X218545501Y-143312498D02*
G01*
X217558501Y-143312502D01*
X217558501Y-143182502D01*
X218545501Y-143182498D01*
X218545501Y-143312498D01*
G37*
G36*
X218145163Y-141842844D02*
G01*
X218203289Y-141849878D01*
X218257874Y-141861602D01*
X218308918Y-141878014D01*
X218359718Y-141900501D01*
X218402429Y-141925520D01*
X218442668Y-141956787D01*
X218475071Y-141990133D01*
X218502496Y-142027498D01*
X218526084Y-142071279D01*
X218543410Y-142118245D01*
X218554473Y-142168398D01*
X218559274Y-142221736D01*
X218557784Y-142275919D01*
X218549925Y-142327104D01*
X218535694Y-142375323D01*
X218518207Y-142414714D01*
X218494182Y-142454592D01*
X218467760Y-142488489D01*
X218437294Y-142519084D01*
X218402785Y-142546379D01*
X218361100Y-142572083D01*
X218318325Y-142592443D01*
X218272564Y-142608868D01*
X218216278Y-142622795D01*
X218156256Y-142631339D01*
X218101215Y-142634389D01*
X218003756Y-142634305D01*
X217947929Y-142630972D01*
X217898886Y-142624234D01*
X217852233Y-142613981D01*
X217804391Y-142598905D01*
X217766105Y-142582959D01*
X217730416Y-142564649D01*
X217697741Y-142543858D01*
X217668079Y-142520585D01*
X217641431Y-142494831D01*
X217617795Y-142466595D01*
X217595474Y-142433146D01*
X217578496Y-142400831D01*
X217563883Y-142363759D01*
X217554070Y-142328108D01*
X217547683Y-142290862D01*
X217544724Y-142252021D01*
X217545065Y-142229619D01*
X217656589Y-142229619D01*
X217658356Y-142271328D01*
X217665677Y-142309825D01*
X217678552Y-142345191D01*
X217698931Y-142380201D01*
X217718552Y-142404013D01*
X217744715Y-142428012D01*
X217771934Y-142447000D01*
X217802061Y-142463251D01*
X217838921Y-142478153D01*
X217875143Y-142488726D01*
X217914252Y-142496610D01*
X217956248Y-142501804D01*
X218006297Y-142504421D01*
X218104467Y-142504222D01*
X218149590Y-142501570D01*
X218191865Y-142496110D01*
X218235498Y-142486749D01*
X218275615Y-142473922D01*
X218312217Y-142457628D01*
X218348418Y-142435700D01*
X218366062Y-142421925D01*
X218384463Y-142404635D01*
X218398387Y-142388806D01*
X218412478Y-142369161D01*
X218422708Y-142351314D01*
X218432489Y-142329314D01*
X218439948Y-142306046D01*
X218444495Y-142285093D01*
X218447645Y-142259470D01*
X218448475Y-142232575D01*
X218447060Y-142205889D01*
X218443443Y-142180567D01*
X218437626Y-142156609D01*
X218429607Y-142134014D01*
X218419387Y-142112784D01*
X218406966Y-142092917D01*
X218380552Y-142062032D01*
X218364919Y-142048093D01*
X218344688Y-142033014D01*
X218305559Y-142010749D01*
X218260875Y-141993265D01*
X218210637Y-141980562D01*
X218159705Y-141973118D01*
X218104107Y-141969691D01*
X218019496Y-141969500D01*
X217966786Y-141971234D01*
X217918031Y-141976434D01*
X217873232Y-141985101D01*
X217828520Y-141998639D01*
X217792026Y-142014586D01*
X217759487Y-142034001D01*
X217728465Y-142058892D01*
X217705057Y-142084385D01*
X217684610Y-142115642D01*
X217669716Y-142150267D01*
X217660375Y-142188259D01*
X217656589Y-142229619D01*
X217545065Y-142229619D01*
X217545388Y-142208424D01*
X217549521Y-142169819D01*
X217557021Y-142132809D01*
X217569045Y-142094255D01*
X217582125Y-142063576D01*
X217599729Y-142031352D01*
X217618798Y-142003758D01*
X217640340Y-141978260D01*
X217664325Y-141954861D01*
X217690750Y-141933562D01*
X217719618Y-141914363D01*
X217750926Y-141897263D01*
X217784747Y-141882144D01*
X217820567Y-141869224D01*
X217858145Y-141858696D01*
X217897481Y-141850561D01*
X217934386Y-141845285D01*
X217977062Y-141841696D01*
X218083496Y-141840500D01*
X218145163Y-141842844D01*
G37*
G36*
X218251056Y-140950180D02*
G01*
X218292316Y-140954692D01*
X218331086Y-140963403D01*
X218367365Y-140976313D01*
X218401154Y-140993422D01*
X218429435Y-141012411D01*
X218455699Y-141034801D01*
X218476822Y-141057271D01*
X218497680Y-141084873D01*
X218513665Y-141111467D01*
X218528771Y-141143701D01*
X218540832Y-141178387D01*
X218548996Y-141211277D01*
X218555818Y-141255115D01*
X218559494Y-141308498D01*
X218558441Y-141343146D01*
X218555283Y-141376215D01*
X218548129Y-141416412D01*
X218537494Y-141453998D01*
X218523379Y-141488974D01*
X218507911Y-141517873D01*
X218489692Y-141544709D01*
X218465992Y-141572467D01*
X218442672Y-141594467D01*
X218417258Y-141613467D01*
X218389750Y-141629467D01*
X218360148Y-141642467D01*
X218328453Y-141652468D01*
X218294664Y-141659468D01*
X218263381Y-141663132D01*
X218230495Y-141664499D01*
X217558495Y-141664502D01*
X217558495Y-141535502D01*
X218236423Y-141535369D01*
X218285884Y-141530299D01*
X218308411Y-141524998D01*
X218329469Y-141517854D01*
X218358303Y-141503680D01*
X218383833Y-141485357D01*
X218404038Y-141464997D01*
X218422015Y-141439356D01*
X218435843Y-141410200D01*
X218444874Y-141380385D01*
X218450751Y-141344490D01*
X218452494Y-141308498D01*
X218450751Y-141271908D01*
X218444874Y-141235562D01*
X218435842Y-141205519D01*
X218422014Y-141176316D01*
X218404037Y-141150839D01*
X218382009Y-141128955D01*
X218358763Y-141112318D01*
X218330169Y-141098144D01*
X218309231Y-141091000D01*
X218286794Y-141085699D01*
X218237419Y-141080629D01*
X217558493Y-141080502D01*
X217558492Y-140949502D01*
X218251056Y-140950180D01*
G37*
G36*
X217665490Y-140379501D02*
G01*
X218545490Y-140379498D01*
X218545491Y-140508498D01*
X217665491Y-140508501D01*
X217665492Y-140825501D01*
X217558492Y-140825502D01*
X217558489Y-140061502D01*
X217665489Y-140061501D01*
X217665490Y-140379501D01*
G37*
G36*
X16737717Y-40797594D02*
G01*
X16768776Y-40802256D01*
X16794218Y-40807928D01*
X16841831Y-40823912D01*
X16881647Y-40844000D01*
X16920905Y-40871844D01*
X16955538Y-40905547D01*
X16984682Y-40944043D01*
X17008272Y-40987250D01*
X17026307Y-41035168D01*
X17038788Y-41087797D01*
X17044022Y-41125500D01*
X16913022Y-41125500D01*
X16904465Y-41080244D01*
X16892608Y-41040353D01*
X16877450Y-41005824D01*
X16857434Y-40974639D01*
X16833671Y-40949648D01*
X16808147Y-40931312D01*
X16776415Y-40916458D01*
X16743007Y-40907206D01*
X16708800Y-40902548D01*
X16669422Y-40901702D01*
X16636045Y-40904734D01*
X16604805Y-40911405D01*
X16575700Y-40921715D01*
X16548730Y-40935663D01*
X16521270Y-40955429D01*
X16498809Y-40977059D01*
X16474512Y-41008501D01*
X16454397Y-41044812D01*
X16438418Y-41085673D01*
X16426575Y-41131083D01*
X16419397Y-41176312D01*
X16415859Y-41220234D01*
X16415431Y-41376253D01*
X16418228Y-41418779D01*
X16424444Y-41462969D01*
X16433931Y-41503936D01*
X16445267Y-41538050D01*
X16460970Y-41572894D01*
X16477900Y-41601498D01*
X16499616Y-41629766D01*
X16521426Y-41651266D01*
X16545372Y-41669009D01*
X16571453Y-41682994D01*
X16599670Y-41693223D01*
X16630023Y-41699694D01*
X16662512Y-41702407D01*
X16702551Y-41701304D01*
X16738364Y-41696710D01*
X16770661Y-41688671D01*
X16799442Y-41677187D01*
X16824708Y-41662257D01*
X16846554Y-41643671D01*
X16864083Y-41622318D01*
X16880577Y-41594105D01*
X16893288Y-41563734D01*
X16904526Y-41525684D01*
X16913022Y-41482500D01*
X17044022Y-41482500D01*
X17035471Y-41534028D01*
X17022194Y-41581360D01*
X17004190Y-41624498D01*
X16979159Y-41666774D01*
X16951272Y-41701141D01*
X16915647Y-41733914D01*
X16875522Y-41761125D01*
X16834788Y-41780756D01*
X16786038Y-41796377D01*
X16728147Y-41806477D01*
X16664570Y-41809469D01*
X16611904Y-41805778D01*
X16562607Y-41795934D01*
X16539222Y-41788705D01*
X16512272Y-41778000D01*
X16470050Y-41755236D01*
X16431198Y-41726320D01*
X16399111Y-41695036D01*
X16370257Y-41659307D01*
X16348109Y-41624697D01*
X16327114Y-41582549D01*
X16310272Y-41537000D01*
X16297583Y-41488049D01*
X16289790Y-41441682D01*
X16284945Y-41386307D01*
X16284991Y-41214602D01*
X16289812Y-41162094D01*
X16299526Y-41108500D01*
X16315137Y-41054477D01*
X16336125Y-41004047D01*
X16361946Y-40958637D01*
X16392272Y-40918500D01*
X16429584Y-40881500D01*
X16472022Y-40850500D01*
X16518834Y-40826000D01*
X16566013Y-40809389D01*
X16619849Y-40798451D01*
X16677310Y-40794514D01*
X16737717Y-40797594D01*
G37*
G36*
X17512917Y-40795385D02*
G01*
X17549209Y-40799125D01*
X17583089Y-40805792D01*
X17614556Y-40815385D01*
X17643611Y-40827905D01*
X17670252Y-40843352D01*
X17694482Y-40861725D01*
X17716319Y-40882876D01*
X17735127Y-40906319D01*
X17750772Y-40932016D01*
X17760752Y-40953561D01*
X17769815Y-40979854D01*
X17776377Y-41007928D01*
X17780069Y-41033954D01*
X17781944Y-41065368D01*
X17781191Y-41091682D01*
X17777500Y-41115618D01*
X17770855Y-41139202D01*
X17760325Y-41164354D01*
X17747528Y-41187206D01*
X17731883Y-41209656D01*
X17714024Y-41230281D01*
X17695800Y-41247211D01*
X17673897Y-41263523D01*
X17651967Y-41276500D01*
X17626022Y-41288500D01*
X17669141Y-41305814D01*
X17706249Y-41328508D01*
X17722548Y-41341872D01*
X17737344Y-41356580D01*
X17750638Y-41372633D01*
X17763788Y-41391889D01*
X17773775Y-41410307D01*
X17781982Y-41429752D01*
X17792627Y-41469289D01*
X17796978Y-41515150D01*
X17794452Y-41564594D01*
X17788526Y-41598254D01*
X17779159Y-41629739D01*
X17766351Y-41659048D01*
X17750102Y-41686182D01*
X17730413Y-41711141D01*
X17707291Y-41733918D01*
X17681565Y-41753971D01*
X17653783Y-41770938D01*
X17623944Y-41784820D01*
X17595694Y-41794570D01*
X17561970Y-41802625D01*
X17530267Y-41807196D01*
X17492659Y-41809424D01*
X17454238Y-41808591D01*
X17421722Y-41805325D01*
X17387084Y-41798812D01*
X17358022Y-41790500D01*
X17330584Y-41779812D01*
X17301660Y-41764950D01*
X17277675Y-41749216D01*
X17252669Y-41728766D01*
X17232958Y-41708891D01*
X17214033Y-41684738D01*
X17200100Y-41661676D01*
X17186506Y-41630738D01*
X17177904Y-41600891D01*
X17172742Y-41569145D01*
X17171022Y-41535500D01*
X17297022Y-41535500D01*
X17299462Y-41568094D01*
X17306099Y-41595617D01*
X17317952Y-41622305D01*
X17334687Y-41645930D01*
X17357883Y-41667899D01*
X17383217Y-41684285D01*
X17411805Y-41696173D01*
X17443647Y-41703562D01*
X17478743Y-41706454D01*
X17516635Y-41704848D01*
X17548554Y-41699328D01*
X17578961Y-41689047D01*
X17603510Y-41675473D01*
X17624510Y-41657990D01*
X17641725Y-41636538D01*
X17655834Y-41609652D01*
X17663698Y-41585775D01*
X17668725Y-41559476D01*
X17670975Y-41528022D01*
X17669974Y-41499104D01*
X17666351Y-41474963D01*
X17659376Y-41450664D01*
X17650319Y-41430625D01*
X17637366Y-41410838D01*
X17619665Y-41391947D01*
X17596530Y-41374832D01*
X17571803Y-41362328D01*
X17541366Y-41352353D01*
X17512647Y-41346813D01*
X17484180Y-41344083D01*
X17371022Y-41343500D01*
X17371022Y-41240500D01*
X17474280Y-41240307D01*
X17515428Y-41235940D01*
X17538671Y-41230354D01*
X17562038Y-41221672D01*
X17583100Y-41210331D01*
X17600249Y-41197714D01*
X17618357Y-41180211D01*
X17631917Y-41162250D01*
X17642463Y-41142398D01*
X17650531Y-41118586D01*
X17655013Y-41092523D01*
X17655980Y-41066105D01*
X17653952Y-41035519D01*
X17648884Y-41007992D01*
X17639127Y-40979742D01*
X17625232Y-40955656D01*
X17607197Y-40935732D01*
X17585023Y-40919972D01*
X17558709Y-40908375D01*
X17523569Y-40900219D01*
X17488386Y-40897542D01*
X17451477Y-40899439D01*
X17418463Y-40906496D01*
X17390921Y-40917741D01*
X17364917Y-40934781D01*
X17342538Y-40956484D01*
X17326125Y-40979788D01*
X17314401Y-41006059D01*
X17307367Y-41035296D01*
X17305022Y-41067500D01*
X17180022Y-41067500D01*
X17181350Y-41038641D01*
X17186019Y-41007705D01*
X17192992Y-40981569D01*
X17204011Y-40953696D01*
X17218392Y-40927446D01*
X17233998Y-40905473D01*
X17254729Y-40882285D01*
X17278740Y-40860789D01*
X17304848Y-40842107D01*
X17332775Y-40826511D01*
X17365939Y-40812800D01*
X17397708Y-40803717D01*
X17431295Y-40797718D01*
X17470748Y-40794671D01*
X17512917Y-40795385D01*
G37*
G36*
X183605104Y-45046642D02*
G01*
X183637744Y-45050937D01*
X183666289Y-45056840D01*
X183693760Y-45064647D01*
X183742960Y-45084757D01*
X183766622Y-45098107D01*
X183790677Y-45114427D01*
X183812663Y-45132460D01*
X183832582Y-45152207D01*
X183848896Y-45171646D01*
X183864864Y-45194659D01*
X183878453Y-45218832D01*
X183888551Y-45241474D01*
X183897177Y-45267113D01*
X183902763Y-45291087D01*
X183906426Y-45318192D01*
X183907500Y-45343500D01*
X183776500Y-45343500D01*
X183772938Y-45301312D01*
X183768484Y-45281953D01*
X183761345Y-45261556D01*
X183753107Y-45244654D01*
X183741710Y-45227021D01*
X183729687Y-45212575D01*
X183715892Y-45199362D01*
X183700540Y-45187808D01*
X183683720Y-45177847D01*
X183665431Y-45169479D01*
X183645673Y-45162706D01*
X183601751Y-45153940D01*
X183552541Y-45151542D01*
X183502602Y-45155699D01*
X183480124Y-45160329D01*
X183459307Y-45166659D01*
X183440151Y-45174690D01*
X183422656Y-45184422D01*
X183405178Y-45197157D01*
X183391533Y-45209912D01*
X183380023Y-45223973D01*
X183370650Y-45239338D01*
X183363412Y-45256009D01*
X183358310Y-45273985D01*
X183355146Y-45295489D01*
X183354612Y-45317175D01*
X183356604Y-45335456D01*
X183361087Y-45352761D01*
X183372479Y-45376887D01*
X183389475Y-45398815D01*
X183412160Y-45418723D01*
X183442215Y-45437821D01*
X183474750Y-45453750D01*
X183513309Y-45469102D01*
X183645416Y-45510258D01*
X183713156Y-45536125D01*
X183747186Y-45552299D01*
X183776839Y-45569138D01*
X183805188Y-45588312D01*
X183828341Y-45607232D01*
X183851262Y-45630395D01*
X183870118Y-45654986D01*
X183885295Y-45681464D01*
X183896875Y-45710149D01*
X183904719Y-45740922D01*
X183908828Y-45773782D01*
X183909133Y-45809312D01*
X183905622Y-45841270D01*
X183897360Y-45874551D01*
X183882971Y-45908453D01*
X183863028Y-45939520D01*
X183840079Y-45965301D01*
X183809625Y-45990991D01*
X183775078Y-46013144D01*
X183736750Y-46030984D01*
X183694641Y-46044511D01*
X183648750Y-46053726D01*
X183599078Y-46058627D01*
X183543355Y-46059033D01*
X183493996Y-46054463D01*
X183449311Y-46045751D01*
X183403342Y-46031735D01*
X183359352Y-46012933D01*
X183322057Y-45991784D01*
X183291213Y-45969171D01*
X183266000Y-45945687D01*
X183244088Y-45919811D01*
X183224418Y-45889593D01*
X183210250Y-45859969D01*
X183200043Y-45828859D01*
X183193797Y-45796264D01*
X183191500Y-45759500D01*
X183322500Y-45759500D01*
X183325223Y-45794130D01*
X183333393Y-45825706D01*
X183347008Y-45854229D01*
X183366070Y-45879699D01*
X183390573Y-45902112D01*
X183421909Y-45922019D01*
X183454863Y-45936047D01*
X183491531Y-45945784D01*
X183535171Y-45951472D01*
X183581301Y-45952244D01*
X183622426Y-45948798D01*
X183661391Y-45940646D01*
X183693000Y-45928875D01*
X183720016Y-45913084D01*
X183742191Y-45893660D01*
X183760117Y-45869545D01*
X183768711Y-45851576D01*
X183775062Y-45830062D01*
X183778164Y-45806717D01*
X183778052Y-45782281D01*
X183774902Y-45759508D01*
X183769423Y-45740445D01*
X183760521Y-45721281D01*
X183748605Y-45704008D01*
X183735157Y-45689945D01*
X183720805Y-45678625D01*
X183677719Y-45654250D01*
X183618617Y-45629875D01*
X183543500Y-45605500D01*
X183460741Y-45578448D01*
X183422184Y-45562869D01*
X183387265Y-45546420D01*
X183355984Y-45529102D01*
X183328343Y-45510913D01*
X183306827Y-45494014D01*
X183285739Y-45473906D01*
X183267636Y-45452461D01*
X183252578Y-45429750D01*
X183240566Y-45405773D01*
X183231599Y-45380531D01*
X183225677Y-45354023D01*
X183222801Y-45326250D01*
X183223074Y-45295613D01*
X183226378Y-45267984D01*
X183232621Y-45241574D01*
X183241800Y-45216383D01*
X183253917Y-45192410D01*
X183271061Y-45166897D01*
X183289420Y-45145515D01*
X183313585Y-45122916D01*
X183337514Y-45104784D01*
X183366500Y-45087250D01*
X183394125Y-45074187D01*
X183423500Y-45063500D01*
X183458639Y-45054315D01*
X183491732Y-45048675D01*
X183531055Y-45045168D01*
X183568014Y-45044586D01*
X183605104Y-45046642D01*
G37*
G36*
X184289500Y-45734500D02*
G01*
X184308500Y-45864500D01*
X184335500Y-45747500D01*
X184531500Y-45058500D01*
X184641500Y-45058500D01*
X184831500Y-45747500D01*
X184858500Y-45866500D01*
X184879500Y-45733500D01*
X185033500Y-45058500D01*
X185163500Y-45058500D01*
X184924500Y-46045500D01*
X184805500Y-46045500D01*
X184602500Y-45325500D01*
X184586500Y-45250500D01*
X184571500Y-45325500D01*
X184360500Y-46045500D01*
X184241500Y-46045500D01*
X184002500Y-45058500D01*
X184133500Y-45058500D01*
X184289500Y-45734500D01*
G37*
G36*
X185805500Y-45713500D02*
G01*
X185942500Y-45713500D01*
X185942500Y-45816500D01*
X185805500Y-45816500D01*
X185805500Y-46045500D01*
X185679500Y-46045500D01*
X185679500Y-45816500D01*
X185229500Y-45816500D01*
X185229500Y-45742500D01*
X185248240Y-45713500D01*
X185371500Y-45713500D01*
X185679500Y-45713500D01*
X185679500Y-45229500D01*
X185664500Y-45256500D01*
X185371500Y-45713500D01*
X185248240Y-45713500D01*
X185671500Y-45058500D01*
X185805500Y-45058500D01*
X185805500Y-45713500D01*
G37*
G36*
X210930939Y-167266314D02*
G01*
X210926353Y-167320657D01*
X210915894Y-167366278D01*
X210905601Y-167394270D01*
X210892652Y-167420325D01*
X210877046Y-167444442D01*
X210858784Y-167466622D01*
X210837928Y-167486824D01*
X210815119Y-167504637D01*
X210790530Y-167519949D01*
X210764158Y-167532762D01*
X210736006Y-167543074D01*
X210706073Y-167550887D01*
X210674358Y-167556199D01*
X210636549Y-167559188D01*
X210596450Y-167559036D01*
X210561985Y-167556364D01*
X210529552Y-167551317D01*
X210495492Y-167542801D01*
X210454078Y-167526770D01*
X210417234Y-167505395D01*
X210382515Y-167476335D01*
X210356089Y-167444993D01*
X210345038Y-167427714D01*
X210333967Y-167406199D01*
X210319553Y-167365922D01*
X210310905Y-167321355D01*
X210308022Y-167272500D01*
X210438022Y-167272500D01*
X210439961Y-167305505D01*
X210445779Y-167335456D01*
X210455475Y-167362354D01*
X210470254Y-167387907D01*
X210487938Y-167408392D01*
X210508892Y-167424949D01*
X210533311Y-167437629D01*
X210561196Y-167446430D01*
X210590013Y-167451112D01*
X210624054Y-167452450D01*
X210655288Y-167449698D01*
X210681848Y-167443423D01*
X210708163Y-167432578D01*
X210730182Y-167418832D01*
X210750022Y-167401500D01*
X210767014Y-167380969D01*
X210780491Y-167357625D01*
X210790452Y-167331469D01*
X210796897Y-167302500D01*
X210799717Y-167273475D01*
X210800022Y-166558500D01*
X210931022Y-166558500D01*
X210930939Y-167266314D01*
G37*
G36*
X211443917Y-166545385D02*
G01*
X211480209Y-166549125D01*
X211514089Y-166555792D01*
X211545556Y-166565385D01*
X211574611Y-166577905D01*
X211601252Y-166593352D01*
X211625482Y-166611725D01*
X211647319Y-166632876D01*
X211666127Y-166656319D01*
X211681772Y-166682016D01*
X211693022Y-166706750D01*
X211700815Y-166729854D01*
X211706694Y-166754321D01*
X211711069Y-166783954D01*
X211712944Y-166815368D01*
X211712191Y-166841682D01*
X211708500Y-166865618D01*
X211701855Y-166889202D01*
X211692258Y-166912434D01*
X211678528Y-166937206D01*
X211662883Y-166959656D01*
X211645024Y-166980281D01*
X211626800Y-166997211D01*
X211604897Y-167013523D01*
X211582967Y-167026500D01*
X211557022Y-167038500D01*
X211600141Y-167055814D01*
X211637249Y-167078508D01*
X211653548Y-167091872D01*
X211668344Y-167106580D01*
X211681638Y-167122633D01*
X211694788Y-167141889D01*
X211712158Y-167177541D01*
X211723627Y-167219289D01*
X211727978Y-167265150D01*
X211725452Y-167314594D01*
X211719526Y-167348254D01*
X211710159Y-167379739D01*
X211697351Y-167409048D01*
X211681102Y-167436182D01*
X211661413Y-167461141D01*
X211638291Y-167483918D01*
X211612565Y-167503971D01*
X211584783Y-167520938D01*
X211558361Y-167533430D01*
X211526694Y-167544570D01*
X211492970Y-167552625D01*
X211461267Y-167557196D01*
X211423659Y-167559424D01*
X211385238Y-167558591D01*
X211352722Y-167555325D01*
X211318084Y-167548813D01*
X211285503Y-167539294D01*
X211258269Y-167528310D01*
X211232660Y-167514950D01*
X211208675Y-167499216D01*
X211183669Y-167478766D01*
X211163958Y-167458891D01*
X211146966Y-167437516D01*
X211131100Y-167411676D01*
X211118674Y-167383938D01*
X211109690Y-167354301D01*
X211103742Y-167319145D01*
X211102022Y-167285500D01*
X211228022Y-167285500D01*
X211230126Y-167315867D01*
X211237099Y-167345617D01*
X211248952Y-167372305D01*
X211265687Y-167395930D01*
X211288883Y-167417899D01*
X211314217Y-167434285D01*
X211342805Y-167446173D01*
X211374647Y-167453563D01*
X211409743Y-167456454D01*
X211447635Y-167454848D01*
X211479554Y-167449328D01*
X211509961Y-167439047D01*
X211534510Y-167425473D01*
X211555510Y-167407990D01*
X211572725Y-167386538D01*
X211586834Y-167359652D01*
X211594698Y-167335775D01*
X211599725Y-167309476D01*
X211601975Y-167278022D01*
X211600974Y-167249104D01*
X211597351Y-167224963D01*
X211590376Y-167200664D01*
X211580271Y-167178729D01*
X211568366Y-167160838D01*
X211550665Y-167141947D01*
X211527530Y-167124832D01*
X211500597Y-167111429D01*
X211472366Y-167102353D01*
X211443647Y-167096813D01*
X211415180Y-167094083D01*
X211302022Y-167093500D01*
X211302022Y-166990500D01*
X211405280Y-166990307D01*
X211446428Y-166985940D01*
X211469671Y-166980354D01*
X211493038Y-166971672D01*
X211514100Y-166960331D01*
X211531249Y-166947714D01*
X211549357Y-166930211D01*
X211562917Y-166912250D01*
X211574272Y-166890500D01*
X211581531Y-166868586D01*
X211586013Y-166842523D01*
X211586980Y-166816105D01*
X211584952Y-166785519D01*
X211579884Y-166757992D01*
X211570127Y-166729742D01*
X211556232Y-166705656D01*
X211538197Y-166685732D01*
X211516023Y-166669972D01*
X211489709Y-166658375D01*
X211454569Y-166650219D01*
X211419386Y-166647542D01*
X211382477Y-166649439D01*
X211349463Y-166656496D01*
X211321921Y-166667741D01*
X211295917Y-166684781D01*
X211273538Y-166706484D01*
X211257125Y-166729788D01*
X211245401Y-166756059D01*
X211238367Y-166785296D01*
X211236022Y-166817500D01*
X211111022Y-166817500D01*
X211112703Y-166785123D01*
X211117019Y-166757705D01*
X211125050Y-166728392D01*
X211135011Y-166703696D01*
X211149392Y-166677446D01*
X211164998Y-166655473D01*
X211185729Y-166632285D01*
X211209740Y-166610789D01*
X211235848Y-166592107D01*
X211263775Y-166576511D01*
X211296939Y-166562800D01*
X211328708Y-166553717D01*
X211362295Y-166547718D01*
X211401748Y-166544671D01*
X211443917Y-166545385D01*
G37*
G36*
X197654485Y-37188667D02*
G01*
X197708330Y-37192137D01*
X197753281Y-37199187D01*
X197786500Y-37207500D01*
X197813567Y-37216722D01*
X197842215Y-37229487D01*
X197865283Y-37242605D01*
X197889361Y-37259824D01*
X197911084Y-37279187D01*
X197930068Y-37300710D01*
X197944373Y-37321363D01*
X197958083Y-37347047D01*
X197968982Y-37374949D01*
X197977881Y-37408991D01*
X197982803Y-37441608D01*
X197984978Y-37480955D01*
X197983804Y-37513664D01*
X197979210Y-37545914D01*
X197970345Y-37578947D01*
X197958574Y-37607682D01*
X197944757Y-37632539D01*
X197926282Y-37658130D01*
X197904790Y-37681544D01*
X197882680Y-37700845D01*
X197855932Y-37719542D01*
X197826442Y-37735779D01*
X197797000Y-37748500D01*
X198029000Y-38167500D01*
X198029000Y-38175500D01*
X197889000Y-38175500D01*
X197675000Y-37776500D01*
X197443000Y-37776500D01*
X197443000Y-38175500D01*
X197312000Y-38175500D01*
X197312000Y-37669500D01*
X197443000Y-37669500D01*
X197646021Y-37669488D01*
X197686271Y-37666753D01*
X197717725Y-37660601D01*
X197746365Y-37650933D01*
X197770148Y-37638982D01*
X197793398Y-37622576D01*
X197817804Y-37597785D01*
X197835965Y-37569242D01*
X197847863Y-37536964D01*
X197853318Y-37503468D01*
X197852932Y-37460475D01*
X197846406Y-37422547D01*
X197833948Y-37389343D01*
X197824877Y-37373565D01*
X197814120Y-37359132D01*
X197792938Y-37338566D01*
X197767395Y-37321926D01*
X197737891Y-37309329D01*
X197701688Y-37300285D01*
X197675988Y-37296948D01*
X197648391Y-37295548D01*
X197443000Y-37295500D01*
X197443000Y-37669500D01*
X197312000Y-37669500D01*
X197312000Y-37295500D01*
X197312000Y-37188500D01*
X197654485Y-37188667D01*
G37*
G36*
X198665000Y-37843500D02*
G01*
X198802000Y-37843500D01*
X198802000Y-37946500D01*
X198665000Y-37946500D01*
X198665000Y-38175500D01*
X198539000Y-38175500D01*
X198539000Y-37946500D01*
X198089000Y-37946500D01*
X198089000Y-37872500D01*
X198107740Y-37843500D01*
X198231000Y-37843500D01*
X198539000Y-37843500D01*
X198539000Y-37359500D01*
X198524000Y-37386500D01*
X198231000Y-37843500D01*
X198107740Y-37843500D01*
X198531000Y-37188500D01*
X198665000Y-37188500D01*
X198665000Y-37843500D01*
G37*
G36*
X22545505Y-144270498D02*
G01*
X22160505Y-144270499D01*
X21745505Y-144258501D01*
X22545506Y-144582498D01*
X22545506Y-144682498D01*
X21747507Y-145005501D01*
X22160507Y-144992499D01*
X22545507Y-144992498D01*
X22545508Y-145122498D01*
X21558508Y-145122502D01*
X21558507Y-144954502D01*
X22363506Y-144631499D01*
X21558505Y-144309502D01*
X21558504Y-144140502D01*
X22545504Y-144140498D01*
X22545505Y-144270498D01*
G37*
G36*
X22545503Y-143900498D02*
G01*
X21558503Y-143900502D01*
X21558503Y-143770502D01*
X22545503Y-143770498D01*
X22545503Y-143900498D01*
G37*
G36*
X22145202Y-142820466D02*
G01*
X22193395Y-142827110D01*
X22242828Y-142838593D01*
X22285894Y-142853147D01*
X22329769Y-142873198D01*
X22364152Y-142893366D01*
X22392897Y-142914059D01*
X22421753Y-142939416D01*
X22447715Y-142967491D01*
X22470781Y-142998283D01*
X22491008Y-143031780D01*
X22506906Y-143064158D01*
X22521237Y-143101635D01*
X22529581Y-143130115D01*
X22536876Y-143163389D01*
X22541501Y-143194061D01*
X22544612Y-143229799D01*
X22545502Y-143531498D01*
X21558502Y-143531502D01*
X21558508Y-143401501D01*
X21665501Y-143401501D01*
X22439501Y-143401498D01*
X22438376Y-143232475D01*
X22432065Y-143185344D01*
X22421508Y-143145881D01*
X22409758Y-143116631D01*
X22393028Y-143086190D01*
X22372580Y-143058360D01*
X22351283Y-143035813D01*
X22323992Y-143013129D01*
X22297098Y-142995738D01*
X22267735Y-142980973D01*
X22231750Y-142967499D01*
X22188102Y-142956425D01*
X22140597Y-142949453D01*
X22094545Y-142946684D01*
X22016268Y-142946519D01*
X21970806Y-142948429D01*
X21932853Y-142952749D01*
X21892920Y-142960561D01*
X21859881Y-142970127D01*
X21832869Y-142980523D01*
X21804166Y-142994718D01*
X21780948Y-143009165D01*
X21759500Y-143025501D01*
X21740257Y-143043572D01*
X21720960Y-143066158D01*
X21704538Y-143090806D01*
X21692528Y-143114066D01*
X21683985Y-143135259D01*
X21676062Y-143161451D01*
X21670341Y-143189222D01*
X21667188Y-143214282D01*
X21665501Y-143249501D01*
X21665501Y-143401501D01*
X21558508Y-143401501D01*
X21558515Y-143249501D01*
X21558515Y-143249478D01*
X21561228Y-143198500D01*
X21567908Y-143153640D01*
X21577551Y-143114372D01*
X21591913Y-143073556D01*
X21608598Y-143037994D01*
X21632480Y-142998547D01*
X21658074Y-142965377D01*
X21689609Y-142933014D01*
X21722234Y-142906436D01*
X21758234Y-142883021D01*
X21800839Y-142861322D01*
X21842575Y-142845109D01*
X21890249Y-142831750D01*
X21940482Y-142822765D01*
X21993272Y-142818153D01*
X22094547Y-142817618D01*
X22145202Y-142820466D01*
G37*
G36*
X22545499Y-142611498D02*
G01*
X21558499Y-142611502D01*
X21558498Y-142481502D01*
X22545498Y-142481498D01*
X22545499Y-142611498D01*
G37*
G36*
X22545496Y-141889498D02*
G01*
X21558496Y-141889502D01*
X21558495Y-141759502D01*
X22545495Y-141759498D01*
X22545496Y-141889498D01*
G37*
G36*
X22545492Y-140892498D02*
G01*
X21784494Y-141390501D01*
X22545494Y-141390498D01*
X22545495Y-141520498D01*
X21558495Y-141520502D01*
X21558494Y-141390502D01*
X22322492Y-140891499D01*
X21558492Y-140891502D01*
X21558492Y-140762502D01*
X22545492Y-140762498D01*
X22545492Y-140892498D01*
G37*
G36*
X212175500Y-130096498D02*
G01*
X211776501Y-130310499D01*
X211776502Y-130542499D01*
X212175502Y-130542498D01*
X212175502Y-130673498D01*
X211188502Y-130673502D01*
X211188566Y-130542501D01*
X211295502Y-130542501D01*
X211669502Y-130542500D01*
X211669489Y-130339478D01*
X211666755Y-130299228D01*
X211660602Y-130267775D01*
X211650934Y-130239135D01*
X211638983Y-130215352D01*
X211622577Y-130192102D01*
X211597785Y-130167696D01*
X211569243Y-130149535D01*
X211536965Y-130137637D01*
X211503469Y-130132182D01*
X211460476Y-130132568D01*
X211422547Y-130139095D01*
X211389343Y-130151553D01*
X211373566Y-130160624D01*
X211359132Y-130171381D01*
X211338567Y-130192564D01*
X211321927Y-130218107D01*
X211309330Y-130247611D01*
X211300286Y-130283814D01*
X211296949Y-130309513D01*
X211295549Y-130337111D01*
X211295502Y-130542501D01*
X211188566Y-130542501D01*
X211188668Y-130331017D01*
X211192138Y-130277172D01*
X211199188Y-130232220D01*
X211207501Y-130199002D01*
X211216722Y-130171935D01*
X211229488Y-130143286D01*
X211242606Y-130120218D01*
X211259825Y-130096140D01*
X211279187Y-130074417D01*
X211300710Y-130055433D01*
X211321363Y-130041129D01*
X211347047Y-130027418D01*
X211374949Y-130016519D01*
X211408991Y-130007620D01*
X211441608Y-130002698D01*
X211480955Y-130000523D01*
X211513664Y-130001697D01*
X211545914Y-130006290D01*
X211578947Y-130015155D01*
X211607682Y-130026926D01*
X211632539Y-130040743D01*
X211658130Y-130059218D01*
X211681544Y-130080710D01*
X211700845Y-130102820D01*
X211719543Y-130129568D01*
X211735779Y-130159058D01*
X211748501Y-130188500D01*
X212167500Y-129956498D01*
X212175500Y-129956498D01*
X212175500Y-130096498D01*
G37*
G36*
X212175499Y-129621498D02*
G01*
X212175499Y-129753498D01*
X211291498Y-129345501D01*
X211291500Y-129880501D01*
X211188500Y-129880502D01*
X211188497Y-129212502D01*
X211258497Y-129212501D01*
X212175499Y-129621498D01*
G37*
G36*
X179319130Y-136406428D02*
G01*
X179324200Y-136455889D01*
X179329501Y-136478416D01*
X179336645Y-136499475D01*
X179350819Y-136528309D01*
X179369141Y-136553838D01*
X179389502Y-136574044D01*
X179415143Y-136592021D01*
X179444299Y-136605849D01*
X179474114Y-136614880D01*
X179506883Y-136620426D01*
X179546000Y-136622500D01*
X179582591Y-136620757D01*
X179618936Y-136614880D01*
X179651555Y-136604855D01*
X179678183Y-136592021D01*
X179703659Y-136574044D01*
X179725544Y-136552016D01*
X179743521Y-136526516D01*
X179756355Y-136500176D01*
X179763499Y-136479238D01*
X179768800Y-136456801D01*
X179773870Y-136407426D01*
X179774000Y-135728500D01*
X179905000Y-135728500D01*
X179904319Y-136421064D01*
X179899807Y-136462323D01*
X179891096Y-136501093D01*
X179878186Y-136537372D01*
X179861077Y-136571161D01*
X179842088Y-136599442D01*
X179819698Y-136625706D01*
X179797227Y-136646829D01*
X179769625Y-136667688D01*
X179739571Y-136685501D01*
X179710797Y-136698778D01*
X179676111Y-136710839D01*
X179643221Y-136719003D01*
X179599383Y-136725824D01*
X179546000Y-136729500D01*
X179511352Y-136728447D01*
X179478283Y-136725289D01*
X179438086Y-136718135D01*
X179400500Y-136707500D01*
X179369281Y-136695125D01*
X179336625Y-136677916D01*
X179309790Y-136659697D01*
X179282031Y-136635997D01*
X179260031Y-136612677D01*
X179241031Y-136587263D01*
X179225031Y-136559755D01*
X179212031Y-136530153D01*
X179202031Y-136498458D01*
X179195031Y-136464669D01*
X179191367Y-136433386D01*
X179190000Y-136400500D01*
X179190000Y-135728500D01*
X179319000Y-135728500D01*
X179319130Y-136406428D01*
G37*
G36*
X180415594Y-135715625D02*
G01*
X180458826Y-135720846D01*
X180498631Y-135730320D01*
X180535009Y-135744049D01*
X180565107Y-135760221D01*
X180594943Y-135782070D01*
X180620918Y-135807719D01*
X180642188Y-135836285D01*
X180657422Y-135864767D01*
X180669668Y-135898860D01*
X180676699Y-135932365D01*
X180679922Y-135971985D01*
X180679273Y-135997848D01*
X180675459Y-136026204D01*
X180668375Y-136055562D01*
X180658021Y-136085923D01*
X180644398Y-136117285D01*
X180627506Y-136149649D01*
X180588044Y-136211586D01*
X180552443Y-136258746D01*
X180511029Y-136307688D01*
X180229000Y-136613500D01*
X180725000Y-136613500D01*
X180725000Y-136715500D01*
X180078000Y-136715500D01*
X180078000Y-136625500D01*
X180420000Y-136245500D01*
X180470391Y-136185500D01*
X180503639Y-136140383D01*
X180526723Y-136102121D01*
X180542063Y-136064438D01*
X180550785Y-136025809D01*
X180552820Y-135983984D01*
X180547564Y-135943871D01*
X180542208Y-135925476D01*
X180535031Y-135908188D01*
X180526036Y-135892007D01*
X180515221Y-135876934D01*
X180502526Y-135862922D01*
X180488285Y-135850508D01*
X180474598Y-135841133D01*
X180458041Y-135832454D01*
X180440259Y-135825752D01*
X180423423Y-135821455D01*
X180384430Y-135817512D01*
X180337625Y-135820813D01*
X180298500Y-135830750D01*
X180280906Y-135838203D01*
X180264625Y-135847312D01*
X180249656Y-135858078D01*
X180236000Y-135870500D01*
X180224047Y-135884641D01*
X180213688Y-135900063D01*
X180197750Y-135934750D01*
X180188188Y-135974563D01*
X180185000Y-136019500D01*
X180059000Y-136019500D01*
X180061148Y-135977981D01*
X180068475Y-135935300D01*
X180081000Y-135895750D01*
X180096898Y-135862513D01*
X180117094Y-135831863D01*
X180144271Y-135801138D01*
X180175940Y-135774301D01*
X180207762Y-135754203D01*
X180242464Y-135738207D01*
X180280047Y-135726313D01*
X180320511Y-135718520D01*
X180368348Y-135714685D01*
X180415594Y-135715625D01*
G37*
G36*
X78222485Y-149928667D02*
G01*
X78276330Y-149932137D01*
X78321281Y-149939188D01*
X78354500Y-149947500D01*
X78381567Y-149956722D01*
X78410215Y-149969487D01*
X78433283Y-149982605D01*
X78457361Y-149999824D01*
X78479084Y-150019187D01*
X78498068Y-150040710D01*
X78512373Y-150061363D01*
X78526083Y-150087047D01*
X78536982Y-150114949D01*
X78545881Y-150148991D01*
X78550803Y-150181608D01*
X78552978Y-150220955D01*
X78551804Y-150253664D01*
X78547210Y-150285914D01*
X78538345Y-150318947D01*
X78526574Y-150347682D01*
X78512757Y-150372539D01*
X78494282Y-150398130D01*
X78472790Y-150421544D01*
X78450680Y-150440845D01*
X78423932Y-150459542D01*
X78394442Y-150475779D01*
X78365000Y-150488500D01*
X78597000Y-150907500D01*
X78597000Y-150915500D01*
X78457000Y-150915500D01*
X78243000Y-150516500D01*
X78011000Y-150516500D01*
X78011000Y-150915500D01*
X77880000Y-150915500D01*
X77880000Y-150409500D01*
X78011000Y-150409500D01*
X78214021Y-150409488D01*
X78254271Y-150406753D01*
X78285725Y-150400601D01*
X78314365Y-150390933D01*
X78338148Y-150378982D01*
X78361398Y-150362576D01*
X78385804Y-150337785D01*
X78403965Y-150309242D01*
X78415863Y-150276964D01*
X78421318Y-150243468D01*
X78420932Y-150200475D01*
X78414406Y-150162547D01*
X78401948Y-150129343D01*
X78392877Y-150113565D01*
X78382120Y-150099132D01*
X78360937Y-150078566D01*
X78335395Y-150061926D01*
X78305891Y-150049329D01*
X78269687Y-150040285D01*
X78243988Y-150036948D01*
X78216391Y-150035548D01*
X78011000Y-150035500D01*
X78011000Y-150409500D01*
X77880000Y-150409500D01*
X77880000Y-150035500D01*
X77880000Y-149928500D01*
X78222485Y-149928667D01*
G37*
G36*
X79062000Y-150742500D02*
G01*
X79345000Y-149928500D01*
X79487000Y-149928500D01*
X79121000Y-150915500D01*
X79006000Y-150915500D01*
X78640000Y-149928500D01*
X78782000Y-149928500D01*
X79062000Y-150742500D01*
G37*
G36*
X79924594Y-149915625D02*
G01*
X79967826Y-149920846D01*
X80007631Y-149930320D01*
X80044009Y-149944049D01*
X80074107Y-149960221D01*
X80103943Y-149982070D01*
X80129918Y-150007719D01*
X80151187Y-150036285D01*
X80166422Y-150064767D01*
X80178668Y-150098860D01*
X80186187Y-150135848D01*
X80188922Y-150171985D01*
X80188273Y-150197848D01*
X80184459Y-150226204D01*
X80177375Y-150255563D01*
X80167021Y-150285923D01*
X80153398Y-150317285D01*
X80136506Y-150349649D01*
X80097044Y-150411586D01*
X80061443Y-150458746D01*
X80020029Y-150507688D01*
X79738000Y-150813500D01*
X80234000Y-150813500D01*
X80234000Y-150915500D01*
X79587000Y-150915500D01*
X79587000Y-150825500D01*
X79929000Y-150445500D01*
X79979391Y-150385500D01*
X80012639Y-150340383D01*
X80035723Y-150302121D01*
X80051062Y-150264438D01*
X80059785Y-150225809D01*
X80061820Y-150183984D01*
X80056564Y-150143871D01*
X80051208Y-150125476D01*
X80044031Y-150108188D01*
X80035036Y-150092007D01*
X80024221Y-150076934D01*
X80011526Y-150062922D01*
X79997285Y-150050508D01*
X79983598Y-150041133D01*
X79967041Y-150032454D01*
X79949259Y-150025752D01*
X79932423Y-150021455D01*
X79893430Y-150017512D01*
X79846625Y-150020813D01*
X79807500Y-150030750D01*
X79789906Y-150038203D01*
X79773625Y-150047313D01*
X79758656Y-150058078D01*
X79745000Y-150070500D01*
X79733047Y-150084641D01*
X79722687Y-150100063D01*
X79706750Y-150134750D01*
X79697187Y-150174563D01*
X79694000Y-150219500D01*
X79568000Y-150219500D01*
X79570148Y-150177981D01*
X79577475Y-150135300D01*
X79590000Y-150095750D01*
X79605898Y-150062513D01*
X79626094Y-150031863D01*
X79653271Y-150001138D01*
X79684940Y-149974301D01*
X79716762Y-149954203D01*
X79751464Y-149938207D01*
X79789047Y-149926313D01*
X79833716Y-149917966D01*
X79877348Y-149914685D01*
X79924594Y-149915625D01*
G37*
G36*
X223255202Y-133876466D02*
G01*
X223307300Y-133883835D01*
X223352828Y-133894593D01*
X223395894Y-133909147D01*
X223439769Y-133929198D01*
X223474152Y-133949366D01*
X223502897Y-133970059D01*
X223531754Y-133995416D01*
X223557715Y-134023491D01*
X223580781Y-134054283D01*
X223601008Y-134087780D01*
X223618346Y-134123485D01*
X223631237Y-134157635D01*
X223639581Y-134186115D01*
X223646876Y-134219389D01*
X223651956Y-134253967D01*
X223654612Y-134285799D01*
X223655502Y-134587498D01*
X222668502Y-134587502D01*
X222668515Y-134305501D01*
X222775501Y-134305501D01*
X222775502Y-134457501D01*
X223549502Y-134457498D01*
X223548377Y-134288475D01*
X223542065Y-134241344D01*
X223531509Y-134201881D01*
X223518083Y-134169120D01*
X223503028Y-134142190D01*
X223482580Y-134114360D01*
X223461284Y-134091813D01*
X223433993Y-134069129D01*
X223407098Y-134051738D01*
X223373891Y-134035312D01*
X223341750Y-134023499D01*
X223298103Y-134012425D01*
X223250598Y-134005453D01*
X223204545Y-134002684D01*
X223126268Y-134002519D01*
X223085713Y-134004062D01*
X223042854Y-134008749D01*
X223002920Y-134016561D01*
X222969881Y-134026127D01*
X222942869Y-134036523D01*
X222917628Y-134048809D01*
X222894156Y-134062985D01*
X222869500Y-134081501D01*
X222850257Y-134099572D01*
X222830960Y-134122158D01*
X222816434Y-134143612D01*
X222802528Y-134170066D01*
X222793985Y-134191259D01*
X222786062Y-134217451D01*
X222780341Y-134245222D01*
X222777188Y-134270282D01*
X222775501Y-134305501D01*
X222668515Y-134305501D01*
X222668515Y-134305478D01*
X222671228Y-134254500D01*
X222677908Y-134209640D01*
X222687552Y-134170372D01*
X222701913Y-134129556D01*
X222718598Y-134093994D01*
X222742481Y-134054547D01*
X222768074Y-134021377D01*
X222797043Y-133991372D01*
X222832234Y-133962436D01*
X222868234Y-133939021D01*
X222910839Y-133917322D01*
X222956152Y-133899926D01*
X223000250Y-133887750D01*
X223050482Y-133878765D01*
X223103272Y-133874153D01*
X223204548Y-133873618D01*
X223255202Y-133876466D01*
G37*
G36*
X223655498Y-133423498D02*
G01*
X222819498Y-133423501D01*
X222912499Y-133676501D01*
X222798499Y-133676501D01*
X222663497Y-133316502D01*
X222663497Y-133297502D01*
X223655497Y-133297498D01*
X223655498Y-133423498D01*
G37*
G36*
X37230522Y-108928667D02*
G01*
X37284368Y-108932137D01*
X37329319Y-108939188D01*
X37362538Y-108947500D01*
X37389604Y-108956722D01*
X37418253Y-108969487D01*
X37441321Y-108982605D01*
X37465399Y-108999824D01*
X37487122Y-109019187D01*
X37506106Y-109040710D01*
X37520410Y-109061363D01*
X37534121Y-109087047D01*
X37545020Y-109114949D01*
X37553918Y-109148991D01*
X37558840Y-109181608D01*
X37561016Y-109220955D01*
X37559841Y-109253664D01*
X37555248Y-109285914D01*
X37546383Y-109318947D01*
X37534612Y-109347682D01*
X37520794Y-109372539D01*
X37502320Y-109398130D01*
X37480828Y-109421544D01*
X37458718Y-109440845D01*
X37431969Y-109459542D01*
X37402479Y-109475779D01*
X37373038Y-109488500D01*
X37605038Y-109907500D01*
X37605038Y-109915500D01*
X37465038Y-109915500D01*
X37251038Y-109516500D01*
X37019038Y-109516500D01*
X37019038Y-109915500D01*
X36888038Y-109915500D01*
X36888038Y-109409500D01*
X37019038Y-109409500D01*
X37222059Y-109409488D01*
X37262309Y-109406753D01*
X37293762Y-109400601D01*
X37322403Y-109390933D01*
X37346186Y-109378982D01*
X37369436Y-109362576D01*
X37393842Y-109337785D01*
X37412002Y-109309242D01*
X37423901Y-109276964D01*
X37429356Y-109243468D01*
X37428970Y-109200475D01*
X37422444Y-109162547D01*
X37409985Y-109129343D01*
X37400915Y-109113565D01*
X37390157Y-109099132D01*
X37368975Y-109078566D01*
X37343432Y-109061926D01*
X37313928Y-109049329D01*
X37277725Y-109040285D01*
X37252026Y-109036948D01*
X37224428Y-109035548D01*
X37019038Y-109035500D01*
X37019038Y-109409500D01*
X36888038Y-109409500D01*
X36888038Y-109035500D01*
X36888038Y-108928500D01*
X37230522Y-108928667D01*
G37*
G36*
X38070038Y-109742500D02*
G01*
X38353038Y-108928500D01*
X38495038Y-108928500D01*
X38129038Y-109915500D01*
X38014038Y-109915500D01*
X37648038Y-108928500D01*
X37790038Y-108928500D01*
X38070038Y-109742500D01*
G37*
G36*
X39087038Y-109033500D02*
G01*
X39041585Y-109034463D01*
X38998841Y-109039356D01*
X38962834Y-109047141D01*
X38925564Y-109059548D01*
X38894484Y-109074096D01*
X38862687Y-109094018D01*
X38833771Y-109117895D01*
X38808032Y-109145490D01*
X38792163Y-109166813D01*
X38778063Y-109189786D01*
X38765735Y-109214411D01*
X38755177Y-109240687D01*
X38746389Y-109268613D01*
X38739372Y-109298191D01*
X38731038Y-109357500D01*
X38748782Y-109338889D01*
X38765077Y-109324651D01*
X38785354Y-109310039D01*
X38806995Y-109297581D01*
X38830000Y-109287275D01*
X38854368Y-109279124D01*
X38880100Y-109273125D01*
X38903242Y-109269697D01*
X38931507Y-109267698D01*
X38959838Y-109267855D01*
X38986531Y-109270188D01*
X39012003Y-109274698D01*
X39036256Y-109281385D01*
X39059288Y-109290250D01*
X39081099Y-109301292D01*
X39101691Y-109314511D01*
X39121062Y-109329907D01*
X39136695Y-109344837D01*
X39153775Y-109364239D01*
X39169171Y-109385142D01*
X39192876Y-109427325D01*
X39210228Y-109473882D01*
X39221225Y-109524813D01*
X39225962Y-109584552D01*
X39223586Y-109643978D01*
X39214366Y-109699063D01*
X39205288Y-109730500D01*
X39195217Y-109756470D01*
X39181275Y-109784392D01*
X39166949Y-109807285D01*
X39148144Y-109831691D01*
X39126983Y-109853941D01*
X39107008Y-109871079D01*
X39082540Y-109887970D01*
X39059694Y-109900391D01*
X39031944Y-109911891D01*
X39002444Y-109920516D01*
X38971194Y-109926266D01*
X38938194Y-109929141D01*
X38907844Y-109929260D01*
X38873820Y-109926280D01*
X38845434Y-109920878D01*
X38810836Y-109910100D01*
X38774898Y-109893069D01*
X38741598Y-109870716D01*
X38713881Y-109846047D01*
X38688309Y-109817078D01*
X38663387Y-109781170D01*
X38644631Y-109746223D01*
X38627874Y-109704470D01*
X38616465Y-109664262D01*
X38609247Y-109626430D01*
X38604413Y-109581516D01*
X38603038Y-109539500D01*
X38603216Y-109507500D01*
X38729038Y-109507500D01*
X38729696Y-109580613D01*
X38736141Y-109635988D01*
X38741942Y-109661426D01*
X38750522Y-109688250D01*
X38759975Y-109710500D01*
X38771147Y-109731250D01*
X38785763Y-109752825D01*
X38801884Y-109772106D01*
X38819073Y-109788421D01*
X38837331Y-109801770D01*
X38854456Y-109811145D01*
X38874730Y-109818890D01*
X38896072Y-109823669D01*
X38918482Y-109825482D01*
X38938994Y-109824746D01*
X38958490Y-109822039D01*
X38976892Y-109817364D01*
X38994201Y-109810719D01*
X39023707Y-109792954D01*
X39037871Y-109780649D01*
X39050941Y-109766376D01*
X39072741Y-109733509D01*
X39088491Y-109695806D01*
X39098241Y-109653228D01*
X39102026Y-109602647D01*
X39099346Y-109553885D01*
X39090541Y-109510072D01*
X39075612Y-109471260D01*
X39054557Y-109437447D01*
X39040288Y-109420734D01*
X39026538Y-109407938D01*
X39011788Y-109397109D01*
X38996038Y-109388250D01*
X38979288Y-109381359D01*
X38961538Y-109376438D01*
X38942788Y-109373484D01*
X38923038Y-109372500D01*
X38891225Y-109374875D01*
X38862650Y-109381416D01*
X38833501Y-109392994D01*
X38805728Y-109409322D01*
X38780538Y-109429825D01*
X38759468Y-109452739D01*
X38742522Y-109478028D01*
X38729038Y-109507500D01*
X38603216Y-109507500D01*
X38603491Y-109457996D01*
X38607116Y-109393965D01*
X38614366Y-109333902D01*
X38626855Y-109271076D01*
X38637730Y-109231982D01*
X38652995Y-109189194D01*
X38671035Y-109149445D01*
X38688707Y-109117793D01*
X38708417Y-109088373D01*
X38730163Y-109061310D01*
X38753917Y-109036788D01*
X38784163Y-109011313D01*
X38817136Y-108989210D01*
X38847569Y-108972950D01*
X38885608Y-108957113D01*
X38920383Y-108946224D01*
X38957163Y-108937813D01*
X38995946Y-108931880D01*
X39036733Y-108928426D01*
X39087038Y-108927500D01*
X39087038Y-109033500D01*
G37*
G36*
X160212485Y-149928667D02*
G01*
X160266330Y-149932137D01*
X160311281Y-149939188D01*
X160344500Y-149947500D01*
X160371567Y-149956722D01*
X160400215Y-149969487D01*
X160423283Y-149982605D01*
X160447361Y-149999824D01*
X160469084Y-150019187D01*
X160488068Y-150040710D01*
X160502373Y-150061363D01*
X160516083Y-150087047D01*
X160526982Y-150114949D01*
X160535881Y-150148991D01*
X160540803Y-150181608D01*
X160542978Y-150220955D01*
X160541804Y-150253664D01*
X160537210Y-150285914D01*
X160528345Y-150318947D01*
X160516574Y-150347682D01*
X160502757Y-150372539D01*
X160484282Y-150398130D01*
X160462790Y-150421544D01*
X160440680Y-150440845D01*
X160413932Y-150459542D01*
X160384442Y-150475779D01*
X160355000Y-150488500D01*
X160587000Y-150907500D01*
X160587000Y-150915500D01*
X160447000Y-150915500D01*
X160233000Y-150516500D01*
X160001000Y-150516500D01*
X160001000Y-150915500D01*
X159870000Y-150915500D01*
X159870000Y-150409500D01*
X160001000Y-150409500D01*
X160204021Y-150409488D01*
X160244271Y-150406753D01*
X160275725Y-150400601D01*
X160304365Y-150390933D01*
X160328148Y-150378982D01*
X160351398Y-150362576D01*
X160375804Y-150337785D01*
X160393965Y-150309242D01*
X160405863Y-150276964D01*
X160411318Y-150243468D01*
X160410932Y-150200475D01*
X160404406Y-150162547D01*
X160391948Y-150129343D01*
X160382877Y-150113565D01*
X160372120Y-150099132D01*
X160350938Y-150078566D01*
X160325395Y-150061926D01*
X160295891Y-150049329D01*
X160259688Y-150040285D01*
X160233988Y-150036948D01*
X160206391Y-150035548D01*
X160001000Y-150035500D01*
X160001000Y-150409500D01*
X159870000Y-150409500D01*
X159870000Y-150035500D01*
X159870000Y-149928500D01*
X160212485Y-149928667D01*
G37*
G36*
X161052000Y-150742500D02*
G01*
X161335000Y-149928500D01*
X161477000Y-149928500D01*
X161111000Y-150915500D01*
X160996000Y-150915500D01*
X160630000Y-149928500D01*
X160772000Y-149928500D01*
X161052000Y-150742500D01*
G37*
G36*
X162107000Y-150583500D02*
G01*
X162244000Y-150583500D01*
X162244000Y-150686500D01*
X162107000Y-150686500D01*
X162107000Y-150915500D01*
X161981000Y-150915500D01*
X161981000Y-150686500D01*
X161531000Y-150686500D01*
X161531000Y-150612500D01*
X161549740Y-150583500D01*
X161673000Y-150583500D01*
X161981000Y-150583500D01*
X161981000Y-150099500D01*
X161966000Y-150126500D01*
X161673000Y-150583500D01*
X161549740Y-150583500D01*
X161973000Y-149928500D01*
X162107000Y-149928500D01*
X162107000Y-150583500D01*
G37*
G36*
X119242007Y-149928667D02*
G01*
X119295852Y-149932137D01*
X119340803Y-149939188D01*
X119374022Y-149947500D01*
X119401089Y-149956722D01*
X119429737Y-149969487D01*
X119452805Y-149982605D01*
X119476883Y-149999824D01*
X119498606Y-150019187D01*
X119517590Y-150040710D01*
X119531895Y-150061363D01*
X119545605Y-150087047D01*
X119556504Y-150114949D01*
X119565403Y-150148991D01*
X119570325Y-150181608D01*
X119572500Y-150220955D01*
X119571326Y-150253664D01*
X119566732Y-150285914D01*
X119557867Y-150318947D01*
X119546096Y-150347682D01*
X119532279Y-150372539D01*
X119513804Y-150398130D01*
X119492312Y-150421544D01*
X119470202Y-150440845D01*
X119443454Y-150459542D01*
X119413964Y-150475779D01*
X119384522Y-150488500D01*
X119616522Y-150907500D01*
X119616522Y-150915500D01*
X119476522Y-150915500D01*
X119262522Y-150516500D01*
X119030522Y-150516500D01*
X119030522Y-150915500D01*
X118899522Y-150915500D01*
X118899522Y-150409500D01*
X119030522Y-150409500D01*
X119233543Y-150409488D01*
X119273793Y-150406753D01*
X119305247Y-150400601D01*
X119333887Y-150390933D01*
X119357670Y-150378982D01*
X119380920Y-150362576D01*
X119405326Y-150337785D01*
X119423487Y-150309242D01*
X119435385Y-150276964D01*
X119440840Y-150243468D01*
X119440454Y-150200475D01*
X119433928Y-150162547D01*
X119421470Y-150129343D01*
X119412399Y-150113565D01*
X119401642Y-150099132D01*
X119380459Y-150078566D01*
X119354917Y-150061926D01*
X119325413Y-150049329D01*
X119289209Y-150040285D01*
X119263510Y-150036948D01*
X119235913Y-150035548D01*
X119030522Y-150035500D01*
X119030522Y-150409500D01*
X118899522Y-150409500D01*
X118899522Y-150035500D01*
X118899522Y-149928500D01*
X119242007Y-149928667D01*
G37*
G36*
X120081522Y-150742500D02*
G01*
X120364522Y-149928500D01*
X120506522Y-149928500D01*
X120140522Y-150915500D01*
X120025522Y-150915500D01*
X119659522Y-149928500D01*
X119801522Y-149928500D01*
X120081522Y-150742500D01*
G37*
G36*
X120930417Y-149915385D02*
G01*
X120966709Y-149919125D01*
X121000589Y-149925792D01*
X121032056Y-149935385D01*
X121061111Y-149947905D01*
X121087752Y-149963352D01*
X121111982Y-149981725D01*
X121133819Y-150002876D01*
X121152627Y-150026319D01*
X121168272Y-150052016D01*
X121179522Y-150076750D01*
X121187315Y-150099854D01*
X121193877Y-150127928D01*
X121197569Y-150153954D01*
X121199444Y-150185368D01*
X121198691Y-150211682D01*
X121195000Y-150235618D01*
X121188355Y-150259202D01*
X121177825Y-150284354D01*
X121165028Y-150307206D01*
X121149383Y-150329656D01*
X121131524Y-150350281D01*
X121113300Y-150367211D01*
X121091397Y-150383523D01*
X121069467Y-150396500D01*
X121043522Y-150408500D01*
X121086641Y-150425814D01*
X121123749Y-150448508D01*
X121140048Y-150461872D01*
X121154844Y-150476580D01*
X121168138Y-150492633D01*
X121181288Y-150511889D01*
X121191275Y-150530307D01*
X121199482Y-150549752D01*
X121210127Y-150589289D01*
X121214478Y-150635150D01*
X121211952Y-150684594D01*
X121206026Y-150718254D01*
X121196659Y-150749739D01*
X121183851Y-150779048D01*
X121167602Y-150806182D01*
X121147913Y-150831141D01*
X121124791Y-150853918D01*
X121099065Y-150873971D01*
X121071283Y-150890938D01*
X121044861Y-150903430D01*
X121013194Y-150914570D01*
X120979470Y-150922625D01*
X120947767Y-150927196D01*
X120910159Y-150929424D01*
X120871738Y-150928591D01*
X120835272Y-150924750D01*
X120804584Y-150918813D01*
X120772003Y-150909294D01*
X120744769Y-150898310D01*
X120719160Y-150884950D01*
X120695175Y-150869216D01*
X120670169Y-150848766D01*
X120650458Y-150828891D01*
X120633466Y-150807516D01*
X120617600Y-150781676D01*
X120605174Y-150753938D01*
X120596190Y-150724301D01*
X120590242Y-150689145D01*
X120588522Y-150655500D01*
X120714522Y-150655500D01*
X120716962Y-150688094D01*
X120723599Y-150715617D01*
X120735452Y-150742305D01*
X120752187Y-150765930D01*
X120775383Y-150787899D01*
X120800717Y-150804285D01*
X120829305Y-150816173D01*
X120861147Y-150823563D01*
X120896243Y-150826454D01*
X120934135Y-150824848D01*
X120968363Y-150818743D01*
X120996461Y-150809047D01*
X121021010Y-150795473D01*
X121042010Y-150777990D01*
X121059225Y-150756538D01*
X121073334Y-150729652D01*
X121081198Y-150705775D01*
X121086225Y-150679476D01*
X121088475Y-150648022D01*
X121087474Y-150619104D01*
X121083851Y-150594963D01*
X121076876Y-150570664D01*
X121067819Y-150550625D01*
X121054866Y-150530838D01*
X121037165Y-150511947D01*
X121014030Y-150494832D01*
X120989303Y-150482328D01*
X120958866Y-150472353D01*
X120932870Y-150467206D01*
X120901680Y-150464083D01*
X120788522Y-150463500D01*
X120788522Y-150360500D01*
X120891780Y-150360307D01*
X120932928Y-150355940D01*
X120956171Y-150350354D01*
X120979538Y-150341672D01*
X121000600Y-150330331D01*
X121017749Y-150317714D01*
X121035857Y-150300211D01*
X121049417Y-150282250D01*
X121059963Y-150262398D01*
X121068031Y-150238586D01*
X121072513Y-150212523D01*
X121073480Y-150186105D01*
X121071452Y-150155519D01*
X121066384Y-150127992D01*
X121056627Y-150099742D01*
X121042732Y-150075656D01*
X121024697Y-150055732D01*
X121002523Y-150039972D01*
X120976209Y-150028375D01*
X120941069Y-150020219D01*
X120905886Y-150017542D01*
X120868977Y-150019439D01*
X120838052Y-150025865D01*
X120808421Y-150037741D01*
X120782417Y-150054781D01*
X120760038Y-150076484D01*
X120743625Y-150099788D01*
X120731901Y-150126059D01*
X120724867Y-150155296D01*
X120722522Y-150187500D01*
X120597522Y-150187500D01*
X120599203Y-150155123D01*
X120603519Y-150127705D01*
X120610492Y-150101569D01*
X120621511Y-150073696D01*
X120634128Y-150050282D01*
X120651498Y-150025473D01*
X120672229Y-150002285D01*
X120696240Y-149980789D01*
X120722348Y-149962107D01*
X120750275Y-149946511D01*
X120783439Y-149932800D01*
X120815208Y-149923717D01*
X120848795Y-149917718D01*
X120888248Y-149914671D01*
X120930417Y-149915385D01*
G37*
G36*
X119235122Y-108928667D02*
G01*
X119288967Y-108932137D01*
X119333919Y-108939188D01*
X119367137Y-108947500D01*
X119394204Y-108956722D01*
X119422853Y-108969487D01*
X119445921Y-108982605D01*
X119469999Y-108999824D01*
X119491721Y-109019187D01*
X119510706Y-109040710D01*
X119525010Y-109061363D01*
X119538721Y-109087047D01*
X119549619Y-109114949D01*
X119558518Y-109148991D01*
X119563440Y-109181608D01*
X119565615Y-109220955D01*
X119564441Y-109253664D01*
X119559847Y-109285914D01*
X119550983Y-109318947D01*
X119539211Y-109347682D01*
X119525394Y-109372539D01*
X119506920Y-109398130D01*
X119485427Y-109421544D01*
X119463317Y-109440845D01*
X119436569Y-109459542D01*
X119407079Y-109475779D01*
X119377637Y-109488500D01*
X119609637Y-109907500D01*
X119609637Y-109915500D01*
X119469637Y-109915500D01*
X119255637Y-109516500D01*
X119023637Y-109516500D01*
X119023637Y-109915500D01*
X118892637Y-109915500D01*
X118892637Y-109409500D01*
X119023637Y-109409500D01*
X119226659Y-109409488D01*
X119266909Y-109406753D01*
X119298362Y-109400601D01*
X119327003Y-109390933D01*
X119350786Y-109378982D01*
X119374036Y-109362576D01*
X119398442Y-109337785D01*
X119416602Y-109309242D01*
X119428500Y-109276964D01*
X119433955Y-109243468D01*
X119433569Y-109200475D01*
X119427044Y-109162547D01*
X119414585Y-109129343D01*
X119405515Y-109113565D01*
X119394757Y-109099132D01*
X119373575Y-109078566D01*
X119348032Y-109061926D01*
X119318528Y-109049329D01*
X119282325Y-109040285D01*
X119256626Y-109036948D01*
X119229028Y-109035548D01*
X119023637Y-109035500D01*
X119023637Y-109409500D01*
X118892637Y-109409500D01*
X118892637Y-109035500D01*
X118892637Y-108928500D01*
X119235122Y-108928667D01*
G37*
G36*
X120074637Y-109742500D02*
G01*
X120357637Y-108928500D01*
X120499637Y-108928500D01*
X120133637Y-109915500D01*
X120018637Y-109915500D01*
X119652637Y-108928500D01*
X119794637Y-108928500D01*
X120074637Y-109742500D01*
G37*
G36*
X120962168Y-108917993D02*
G01*
X121012008Y-108928473D01*
X121050997Y-108943016D01*
X121089346Y-108964563D01*
X121121118Y-108989825D01*
X121149809Y-109022268D01*
X121171899Y-109058836D01*
X121186430Y-109096254D01*
X121195337Y-109137188D01*
X121198637Y-109185500D01*
X121196200Y-109221500D01*
X121189487Y-109253434D01*
X121177604Y-109285559D01*
X121160847Y-109315684D01*
X121139818Y-109342900D01*
X121115287Y-109367088D01*
X121087255Y-109388275D01*
X121053637Y-109407500D01*
X121083963Y-109422185D01*
X121109539Y-109438011D01*
X121132795Y-109456017D01*
X121153731Y-109476203D01*
X121173793Y-109500530D01*
X121189601Y-109524891D01*
X121202257Y-109550391D01*
X121211750Y-109577016D01*
X121218462Y-109607129D01*
X121221363Y-109636098D01*
X121221106Y-109668333D01*
X121217474Y-109702401D01*
X121211357Y-109730925D01*
X121201225Y-109761034D01*
X121189331Y-109786038D01*
X121172700Y-109812188D01*
X121155028Y-109833672D01*
X121131936Y-109855856D01*
X121109362Y-109873372D01*
X121085069Y-109888513D01*
X121055685Y-109902707D01*
X121027740Y-109912801D01*
X120998076Y-109920520D01*
X120966693Y-109925863D01*
X120929333Y-109929036D01*
X120890106Y-109929199D01*
X120852260Y-109926323D01*
X120820479Y-109921210D01*
X120790448Y-109913690D01*
X120758755Y-109902354D01*
X120729276Y-109887973D01*
X120702012Y-109870547D01*
X120676971Y-109850112D01*
X120657151Y-109830097D01*
X120638065Y-109805637D01*
X120623956Y-109782168D01*
X120612534Y-109757074D01*
X120602897Y-109726901D01*
X120597186Y-109698354D01*
X120593973Y-109664297D01*
X120594298Y-109646500D01*
X120718637Y-109646500D01*
X120721762Y-109686250D01*
X120731137Y-109721500D01*
X120746762Y-109752250D01*
X120768637Y-109778500D01*
X120796075Y-109799500D01*
X120828387Y-109814500D01*
X120865575Y-109823500D01*
X120907637Y-109826500D01*
X120949262Y-109823500D01*
X120986137Y-109814500D01*
X121018262Y-109799500D01*
X121045637Y-109778500D01*
X121067512Y-109751875D01*
X121083137Y-109721000D01*
X121092512Y-109685875D01*
X121095637Y-109646500D01*
X121092387Y-109606938D01*
X121082637Y-109571250D01*
X121066387Y-109539438D01*
X121043637Y-109511500D01*
X121015200Y-109488750D01*
X120982887Y-109472500D01*
X120946700Y-109462750D01*
X120906637Y-109459500D01*
X120866262Y-109462688D01*
X120830137Y-109472250D01*
X120798262Y-109488188D01*
X120770637Y-109510500D01*
X120747887Y-109538500D01*
X120731637Y-109570500D01*
X120721887Y-109606500D01*
X120718637Y-109646500D01*
X120594298Y-109646500D01*
X120594712Y-109623891D01*
X120601468Y-109583848D01*
X120614434Y-109546063D01*
X120632309Y-109512563D01*
X120656550Y-109479738D01*
X120685640Y-109451092D01*
X120719669Y-109426679D01*
X120758637Y-109406500D01*
X120732980Y-109392427D01*
X120711347Y-109377533D01*
X120690133Y-109359334D01*
X120672602Y-109340631D01*
X120657040Y-109320100D01*
X120642697Y-109296404D01*
X120632233Y-109273336D01*
X120623911Y-109246996D01*
X120618725Y-109219254D01*
X120616674Y-109190108D01*
X120616752Y-109187500D01*
X120741637Y-109187500D01*
X120744512Y-109223625D01*
X120753137Y-109256000D01*
X120767512Y-109284625D01*
X120789051Y-109310957D01*
X120813660Y-109331153D01*
X120842020Y-109345473D01*
X120874129Y-109353918D01*
X120907637Y-109356500D01*
X120943262Y-109353563D01*
X120975137Y-109344750D01*
X121003262Y-109330063D01*
X121026224Y-109310957D01*
X121047325Y-109284625D01*
X121061387Y-109256000D01*
X121069825Y-109223625D01*
X121072637Y-109187500D01*
X121069762Y-109151750D01*
X121061137Y-109119500D01*
X121046762Y-109090750D01*
X121026637Y-109065500D01*
X121001575Y-109044500D01*
X120973387Y-109029500D01*
X120942075Y-109020500D01*
X120907637Y-109017500D01*
X120872387Y-109020375D01*
X120840637Y-109029000D01*
X120812387Y-109043375D01*
X120786211Y-109064945D01*
X120766445Y-109090195D01*
X120753137Y-109117500D01*
X120744512Y-109150500D01*
X120741637Y-109187500D01*
X120616752Y-109187500D01*
X120617594Y-109158973D01*
X120621637Y-109126625D01*
X120628844Y-109096254D01*
X120637907Y-109070918D01*
X120649469Y-109047145D01*
X120663532Y-109024934D01*
X120691715Y-108992174D01*
X120725644Y-108964563D01*
X120763809Y-108943016D01*
X120806183Y-108927492D01*
X120856523Y-108917512D01*
X120911688Y-108914518D01*
X120962168Y-108917993D01*
G37*
G36*
X200846485Y-108928667D02*
G01*
X200900330Y-108932137D01*
X200945281Y-108939188D01*
X200978500Y-108947500D01*
X201005567Y-108956722D01*
X201034215Y-108969487D01*
X201057283Y-108982605D01*
X201081361Y-108999824D01*
X201103084Y-109019187D01*
X201122068Y-109040710D01*
X201136373Y-109061363D01*
X201150083Y-109087047D01*
X201160982Y-109114949D01*
X201169881Y-109148991D01*
X201174803Y-109181608D01*
X201176978Y-109220955D01*
X201175804Y-109253664D01*
X201171210Y-109285914D01*
X201162345Y-109318947D01*
X201150574Y-109347682D01*
X201136757Y-109372539D01*
X201118282Y-109398130D01*
X201096790Y-109421544D01*
X201074680Y-109440845D01*
X201047932Y-109459542D01*
X201018442Y-109475779D01*
X200989000Y-109488500D01*
X201221000Y-109907500D01*
X201221000Y-109915500D01*
X201081000Y-109915500D01*
X200867000Y-109516500D01*
X200635000Y-109516500D01*
X200635000Y-109915500D01*
X200504000Y-109915500D01*
X200504000Y-109409500D01*
X200635000Y-109409500D01*
X200838021Y-109409488D01*
X200878271Y-109406753D01*
X200909725Y-109400601D01*
X200938365Y-109390933D01*
X200962148Y-109378982D01*
X200985398Y-109362576D01*
X201009804Y-109337785D01*
X201027965Y-109309242D01*
X201039863Y-109276964D01*
X201045318Y-109243468D01*
X201044932Y-109200475D01*
X201038406Y-109162547D01*
X201025948Y-109129343D01*
X201016877Y-109113565D01*
X201006120Y-109099132D01*
X200984938Y-109078566D01*
X200959395Y-109061926D01*
X200929891Y-109049329D01*
X200893688Y-109040285D01*
X200867988Y-109036948D01*
X200840391Y-109035548D01*
X200635000Y-109035500D01*
X200635000Y-109409500D01*
X200504000Y-109409500D01*
X200504000Y-109035500D01*
X200504000Y-108928500D01*
X200846485Y-108928667D01*
G37*
G36*
X201686000Y-109742500D02*
G01*
X201969000Y-108928500D01*
X202111000Y-108928500D01*
X201745000Y-109915500D01*
X201630000Y-109915500D01*
X201264000Y-108928500D01*
X201406000Y-108928500D01*
X201686000Y-109742500D01*
G37*
G36*
X202623000Y-109915500D02*
G01*
X202497000Y-109915500D01*
X202497000Y-109079500D01*
X202244000Y-109172500D01*
X202244000Y-109058500D01*
X202604000Y-108923500D01*
X202623000Y-108923500D01*
X202623000Y-109915500D01*
G37*
G36*
X203322481Y-108915123D02*
G01*
X203355012Y-108918086D01*
X203385509Y-108923490D01*
X203413972Y-108931334D01*
X203440401Y-108941619D01*
X203461436Y-108952376D01*
X203484089Y-108967193D01*
X203504708Y-108984451D01*
X203533000Y-109016500D01*
X203546421Y-109036601D01*
X203558559Y-109058652D01*
X203578984Y-109108609D01*
X203594277Y-109166371D01*
X203603101Y-109220468D01*
X203608689Y-109286234D01*
X203610000Y-109331500D01*
X203610000Y-109494500D01*
X203607784Y-109566787D01*
X203601138Y-109632397D01*
X203591250Y-109686250D01*
X203576144Y-109739115D01*
X203556606Y-109785304D01*
X203535000Y-109821500D01*
X203509487Y-109852613D01*
X203495175Y-109866192D01*
X203476630Y-109880747D01*
X203456591Y-109893403D01*
X203435057Y-109904161D01*
X203412030Y-109913021D01*
X203387509Y-109919981D01*
X203361493Y-109925044D01*
X203333983Y-109928208D01*
X203304979Y-109929474D01*
X203271096Y-109928577D01*
X203243633Y-109925809D01*
X203217611Y-109921194D01*
X203173649Y-109907941D01*
X203151711Y-109898097D01*
X203131215Y-109886408D01*
X203112161Y-109872873D01*
X203094547Y-109857492D01*
X203070830Y-109830960D01*
X203050248Y-109800299D01*
X203032563Y-109765563D01*
X203016298Y-109722188D01*
X203004707Y-109678852D01*
X202995215Y-109625922D01*
X202989720Y-109573985D01*
X202987131Y-109514500D01*
X202987000Y-109511500D01*
X202987829Y-109313500D01*
X203112000Y-109313500D01*
X203112000Y-109514500D01*
X203114938Y-109589250D01*
X203119757Y-109630637D01*
X203126056Y-109664378D01*
X203135236Y-109697972D01*
X203146711Y-109727464D01*
X203160449Y-109752856D01*
X203176260Y-109774380D01*
X203194463Y-109792192D01*
X203215059Y-109806294D01*
X203242932Y-109818317D01*
X203277016Y-109825313D01*
X203314238Y-109826061D01*
X203348516Y-109820805D01*
X203378832Y-109809607D01*
X203403301Y-109793998D01*
X203424395Y-109773326D01*
X203442124Y-109747570D01*
X203455630Y-109719076D01*
X203466595Y-109685738D01*
X203475020Y-109647555D01*
X203480904Y-109604527D01*
X203485000Y-109528500D01*
X203485000Y-109322500D01*
X203483418Y-109265898D01*
X203479188Y-109219326D01*
X203472300Y-109177834D01*
X203462753Y-109141423D01*
X203450547Y-109110094D01*
X203435667Y-109083817D01*
X203417824Y-109062056D01*
X203396909Y-109044608D01*
X203382000Y-109035750D01*
X203365847Y-109028639D01*
X203332547Y-109020066D01*
X203292051Y-109017571D01*
X203253250Y-109022063D01*
X203223953Y-109031473D01*
X203196341Y-109047459D01*
X203173020Y-109069470D01*
X203153967Y-109097424D01*
X203139682Y-109128590D01*
X203128350Y-109165310D01*
X203119971Y-109207586D01*
X203114545Y-109255416D01*
X203112000Y-109313500D01*
X202987829Y-109313500D01*
X202987897Y-109297359D01*
X202992292Y-109236051D01*
X203000348Y-109180162D01*
X203014850Y-109120250D01*
X203032776Y-109072187D01*
X203044422Y-109048734D01*
X203057386Y-109027233D01*
X203085036Y-108992784D01*
X203102239Y-108976635D01*
X203124176Y-108960150D01*
X203148122Y-108946202D01*
X203174078Y-108934789D01*
X203202044Y-108925913D01*
X203227614Y-108920323D01*
X203254661Y-108916596D01*
X203288082Y-108914604D01*
X203322481Y-108915123D01*
G37*
G36*
X59732604Y-45046642D02*
G01*
X59765244Y-45050937D01*
X59793789Y-45056840D01*
X59821260Y-45064647D01*
X59870460Y-45084757D01*
X59894122Y-45098107D01*
X59918177Y-45114427D01*
X59940163Y-45132460D01*
X59960082Y-45152207D01*
X59976396Y-45171646D01*
X59992364Y-45194659D01*
X60005953Y-45218832D01*
X60016051Y-45241474D01*
X60024677Y-45267113D01*
X60030263Y-45291087D01*
X60033926Y-45318192D01*
X60035000Y-45343500D01*
X59904000Y-45343500D01*
X59900437Y-45301312D01*
X59895984Y-45281953D01*
X59888845Y-45261556D01*
X59880607Y-45244654D01*
X59869210Y-45227021D01*
X59857187Y-45212575D01*
X59843392Y-45199362D01*
X59828040Y-45187808D01*
X59811220Y-45177847D01*
X59792931Y-45169479D01*
X59773173Y-45162706D01*
X59729251Y-45153940D01*
X59680041Y-45151542D01*
X59630102Y-45155699D01*
X59607624Y-45160329D01*
X59586807Y-45166659D01*
X59567651Y-45174690D01*
X59550156Y-45184422D01*
X59532678Y-45197157D01*
X59519033Y-45209912D01*
X59507523Y-45223973D01*
X59498150Y-45239338D01*
X59490912Y-45256009D01*
X59485810Y-45273985D01*
X59482646Y-45295489D01*
X59482112Y-45317175D01*
X59484104Y-45335456D01*
X59488587Y-45352761D01*
X59499979Y-45376887D01*
X59516975Y-45398815D01*
X59539660Y-45418723D01*
X59569715Y-45437821D01*
X59602250Y-45453750D01*
X59640809Y-45469102D01*
X59772916Y-45510258D01*
X59840656Y-45536125D01*
X59874686Y-45552299D01*
X59904339Y-45569138D01*
X59932687Y-45588312D01*
X59955841Y-45607232D01*
X59978762Y-45630395D01*
X59997618Y-45654986D01*
X60012795Y-45681464D01*
X60024375Y-45710149D01*
X60032219Y-45740922D01*
X60036328Y-45773782D01*
X60036633Y-45809312D01*
X60033122Y-45841270D01*
X60024860Y-45874551D01*
X60010471Y-45908453D01*
X59990528Y-45939520D01*
X59967579Y-45965301D01*
X59937125Y-45990991D01*
X59902578Y-46013144D01*
X59864250Y-46030984D01*
X59822141Y-46044511D01*
X59776250Y-46053726D01*
X59726578Y-46058627D01*
X59670855Y-46059033D01*
X59621496Y-46054463D01*
X59576811Y-46045751D01*
X59530842Y-46031735D01*
X59486852Y-46012933D01*
X59449557Y-45991784D01*
X59418713Y-45969171D01*
X59393500Y-45945687D01*
X59371588Y-45919811D01*
X59351918Y-45889593D01*
X59337750Y-45859969D01*
X59327543Y-45828859D01*
X59321297Y-45796264D01*
X59319000Y-45759500D01*
X59450000Y-45759500D01*
X59452723Y-45794130D01*
X59460893Y-45825706D01*
X59474508Y-45854229D01*
X59493570Y-45879699D01*
X59518073Y-45902112D01*
X59549409Y-45922019D01*
X59582363Y-45936047D01*
X59619031Y-45945784D01*
X59662671Y-45951472D01*
X59708801Y-45952244D01*
X59749926Y-45948798D01*
X59788891Y-45940646D01*
X59820500Y-45928875D01*
X59847516Y-45913084D01*
X59869691Y-45893660D01*
X59887617Y-45869545D01*
X59896211Y-45851576D01*
X59902562Y-45830062D01*
X59905664Y-45806717D01*
X59905552Y-45782281D01*
X59902402Y-45759508D01*
X59896923Y-45740445D01*
X59888021Y-45721281D01*
X59876105Y-45704008D01*
X59862657Y-45689945D01*
X59848305Y-45678625D01*
X59805219Y-45654250D01*
X59746117Y-45629875D01*
X59671000Y-45605500D01*
X59588241Y-45578448D01*
X59549684Y-45562869D01*
X59514765Y-45546420D01*
X59483484Y-45529102D01*
X59455843Y-45510913D01*
X59434327Y-45494014D01*
X59413239Y-45473906D01*
X59395136Y-45452461D01*
X59380078Y-45429750D01*
X59368066Y-45405773D01*
X59359099Y-45380531D01*
X59353177Y-45354023D01*
X59350301Y-45326250D01*
X59350574Y-45295613D01*
X59353878Y-45267984D01*
X59360121Y-45241574D01*
X59369300Y-45216383D01*
X59381417Y-45192410D01*
X59398561Y-45166897D01*
X59416920Y-45145515D01*
X59441085Y-45122916D01*
X59465014Y-45104784D01*
X59494000Y-45087250D01*
X59521625Y-45074187D01*
X59551000Y-45063500D01*
X59586139Y-45054315D01*
X59619232Y-45048675D01*
X59658555Y-45045168D01*
X59695514Y-45044586D01*
X59732604Y-45046642D01*
G37*
G36*
X60417000Y-45734500D02*
G01*
X60436000Y-45864500D01*
X60463000Y-45747500D01*
X60659000Y-45058500D01*
X60769000Y-45058500D01*
X60959000Y-45747500D01*
X60986000Y-45866500D01*
X61007000Y-45733500D01*
X61161000Y-45058500D01*
X61291000Y-45058500D01*
X61052000Y-46045500D01*
X60933000Y-46045500D01*
X60730000Y-45325500D01*
X60714000Y-45250500D01*
X60699000Y-45325500D01*
X60488000Y-46045500D01*
X60369000Y-46045500D01*
X60130000Y-45058500D01*
X60261000Y-45058500D01*
X60417000Y-45734500D01*
G37*
G36*
X61815000Y-46045500D02*
G01*
X61689000Y-46045500D01*
X61689000Y-45209500D01*
X61436000Y-45302500D01*
X61436000Y-45188500D01*
X61796000Y-45053500D01*
X61815000Y-45053500D01*
X61815000Y-46045500D01*
G37*
G36*
X211428652Y-116236428D02*
G01*
X211433722Y-116285889D01*
X211439023Y-116308416D01*
X211446167Y-116329475D01*
X211460341Y-116358309D01*
X211478663Y-116383838D01*
X211499024Y-116404044D01*
X211524665Y-116422021D01*
X211553821Y-116435849D01*
X211583636Y-116444880D01*
X211616405Y-116450426D01*
X211655522Y-116452500D01*
X211692113Y-116450757D01*
X211728458Y-116444880D01*
X211761077Y-116434855D01*
X211787705Y-116422021D01*
X211813181Y-116404044D01*
X211835066Y-116382016D01*
X211853042Y-116356516D01*
X211865877Y-116330176D01*
X211873021Y-116309238D01*
X211878322Y-116286801D01*
X211883392Y-116237426D01*
X211883522Y-115558500D01*
X212014522Y-115558500D01*
X212013841Y-116251064D01*
X212009329Y-116292323D01*
X212000618Y-116331093D01*
X211987708Y-116367372D01*
X211970599Y-116401161D01*
X211951610Y-116429442D01*
X211929220Y-116455706D01*
X211906749Y-116476829D01*
X211879147Y-116497688D01*
X211849093Y-116515501D01*
X211820319Y-116528778D01*
X211785633Y-116540839D01*
X211752743Y-116549003D01*
X211708905Y-116555824D01*
X211655522Y-116559500D01*
X211620874Y-116558447D01*
X211587805Y-116555289D01*
X211547608Y-116548135D01*
X211510022Y-116537500D01*
X211478803Y-116525125D01*
X211446147Y-116507916D01*
X211419312Y-116489697D01*
X211391553Y-116465997D01*
X211369553Y-116442677D01*
X211350553Y-116417263D01*
X211334553Y-116389755D01*
X211321553Y-116360153D01*
X211311553Y-116328458D01*
X211304553Y-116294669D01*
X211300889Y-116263386D01*
X211299522Y-116230500D01*
X211299522Y-115558500D01*
X211428522Y-115558500D01*
X211428652Y-116236428D01*
G37*
G36*
X212511417Y-115545385D02*
G01*
X212547709Y-115549125D01*
X212581589Y-115555792D01*
X212613056Y-115565385D01*
X212642111Y-115577905D01*
X212668752Y-115593352D01*
X212692982Y-115611725D01*
X212714819Y-115632876D01*
X212733627Y-115656319D01*
X212749272Y-115682016D01*
X212760522Y-115706750D01*
X212768315Y-115729854D01*
X212774877Y-115757928D01*
X212778569Y-115783954D01*
X212780444Y-115815368D01*
X212779691Y-115841682D01*
X212776000Y-115865618D01*
X212769355Y-115889202D01*
X212758825Y-115914354D01*
X212746028Y-115937206D01*
X212730383Y-115959656D01*
X212712524Y-115980281D01*
X212694300Y-115997211D01*
X212672397Y-116013523D01*
X212650467Y-116026500D01*
X212624522Y-116038500D01*
X212667641Y-116055814D01*
X212704749Y-116078508D01*
X212721048Y-116091872D01*
X212735844Y-116106580D01*
X212749138Y-116122633D01*
X212762288Y-116141889D01*
X212772275Y-116160307D01*
X212780482Y-116179752D01*
X212791127Y-116219289D01*
X212795478Y-116265150D01*
X212792952Y-116314594D01*
X212787026Y-116348254D01*
X212777659Y-116379739D01*
X212764851Y-116409048D01*
X212748602Y-116436182D01*
X212728913Y-116461141D01*
X212705791Y-116483918D01*
X212680065Y-116503971D01*
X212652283Y-116520938D01*
X212622444Y-116534820D01*
X212594194Y-116544570D01*
X212560470Y-116552625D01*
X212528767Y-116557196D01*
X212491159Y-116559424D01*
X212452738Y-116558591D01*
X212416272Y-116554750D01*
X212385584Y-116548813D01*
X212353003Y-116539294D01*
X212325769Y-116528310D01*
X212300160Y-116514950D01*
X212276175Y-116499216D01*
X212251169Y-116478766D01*
X212231458Y-116458891D01*
X212214466Y-116437516D01*
X212198600Y-116411676D01*
X212186174Y-116383938D01*
X212176404Y-116350891D01*
X212171242Y-116319145D01*
X212169522Y-116285500D01*
X212295522Y-116285500D01*
X212297962Y-116318094D01*
X212304599Y-116345617D01*
X212316452Y-116372305D01*
X212333187Y-116395930D01*
X212356383Y-116417899D01*
X212381717Y-116434285D01*
X212410305Y-116446173D01*
X212442147Y-116453563D01*
X212477243Y-116456454D01*
X212515135Y-116454848D01*
X212547054Y-116449328D01*
X212577461Y-116439047D01*
X212602010Y-116425473D01*
X212623010Y-116407990D01*
X212641385Y-116384748D01*
X212654334Y-116359652D01*
X212662198Y-116335775D01*
X212667225Y-116309476D01*
X212669475Y-116278022D01*
X212668474Y-116249104D01*
X212664851Y-116224963D01*
X212657876Y-116200664D01*
X212647771Y-116178729D01*
X212635866Y-116160838D01*
X212618165Y-116141947D01*
X212595030Y-116124832D01*
X212570303Y-116112328D01*
X212539866Y-116102353D01*
X212511147Y-116096813D01*
X212482680Y-116094083D01*
X212369522Y-116093500D01*
X212369522Y-115990500D01*
X212472780Y-115990307D01*
X212513928Y-115985940D01*
X212537171Y-115980354D01*
X212560538Y-115971672D01*
X212581600Y-115960331D01*
X212598749Y-115947714D01*
X212616857Y-115930211D01*
X212630417Y-115912250D01*
X212640963Y-115892398D01*
X212649031Y-115868586D01*
X212653513Y-115842523D01*
X212654480Y-115816105D01*
X212652452Y-115785519D01*
X212647384Y-115757992D01*
X212637627Y-115729742D01*
X212623732Y-115705656D01*
X212605697Y-115685732D01*
X212583523Y-115669972D01*
X212557209Y-115658375D01*
X212522069Y-115650219D01*
X212486886Y-115647542D01*
X212449977Y-115649439D01*
X212419052Y-115655865D01*
X212389421Y-115667741D01*
X212363417Y-115684781D01*
X212341038Y-115706484D01*
X212324625Y-115729788D01*
X212312901Y-115756059D01*
X212305867Y-115785296D01*
X212303522Y-115817500D01*
X212178522Y-115817500D01*
X212180203Y-115785123D01*
X212184519Y-115757705D01*
X212191492Y-115731569D01*
X212202511Y-115703696D01*
X212216892Y-115677446D01*
X212232498Y-115655473D01*
X212253229Y-115632285D01*
X212277240Y-115610789D01*
X212303348Y-115592107D01*
X212331275Y-115576511D01*
X212364439Y-115562800D01*
X212396208Y-115553717D01*
X212429795Y-115547718D01*
X212469248Y-115544671D01*
X212511417Y-115545385D01*
G37*
G36*
X28911417Y-167266314D02*
G01*
X28906831Y-167320657D01*
X28896372Y-167366278D01*
X28886079Y-167394270D01*
X28873130Y-167420325D01*
X28857524Y-167444442D01*
X28839262Y-167466622D01*
X28818406Y-167486824D01*
X28795597Y-167504637D01*
X28771008Y-167519949D01*
X28744636Y-167532762D01*
X28716484Y-167543074D01*
X28686551Y-167550887D01*
X28654836Y-167556199D01*
X28617027Y-167559188D01*
X28576928Y-167559036D01*
X28542463Y-167556364D01*
X28510030Y-167551317D01*
X28475970Y-167542801D01*
X28434556Y-167526770D01*
X28397712Y-167505395D01*
X28362993Y-167476335D01*
X28336567Y-167444993D01*
X28325516Y-167427714D01*
X28314445Y-167406199D01*
X28300031Y-167365922D01*
X28291383Y-167321355D01*
X28288500Y-167272500D01*
X28418500Y-167272500D01*
X28420439Y-167305505D01*
X28426257Y-167335456D01*
X28435953Y-167362354D01*
X28450732Y-167387907D01*
X28468416Y-167408392D01*
X28489370Y-167424949D01*
X28513789Y-167437629D01*
X28541674Y-167446430D01*
X28570491Y-167451112D01*
X28604532Y-167452450D01*
X28635766Y-167449698D01*
X28662326Y-167443423D01*
X28688641Y-167432578D01*
X28710660Y-167418832D01*
X28730500Y-167401500D01*
X28747492Y-167380969D01*
X28760969Y-167357625D01*
X28770930Y-167331469D01*
X28777375Y-167302500D01*
X28780195Y-167273475D01*
X28780500Y-166558500D01*
X28911500Y-166558500D01*
X28911417Y-167266314D01*
G37*
G36*
X29438094Y-166545625D02*
G01*
X29481326Y-166550846D01*
X29521131Y-166560320D01*
X29557509Y-166574049D01*
X29587607Y-166590221D01*
X29617443Y-166612070D01*
X29643418Y-166637719D01*
X29664687Y-166666285D01*
X29679922Y-166694767D01*
X29692168Y-166728860D01*
X29699199Y-166762365D01*
X29702422Y-166801985D01*
X29701773Y-166827848D01*
X29697959Y-166856204D01*
X29690875Y-166885563D01*
X29680521Y-166915923D01*
X29666898Y-166947285D01*
X29653048Y-166974186D01*
X29633431Y-167007385D01*
X29610544Y-167041586D01*
X29574943Y-167088746D01*
X29533529Y-167137688D01*
X29251500Y-167443500D01*
X29747500Y-167443500D01*
X29747500Y-167545500D01*
X29100500Y-167545500D01*
X29100500Y-167455500D01*
X29442500Y-167075500D01*
X29492891Y-167015500D01*
X29526139Y-166970383D01*
X29549223Y-166932121D01*
X29564563Y-166894438D01*
X29573285Y-166855809D01*
X29575320Y-166813984D01*
X29570064Y-166773871D01*
X29564708Y-166755476D01*
X29557531Y-166738188D01*
X29548536Y-166722007D01*
X29537721Y-166706934D01*
X29525026Y-166692922D01*
X29510785Y-166680508D01*
X29497098Y-166671133D01*
X29480541Y-166662454D01*
X29462759Y-166655752D01*
X29445923Y-166651455D01*
X29406930Y-166647512D01*
X29360125Y-166650813D01*
X29321000Y-166660750D01*
X29303406Y-166668203D01*
X29287125Y-166677313D01*
X29272156Y-166688078D01*
X29258500Y-166700500D01*
X29246547Y-166714641D01*
X29236187Y-166730063D01*
X29220250Y-166764750D01*
X29210687Y-166804562D01*
X29207500Y-166849500D01*
X29081500Y-166849500D01*
X29084100Y-166803972D01*
X29090975Y-166765300D01*
X29102146Y-166729216D01*
X29119398Y-166692513D01*
X29139594Y-166661863D01*
X29166771Y-166631138D01*
X29198440Y-166604301D01*
X29230262Y-166584203D01*
X29264964Y-166568207D01*
X29302547Y-166556312D01*
X29347216Y-166547966D01*
X29390848Y-166544685D01*
X29438094Y-166545625D01*
G37*
G36*
X229784028Y-115994050D02*
G01*
X229831360Y-116007327D01*
X229874498Y-116025331D01*
X229916774Y-116050362D01*
X229951141Y-116078248D01*
X229983914Y-116113873D01*
X230011126Y-116153998D01*
X230030757Y-116194732D01*
X230046378Y-116243482D01*
X230056478Y-116301373D01*
X230059471Y-116364950D01*
X230055779Y-116417616D01*
X230045936Y-116466913D01*
X230038707Y-116490298D01*
X230028002Y-116517248D01*
X230005238Y-116559470D01*
X229976323Y-116598322D01*
X229945038Y-116630409D01*
X229909309Y-116659263D01*
X229874700Y-116681412D01*
X229832552Y-116702407D01*
X229787003Y-116719249D01*
X229738052Y-116731938D01*
X229691685Y-116739731D01*
X229636309Y-116744577D01*
X229464604Y-116744531D01*
X229412096Y-116739710D01*
X229358503Y-116729997D01*
X229304479Y-116714385D01*
X229254049Y-116693398D01*
X229208639Y-116667577D01*
X229168502Y-116637251D01*
X229131502Y-116599939D01*
X229100502Y-116557501D01*
X229076002Y-116510689D01*
X229059390Y-116463510D01*
X229048453Y-116409674D01*
X229044515Y-116352213D01*
X229047595Y-116291806D01*
X229052257Y-116260747D01*
X229057929Y-116235306D01*
X229073913Y-116187692D01*
X229094001Y-116147876D01*
X229121844Y-116108619D01*
X229155547Y-116073986D01*
X229194043Y-116044841D01*
X229237250Y-116021251D01*
X229285168Y-116003216D01*
X229337797Y-115990735D01*
X229375500Y-115985500D01*
X229375500Y-116116500D01*
X229330245Y-116125057D01*
X229290353Y-116136915D01*
X229255825Y-116152073D01*
X229224640Y-116172089D01*
X229199648Y-116195852D01*
X229181313Y-116221376D01*
X229166459Y-116253109D01*
X229157207Y-116286516D01*
X229152549Y-116320723D01*
X229151703Y-116360101D01*
X229154736Y-116393478D01*
X229161407Y-116424719D01*
X229171717Y-116453823D01*
X229185665Y-116480793D01*
X229205431Y-116508254D01*
X229227061Y-116530714D01*
X229258503Y-116555011D01*
X229294815Y-116575126D01*
X229335675Y-116591105D01*
X229381085Y-116602948D01*
X229426315Y-116610125D01*
X229470236Y-116613663D01*
X229626256Y-116614091D01*
X229668782Y-116611293D01*
X229712971Y-116605077D01*
X229753938Y-116595590D01*
X229788052Y-116584254D01*
X229822896Y-116568551D01*
X229851500Y-116551621D01*
X229879768Y-116529905D01*
X229901268Y-116508095D01*
X229919011Y-116484149D01*
X229932996Y-116458067D01*
X229943224Y-116429850D01*
X229949695Y-116399497D01*
X229952409Y-116367008D01*
X229951305Y-116326969D01*
X229946711Y-116291157D01*
X229938672Y-116258860D01*
X229927187Y-116230079D01*
X229912258Y-116204813D01*
X229893672Y-116182966D01*
X229872319Y-116165438D01*
X229844106Y-116148944D01*
X229813735Y-116136233D01*
X229775684Y-116124995D01*
X229732500Y-116116499D01*
X229732500Y-115985499D01*
X229784028Y-115994050D01*
G37*
G36*
X229816497Y-115310499D02*
G01*
X230045497Y-115310498D01*
X230045498Y-115436498D01*
X229816498Y-115436499D01*
X229816500Y-115886499D01*
X229742500Y-115886499D01*
X229058498Y-115444502D01*
X229058498Y-115436501D01*
X229229498Y-115436501D01*
X229256498Y-115451501D01*
X229713499Y-115744499D01*
X229713498Y-115436499D01*
X229229498Y-115436501D01*
X229058498Y-115436501D01*
X229058497Y-115310502D01*
X229713497Y-115310499D01*
X229713497Y-115173499D01*
X229816497Y-115173499D01*
X229816497Y-115310499D01*
G37*
G36*
X89784027Y-131366550D02*
G01*
X89831360Y-131379827D01*
X89874498Y-131397831D01*
X89916773Y-131422862D01*
X89951140Y-131450748D01*
X89983914Y-131486373D01*
X90011125Y-131526498D01*
X90030757Y-131567232D01*
X90046378Y-131615982D01*
X90056477Y-131673873D01*
X90059470Y-131737450D01*
X90055779Y-131790116D01*
X90045935Y-131839413D01*
X90038706Y-131862798D01*
X90028001Y-131889748D01*
X90005238Y-131931970D01*
X89976322Y-131970822D01*
X89945037Y-132002909D01*
X89909309Y-132031763D01*
X89874699Y-132053912D01*
X89832551Y-132074907D01*
X89787002Y-132091749D01*
X89738052Y-132104438D01*
X89691684Y-132112231D01*
X89636309Y-132117077D01*
X89464604Y-132117031D01*
X89412096Y-132112210D01*
X89358502Y-132102497D01*
X89304479Y-132086885D01*
X89254049Y-132065898D01*
X89208639Y-132040077D01*
X89168502Y-132009751D01*
X89131502Y-131972439D01*
X89100502Y-131930001D01*
X89076001Y-131883189D01*
X89059390Y-131836010D01*
X89048452Y-131782174D01*
X89044514Y-131724713D01*
X89047594Y-131664306D01*
X89052256Y-131633247D01*
X89057928Y-131607806D01*
X89073912Y-131560192D01*
X89094000Y-131520376D01*
X89121844Y-131481119D01*
X89155547Y-131446486D01*
X89194043Y-131417341D01*
X89237250Y-131393751D01*
X89285168Y-131375716D01*
X89337796Y-131363235D01*
X89375499Y-131358000D01*
X89375500Y-131489000D01*
X89330244Y-131497557D01*
X89290353Y-131509415D01*
X89255825Y-131524573D01*
X89224639Y-131544589D01*
X89199648Y-131568352D01*
X89181313Y-131593876D01*
X89166458Y-131625609D01*
X89157207Y-131659016D01*
X89152549Y-131693223D01*
X89151703Y-131732601D01*
X89154735Y-131765978D01*
X89161406Y-131797219D01*
X89171716Y-131826323D01*
X89185664Y-131853293D01*
X89205430Y-131880754D01*
X89227060Y-131903214D01*
X89258503Y-131927511D01*
X89294814Y-131947626D01*
X89335675Y-131963605D01*
X89381085Y-131975448D01*
X89426314Y-131982625D01*
X89470235Y-131986163D01*
X89626255Y-131986591D01*
X89668781Y-131983793D01*
X89712971Y-131977577D01*
X89753937Y-131968090D01*
X89788052Y-131956754D01*
X89822896Y-131941051D01*
X89851500Y-131924121D01*
X89879767Y-131902405D01*
X89901267Y-131880595D01*
X89919010Y-131856649D01*
X89932996Y-131830567D01*
X89943224Y-131802350D01*
X89949695Y-131771997D01*
X89952408Y-131739508D01*
X89951304Y-131699469D01*
X89946711Y-131663657D01*
X89938671Y-131631360D01*
X89927187Y-131602579D01*
X89912257Y-131577313D01*
X89893671Y-131555466D01*
X89872318Y-131537938D01*
X89844105Y-131521444D01*
X89813734Y-131508733D01*
X89775684Y-131497495D01*
X89732500Y-131488999D01*
X89732499Y-131357999D01*
X89784027Y-131366550D01*
G37*
G36*
X90045498Y-130926998D02*
G01*
X89209498Y-130927001D01*
X89302499Y-131180001D01*
X89188499Y-131180001D01*
X89053498Y-130820002D01*
X89053497Y-130801002D01*
X90045497Y-130800998D01*
X90045498Y-130926998D01*
G37*
G36*
X160242526Y-108928667D02*
G01*
X160296371Y-108932137D01*
X160341322Y-108939188D01*
X160374541Y-108947500D01*
X160401608Y-108956722D01*
X160430256Y-108969487D01*
X160453324Y-108982605D01*
X160477402Y-108999824D01*
X160499125Y-109019187D01*
X160518109Y-109040710D01*
X160532414Y-109061363D01*
X160546125Y-109087047D01*
X160557023Y-109114949D01*
X160565922Y-109148991D01*
X160570844Y-109181608D01*
X160573019Y-109220955D01*
X160571845Y-109253664D01*
X160567251Y-109285914D01*
X160558386Y-109318947D01*
X160546615Y-109347682D01*
X160532798Y-109372539D01*
X160514323Y-109398130D01*
X160492831Y-109421544D01*
X160470721Y-109440845D01*
X160443973Y-109459542D01*
X160414483Y-109475779D01*
X160385041Y-109488500D01*
X160617041Y-109907500D01*
X160617041Y-109915500D01*
X160477041Y-109915500D01*
X160263041Y-109516500D01*
X160031041Y-109516500D01*
X160031041Y-109915500D01*
X159900041Y-109915500D01*
X159900041Y-109409500D01*
X160031041Y-109409500D01*
X160234063Y-109409488D01*
X160274313Y-109406753D01*
X160305766Y-109400601D01*
X160334406Y-109390933D01*
X160358189Y-109378982D01*
X160381439Y-109362576D01*
X160405845Y-109337785D01*
X160424006Y-109309242D01*
X160435904Y-109276964D01*
X160441359Y-109243468D01*
X160440973Y-109200475D01*
X160434447Y-109162547D01*
X160421989Y-109129343D01*
X160412918Y-109113565D01*
X160402161Y-109099132D01*
X160380979Y-109078566D01*
X160355436Y-109061926D01*
X160325932Y-109049329D01*
X160289729Y-109040285D01*
X160264029Y-109036948D01*
X160236432Y-109035548D01*
X160031041Y-109035500D01*
X160031041Y-109409500D01*
X159900041Y-109409500D01*
X159900041Y-109035500D01*
X159900041Y-108928500D01*
X160242526Y-108928667D01*
G37*
G36*
X161082041Y-109742500D02*
G01*
X161365041Y-108928500D01*
X161507041Y-108928500D01*
X161141041Y-109915500D01*
X161026041Y-109915500D01*
X160660041Y-108928500D01*
X160802041Y-108928500D01*
X161082041Y-109742500D01*
G37*
G36*
X161943177Y-108917186D02*
G01*
X161988286Y-108926343D01*
X162029791Y-108942000D01*
X162067692Y-108964156D01*
X162101989Y-108992811D01*
X162130041Y-109024500D01*
X162154240Y-109060516D01*
X162176122Y-109104645D01*
X162191708Y-109148863D01*
X162204115Y-109202016D01*
X162211088Y-109254438D01*
X162213959Y-109310766D01*
X162213596Y-109394895D01*
X162210033Y-109462051D01*
X162202908Y-109524363D01*
X162192221Y-109581832D01*
X162175939Y-109640695D01*
X162157681Y-109687870D01*
X162135861Y-109730202D01*
X162107055Y-109772036D01*
X162077646Y-109804125D01*
X162040231Y-109835344D01*
X161998229Y-109861500D01*
X161951638Y-109882594D01*
X161900459Y-109898625D01*
X161851115Y-109908625D01*
X161791271Y-109915094D01*
X161732041Y-109916500D01*
X161732041Y-109810500D01*
X161777256Y-109809832D01*
X161822798Y-109805599D01*
X161864775Y-109797703D01*
X161899508Y-109787466D01*
X161934713Y-109772613D01*
X161966353Y-109754097D01*
X161994429Y-109731919D01*
X162016619Y-109708563D01*
X162031827Y-109687884D01*
X162045241Y-109665004D01*
X162056861Y-109639923D01*
X162066686Y-109612641D01*
X162074716Y-109583157D01*
X162080952Y-109551473D01*
X162085394Y-109517587D01*
X162088041Y-109481500D01*
X162066193Y-109505128D01*
X162042088Y-109526075D01*
X162015725Y-109544341D01*
X161985386Y-109560854D01*
X161958689Y-109571793D01*
X161930894Y-109579546D01*
X161902000Y-109584112D01*
X161871390Y-109585490D01*
X161837858Y-109583490D01*
X161808444Y-109578568D01*
X161778245Y-109569904D01*
X161749779Y-109557773D01*
X161723079Y-109542179D01*
X161698818Y-109523450D01*
X161676868Y-109501833D01*
X161657229Y-109477328D01*
X161639899Y-109449935D01*
X161624949Y-109419734D01*
X161612166Y-109385500D01*
X161602637Y-109349734D01*
X161596702Y-109315152D01*
X161593448Y-109276434D01*
X161593477Y-109243040D01*
X161716090Y-109243040D01*
X161718386Y-109292013D01*
X161727537Y-109339132D01*
X161734237Y-109359597D01*
X161743604Y-109381313D01*
X161753557Y-109399453D01*
X161766549Y-109418515D01*
X161779213Y-109433496D01*
X161792940Y-109446445D01*
X161807729Y-109457363D01*
X161823581Y-109466250D01*
X161840495Y-109473105D01*
X161858471Y-109477929D01*
X161895041Y-109481500D01*
X161924023Y-109479358D01*
X161953726Y-109472350D01*
X161980438Y-109461353D01*
X162006050Y-109446071D01*
X162032889Y-109424966D01*
X162055815Y-109401230D01*
X162074791Y-109374813D01*
X162089041Y-109347500D01*
X162088395Y-109270937D01*
X162082067Y-109214445D01*
X162076372Y-109188402D01*
X162068989Y-109163828D01*
X162058666Y-109137938D01*
X162047697Y-109116484D01*
X162033347Y-109094082D01*
X162017482Y-109074029D01*
X162000511Y-109057062D01*
X161982432Y-109043180D01*
X161963245Y-109032382D01*
X161945261Y-109025375D01*
X161923982Y-109020404D01*
X161901597Y-109018519D01*
X161881474Y-109019266D01*
X161862306Y-109022016D01*
X161844107Y-109026766D01*
X161826877Y-109033516D01*
X161810615Y-109042266D01*
X161795322Y-109053016D01*
X161780998Y-109065766D01*
X161767642Y-109080516D01*
X161746559Y-109112024D01*
X161730152Y-109150571D01*
X161719996Y-109194243D01*
X161716090Y-109243040D01*
X161593477Y-109243040D01*
X161593484Y-109235071D01*
X161596654Y-109196480D01*
X161602878Y-109159458D01*
X161611333Y-109126675D01*
X161623429Y-109092667D01*
X161637438Y-109063013D01*
X161653868Y-109035989D01*
X161674127Y-109009650D01*
X161695097Y-108988046D01*
X161720275Y-108967578D01*
X161759189Y-108944400D01*
X161802010Y-108927789D01*
X161845938Y-108918202D01*
X161896141Y-108914510D01*
X161943177Y-108917186D01*
G37*
G36*
X46358917Y-28266314D02*
G01*
X46354331Y-28320657D01*
X46343872Y-28366278D01*
X46333579Y-28394270D01*
X46320630Y-28420325D01*
X46305024Y-28444442D01*
X46286762Y-28466622D01*
X46265906Y-28486824D01*
X46243097Y-28504637D01*
X46218508Y-28519949D01*
X46192136Y-28532762D01*
X46163984Y-28543074D01*
X46134051Y-28550887D01*
X46102336Y-28556199D01*
X46064527Y-28559187D01*
X46024428Y-28559036D01*
X45989963Y-28556364D01*
X45957530Y-28551317D01*
X45923470Y-28542801D01*
X45882056Y-28526770D01*
X45845212Y-28505395D01*
X45810493Y-28476335D01*
X45784067Y-28444993D01*
X45773016Y-28427714D01*
X45761945Y-28406199D01*
X45747531Y-28365922D01*
X45738883Y-28321355D01*
X45736000Y-28272500D01*
X45866000Y-28272500D01*
X45867939Y-28305505D01*
X45873757Y-28335456D01*
X45883453Y-28362354D01*
X45898232Y-28387907D01*
X45915916Y-28408392D01*
X45936870Y-28424949D01*
X45961289Y-28437629D01*
X45989174Y-28446430D01*
X46017991Y-28451112D01*
X46052032Y-28452450D01*
X46083266Y-28449698D01*
X46109826Y-28443423D01*
X46136141Y-28432578D01*
X46158160Y-28418832D01*
X46178000Y-28401500D01*
X46194992Y-28380969D01*
X46208469Y-28357625D01*
X46218430Y-28331469D01*
X46224875Y-28302500D01*
X46227695Y-28273475D01*
X46228000Y-27558500D01*
X46359000Y-27558500D01*
X46358917Y-28266314D01*
G37*
G36*
X46960000Y-28545500D02*
G01*
X46834000Y-28545500D01*
X46834000Y-27709500D01*
X46581000Y-27802500D01*
X46581000Y-27688500D01*
X46941000Y-27553500D01*
X46960000Y-27553500D01*
X46960000Y-28545500D01*
G37*
G36*
X41664485Y-70188667D02*
G01*
X41718330Y-70192137D01*
X41763281Y-70199187D01*
X41796500Y-70207500D01*
X41823567Y-70216722D01*
X41852215Y-70229487D01*
X41875283Y-70242605D01*
X41899361Y-70259824D01*
X41921084Y-70279187D01*
X41940068Y-70300710D01*
X41954373Y-70321363D01*
X41968083Y-70347047D01*
X41978982Y-70374949D01*
X41987881Y-70408991D01*
X41992803Y-70441608D01*
X41994978Y-70480955D01*
X41993804Y-70513664D01*
X41989210Y-70545914D01*
X41980345Y-70578947D01*
X41968574Y-70607682D01*
X41954757Y-70632539D01*
X41936282Y-70658130D01*
X41914790Y-70681544D01*
X41892680Y-70700845D01*
X41865932Y-70719542D01*
X41836442Y-70735779D01*
X41807000Y-70748500D01*
X42039000Y-71167500D01*
X42039000Y-71175500D01*
X41899000Y-71175500D01*
X41685000Y-70776500D01*
X41453000Y-70776500D01*
X41453000Y-71175500D01*
X41322000Y-71175500D01*
X41322000Y-70669500D01*
X41453000Y-70669500D01*
X41656021Y-70669488D01*
X41696271Y-70666753D01*
X41727725Y-70660601D01*
X41756365Y-70650933D01*
X41780148Y-70638982D01*
X41803398Y-70622576D01*
X41827804Y-70597785D01*
X41845965Y-70569242D01*
X41857863Y-70536964D01*
X41863318Y-70503468D01*
X41862932Y-70460475D01*
X41856406Y-70422547D01*
X41843948Y-70389343D01*
X41834877Y-70373565D01*
X41824120Y-70359132D01*
X41802937Y-70338566D01*
X41777395Y-70321926D01*
X41747891Y-70309329D01*
X41711687Y-70300285D01*
X41685988Y-70296948D01*
X41658391Y-70295548D01*
X41453000Y-70295500D01*
X41453000Y-70669500D01*
X41322000Y-70669500D01*
X41322000Y-70295500D01*
X41322000Y-70188500D01*
X41664485Y-70188667D01*
G37*
G36*
X42482594Y-70175625D02*
G01*
X42525826Y-70180846D01*
X42565631Y-70190320D01*
X42602009Y-70204049D01*
X42634961Y-70222031D01*
X42661943Y-70242070D01*
X42687918Y-70267719D01*
X42709187Y-70296285D01*
X42724422Y-70324767D01*
X42736668Y-70358860D01*
X42744188Y-70395848D01*
X42746922Y-70431985D01*
X42746273Y-70457848D01*
X42742459Y-70486204D01*
X42735375Y-70515562D01*
X42725021Y-70545923D01*
X42711398Y-70577285D01*
X42697548Y-70604186D01*
X42677931Y-70637385D01*
X42655044Y-70671586D01*
X42619443Y-70718746D01*
X42578029Y-70767688D01*
X42296000Y-71073500D01*
X42792000Y-71073500D01*
X42792000Y-71175500D01*
X42145000Y-71175500D01*
X42145000Y-71085500D01*
X42487000Y-70705500D01*
X42537391Y-70645500D01*
X42570639Y-70600383D01*
X42593723Y-70562121D01*
X42609062Y-70524437D01*
X42617785Y-70485809D01*
X42619820Y-70443984D01*
X42614564Y-70403871D01*
X42609208Y-70385476D01*
X42602031Y-70368187D01*
X42593036Y-70352007D01*
X42582221Y-70336934D01*
X42569526Y-70322922D01*
X42555285Y-70310508D01*
X42541598Y-70301133D01*
X42525041Y-70292454D01*
X42507259Y-70285752D01*
X42490423Y-70281455D01*
X42451430Y-70277512D01*
X42404625Y-70280812D01*
X42365500Y-70290750D01*
X42347906Y-70298203D01*
X42331625Y-70307312D01*
X42316656Y-70318078D01*
X42303000Y-70330500D01*
X42291047Y-70344641D01*
X42280687Y-70360062D01*
X42264750Y-70394750D01*
X42255187Y-70434562D01*
X42252000Y-70479500D01*
X42126000Y-70479500D01*
X42128600Y-70433972D01*
X42135475Y-70395300D01*
X42146646Y-70359216D01*
X42163898Y-70322513D01*
X42184094Y-70291863D01*
X42211271Y-70261138D01*
X42242940Y-70234301D01*
X42274762Y-70214203D01*
X42309464Y-70198207D01*
X42347047Y-70186312D01*
X42387511Y-70178520D01*
X42435348Y-70174685D01*
X42482594Y-70175625D01*
G37*
G36*
X78226985Y-108928667D02*
G01*
X78280830Y-108932137D01*
X78325781Y-108939188D01*
X78359000Y-108947500D01*
X78386067Y-108956722D01*
X78414715Y-108969487D01*
X78437783Y-108982605D01*
X78461861Y-108999824D01*
X78483584Y-109019187D01*
X78502568Y-109040710D01*
X78516873Y-109061363D01*
X78530583Y-109087047D01*
X78541482Y-109114949D01*
X78550381Y-109148991D01*
X78555303Y-109181608D01*
X78557478Y-109220955D01*
X78556304Y-109253664D01*
X78551710Y-109285914D01*
X78542845Y-109318947D01*
X78531074Y-109347682D01*
X78517257Y-109372539D01*
X78498782Y-109398130D01*
X78477290Y-109421544D01*
X78455180Y-109440845D01*
X78428432Y-109459542D01*
X78398942Y-109475779D01*
X78369500Y-109488500D01*
X78601500Y-109907500D01*
X78601500Y-109915500D01*
X78461500Y-109915500D01*
X78247500Y-109516500D01*
X78015500Y-109516500D01*
X78015500Y-109915500D01*
X77884500Y-109915500D01*
X77884500Y-109409500D01*
X78015500Y-109409500D01*
X78218521Y-109409488D01*
X78258771Y-109406753D01*
X78290225Y-109400601D01*
X78318865Y-109390933D01*
X78342648Y-109378982D01*
X78365898Y-109362576D01*
X78390304Y-109337785D01*
X78408465Y-109309242D01*
X78420363Y-109276964D01*
X78425818Y-109243468D01*
X78425432Y-109200475D01*
X78418906Y-109162547D01*
X78406448Y-109129343D01*
X78397377Y-109113565D01*
X78386620Y-109099132D01*
X78365437Y-109078566D01*
X78339895Y-109061926D01*
X78310391Y-109049329D01*
X78274187Y-109040285D01*
X78248488Y-109036948D01*
X78220891Y-109035548D01*
X78015500Y-109035500D01*
X78015500Y-109409500D01*
X77884500Y-109409500D01*
X77884500Y-109035500D01*
X77884500Y-108928500D01*
X78226985Y-108928667D01*
G37*
G36*
X79066500Y-109742500D02*
G01*
X79349500Y-108928500D01*
X79491500Y-108928500D01*
X79125500Y-109915500D01*
X79010500Y-109915500D01*
X78644500Y-108928500D01*
X78786500Y-108928500D01*
X79066500Y-109742500D01*
G37*
G36*
X80229500Y-108998500D02*
G01*
X79820500Y-109915500D01*
X79688500Y-109915500D01*
X80096500Y-109031500D01*
X79561500Y-109031500D01*
X79561500Y-108928500D01*
X80229500Y-108928500D01*
X80229500Y-108998500D01*
G37*
G36*
X201224525Y-149928667D02*
G01*
X201278370Y-149932137D01*
X201323321Y-149939188D01*
X201356540Y-149947500D01*
X201383607Y-149956722D01*
X201412255Y-149969487D01*
X201435323Y-149982605D01*
X201459401Y-149999824D01*
X201481124Y-150019187D01*
X201500108Y-150040710D01*
X201514413Y-150061363D01*
X201528124Y-150087047D01*
X201539022Y-150114949D01*
X201547921Y-150148991D01*
X201552843Y-150181608D01*
X201555018Y-150220955D01*
X201553844Y-150253664D01*
X201549250Y-150285914D01*
X201540385Y-150318947D01*
X201528614Y-150347682D01*
X201514797Y-150372539D01*
X201496322Y-150398130D01*
X201474830Y-150421544D01*
X201452720Y-150440845D01*
X201425972Y-150459542D01*
X201396482Y-150475779D01*
X201367040Y-150488500D01*
X201599040Y-150907500D01*
X201599040Y-150915500D01*
X201459040Y-150915500D01*
X201245040Y-150516500D01*
X201013040Y-150516500D01*
X201013040Y-150915500D01*
X200882040Y-150915500D01*
X200882040Y-150409500D01*
X201013040Y-150409500D01*
X201216062Y-150409488D01*
X201256312Y-150406753D01*
X201287765Y-150400601D01*
X201316405Y-150390933D01*
X201340188Y-150378982D01*
X201363438Y-150362576D01*
X201387844Y-150337785D01*
X201406005Y-150309242D01*
X201417903Y-150276964D01*
X201423358Y-150243468D01*
X201422972Y-150200475D01*
X201416446Y-150162547D01*
X201403988Y-150129343D01*
X201394917Y-150113565D01*
X201384160Y-150099132D01*
X201362978Y-150078566D01*
X201337435Y-150061926D01*
X201307931Y-150049329D01*
X201271728Y-150040285D01*
X201246028Y-150036948D01*
X201218431Y-150035548D01*
X201013040Y-150035500D01*
X201013040Y-150409500D01*
X200882040Y-150409500D01*
X200882040Y-150035500D01*
X200882040Y-149928500D01*
X201224525Y-149928667D01*
G37*
G36*
X202064040Y-150742500D02*
G01*
X202347040Y-149928500D01*
X202489040Y-149928500D01*
X202123040Y-150915500D01*
X202008040Y-150915500D01*
X201642040Y-149928500D01*
X201784040Y-149928500D01*
X202064040Y-150742500D01*
G37*
G36*
X203203040Y-150044500D02*
G01*
X202803040Y-150044500D01*
X202774040Y-150313500D01*
X202799381Y-150299989D01*
X202825903Y-150289019D01*
X202853607Y-150280589D01*
X202882493Y-150274699D01*
X202912561Y-150271350D01*
X202946424Y-150270587D01*
X202978885Y-150272673D01*
X203005878Y-150276780D01*
X203031556Y-150283016D01*
X203055917Y-150291381D01*
X203078963Y-150301876D01*
X203103689Y-150316478D01*
X203126697Y-150333860D01*
X203145419Y-150351352D01*
X203162606Y-150370871D01*
X203177863Y-150391955D01*
X203192984Y-150417896D01*
X203205636Y-150445806D01*
X203215820Y-150475685D01*
X203222705Y-150503444D01*
X203228260Y-150537015D01*
X203231346Y-150572554D01*
X203231960Y-150609999D01*
X203230038Y-150646726D01*
X203225554Y-150681421D01*
X203219528Y-150710113D01*
X203210239Y-150741000D01*
X203200009Y-150766359D01*
X203187817Y-150790164D01*
X203171481Y-150815465D01*
X203152583Y-150838734D01*
X203133906Y-150857227D01*
X203113639Y-150873619D01*
X203091817Y-150887906D01*
X203064974Y-150901656D01*
X203039819Y-150911432D01*
X203013109Y-150919102D01*
X202980680Y-150925289D01*
X202950637Y-150928447D01*
X202914958Y-150929482D01*
X202883165Y-150928056D01*
X202852904Y-150924349D01*
X202824173Y-150918361D01*
X202796974Y-150910092D01*
X202771306Y-150899541D01*
X202747169Y-150886709D01*
X202724564Y-150871595D01*
X202703464Y-150854205D01*
X202684100Y-150834881D01*
X202666956Y-150813838D01*
X202653774Y-150794016D01*
X202640790Y-150769750D01*
X202630024Y-150743766D01*
X202621478Y-150716063D01*
X202615149Y-150686641D01*
X202611040Y-150655500D01*
X202730040Y-150655500D01*
X202739638Y-150699990D01*
X202754931Y-150737836D01*
X202764713Y-150754267D01*
X202775919Y-150769037D01*
X202788549Y-150782146D01*
X202801130Y-150792392D01*
X202818259Y-150803310D01*
X202834969Y-150811341D01*
X202872067Y-150822301D01*
X202892456Y-150825230D01*
X202916548Y-150826490D01*
X202940446Y-150825563D01*
X202960665Y-150822750D01*
X202995375Y-150812423D01*
X203012179Y-150804220D01*
X203027796Y-150794142D01*
X203042226Y-150782188D01*
X203055468Y-150768360D01*
X203067379Y-150753043D01*
X203077731Y-150736317D01*
X203092929Y-150701080D01*
X203103085Y-150657924D01*
X203106991Y-150609018D01*
X203104456Y-150561054D01*
X203098800Y-150531107D01*
X203089954Y-150503465D01*
X203077917Y-150478127D01*
X203062690Y-150455093D01*
X203042599Y-150432777D01*
X203021813Y-150415858D01*
X202998899Y-150402484D01*
X202973859Y-150392655D01*
X202944117Y-150385976D01*
X202914630Y-150383559D01*
X202877172Y-150384985D01*
X202843989Y-150390391D01*
X202818342Y-150398274D01*
X202795582Y-150409129D01*
X202780040Y-150419500D01*
X202747040Y-150446500D01*
X202647040Y-150420500D01*
X202697040Y-149928500D01*
X203203040Y-149928500D01*
X203203040Y-150044500D01*
G37*
G36*
X196784028Y-131484050D02*
G01*
X196831360Y-131497327D01*
X196874498Y-131515331D01*
X196916774Y-131540362D01*
X196951141Y-131568248D01*
X196983914Y-131603873D01*
X197011126Y-131643998D01*
X197030757Y-131684732D01*
X197046378Y-131733482D01*
X197056478Y-131791373D01*
X197059471Y-131854950D01*
X197055779Y-131907616D01*
X197045936Y-131956913D01*
X197038707Y-131980298D01*
X197028002Y-132007248D01*
X197005238Y-132049470D01*
X196976322Y-132088322D01*
X196945038Y-132120409D01*
X196909309Y-132149263D01*
X196874700Y-132171412D01*
X196832552Y-132192407D01*
X196787003Y-132209249D01*
X196738052Y-132221938D01*
X196691685Y-132229731D01*
X196636309Y-132234577D01*
X196464604Y-132234531D01*
X196412096Y-132229710D01*
X196358503Y-132219997D01*
X196304479Y-132204385D01*
X196254049Y-132183398D01*
X196208639Y-132157577D01*
X196168502Y-132127251D01*
X196131502Y-132089939D01*
X196100502Y-132047501D01*
X196076002Y-132000689D01*
X196059390Y-131953510D01*
X196048453Y-131899674D01*
X196044515Y-131842213D01*
X196047595Y-131781806D01*
X196052257Y-131750747D01*
X196057929Y-131725306D01*
X196073913Y-131677692D01*
X196094001Y-131637876D01*
X196121844Y-131598619D01*
X196155547Y-131563986D01*
X196194043Y-131534841D01*
X196237250Y-131511251D01*
X196285168Y-131493216D01*
X196337797Y-131480735D01*
X196375500Y-131475500D01*
X196375500Y-131606500D01*
X196330245Y-131615057D01*
X196290353Y-131626915D01*
X196255825Y-131642073D01*
X196224640Y-131662089D01*
X196199648Y-131685852D01*
X196181313Y-131711376D01*
X196166459Y-131743109D01*
X196157207Y-131776516D01*
X196152549Y-131810723D01*
X196151703Y-131850101D01*
X196154736Y-131883478D01*
X196161407Y-131914719D01*
X196171716Y-131943823D01*
X196185665Y-131970793D01*
X196205431Y-131998254D01*
X196227061Y-132020714D01*
X196258503Y-132045011D01*
X196294815Y-132065126D01*
X196335675Y-132081105D01*
X196381085Y-132092948D01*
X196426315Y-132100125D01*
X196470236Y-132103663D01*
X196626256Y-132104091D01*
X196668782Y-132101293D01*
X196712971Y-132095077D01*
X196753938Y-132085590D01*
X196788052Y-132074254D01*
X196822896Y-132058551D01*
X196851500Y-132041621D01*
X196879768Y-132019905D01*
X196901268Y-131998095D01*
X196919011Y-131974149D01*
X196932996Y-131948067D01*
X196943224Y-131919850D01*
X196949695Y-131889497D01*
X196952409Y-131857008D01*
X196951305Y-131816969D01*
X196946711Y-131781157D01*
X196938672Y-131748860D01*
X196927187Y-131720079D01*
X196912258Y-131694813D01*
X196893672Y-131672966D01*
X196872319Y-131655438D01*
X196844106Y-131638944D01*
X196813735Y-131626233D01*
X196775684Y-131614995D01*
X196732500Y-131606499D01*
X196732500Y-131475499D01*
X196784028Y-131484050D01*
G37*
G36*
X197045499Y-131330498D02*
G01*
X196955499Y-131330498D01*
X196575498Y-130988500D01*
X196515498Y-130938109D01*
X196470381Y-130904861D01*
X196432119Y-130881778D01*
X196394435Y-130866438D01*
X196355806Y-130857715D01*
X196313982Y-130855680D01*
X196273869Y-130860936D01*
X196255473Y-130866293D01*
X196238185Y-130873470D01*
X196222005Y-130882465D01*
X196206931Y-130893280D01*
X196192920Y-130905975D01*
X196180506Y-130920216D01*
X196171131Y-130933904D01*
X196162452Y-130950460D01*
X196155750Y-130968242D01*
X196151453Y-130985078D01*
X196147510Y-131024071D01*
X196150811Y-131070876D01*
X196160749Y-131110001D01*
X196168202Y-131127595D01*
X196177311Y-131143876D01*
X196188077Y-131158845D01*
X196200499Y-131172501D01*
X196214639Y-131184454D01*
X196230061Y-131194813D01*
X196264749Y-131210751D01*
X196304561Y-131220313D01*
X196349499Y-131223501D01*
X196349499Y-131349501D01*
X196303971Y-131346901D01*
X196265299Y-131340026D01*
X196225749Y-131327501D01*
X196192512Y-131311603D01*
X196161863Y-131291407D01*
X196131137Y-131264230D01*
X196104300Y-131232561D01*
X196084202Y-131200740D01*
X196068206Y-131166038D01*
X196056311Y-131128455D01*
X196048518Y-131087991D01*
X196044683Y-131040153D01*
X196045623Y-130992908D01*
X196050844Y-130949676D01*
X196060318Y-130909871D01*
X196074047Y-130873492D01*
X196092029Y-130840541D01*
X196112068Y-130813558D01*
X196137716Y-130787583D01*
X196166282Y-130766314D01*
X196194764Y-130751079D01*
X196228857Y-130738833D01*
X196262363Y-130731802D01*
X196301983Y-130728579D01*
X196327845Y-130729227D01*
X196356201Y-130733042D01*
X196385560Y-130740125D01*
X196415920Y-130750479D01*
X196447282Y-130764102D01*
X196474183Y-130777952D01*
X196507382Y-130797569D01*
X196541584Y-130820455D01*
X196588744Y-130856057D01*
X196637686Y-130897471D01*
X196943499Y-131179498D01*
X196943497Y-130683498D01*
X197045497Y-130683498D01*
X197045499Y-131330498D01*
G37*
G36*
X183634626Y-57046642D02*
G01*
X183667266Y-57050937D01*
X183695811Y-57056840D01*
X183723282Y-57064647D01*
X183772482Y-57084757D01*
X183796144Y-57098107D01*
X183820199Y-57114427D01*
X183842185Y-57132460D01*
X183862104Y-57152207D01*
X183878417Y-57171646D01*
X183894386Y-57194659D01*
X183907975Y-57218832D01*
X183918073Y-57241474D01*
X183926699Y-57267113D01*
X183932285Y-57291087D01*
X183935948Y-57318192D01*
X183937022Y-57343500D01*
X183806022Y-57343500D01*
X183802459Y-57301312D01*
X183798006Y-57281953D01*
X183790867Y-57261556D01*
X183782629Y-57244654D01*
X183771232Y-57227021D01*
X183759208Y-57212575D01*
X183745414Y-57199362D01*
X183730062Y-57187808D01*
X183713242Y-57177847D01*
X183694953Y-57169479D01*
X183675195Y-57162706D01*
X183631273Y-57153940D01*
X183582063Y-57151542D01*
X183532124Y-57155699D01*
X183509646Y-57160329D01*
X183488829Y-57166659D01*
X183469673Y-57174690D01*
X183452178Y-57184422D01*
X183434700Y-57197157D01*
X183421055Y-57209912D01*
X183409545Y-57223973D01*
X183400172Y-57239338D01*
X183392934Y-57256009D01*
X183387832Y-57273985D01*
X183384668Y-57295489D01*
X183384134Y-57317175D01*
X183386126Y-57335456D01*
X183390609Y-57352761D01*
X183402001Y-57376887D01*
X183418997Y-57398815D01*
X183441682Y-57418723D01*
X183471737Y-57437821D01*
X183504272Y-57453750D01*
X183542831Y-57469102D01*
X183674938Y-57510258D01*
X183742678Y-57536125D01*
X183776708Y-57552299D01*
X183806361Y-57569138D01*
X183834709Y-57588312D01*
X183857863Y-57607232D01*
X183880784Y-57630395D01*
X183899640Y-57654986D01*
X183914817Y-57681464D01*
X183926396Y-57710149D01*
X183934241Y-57740922D01*
X183938350Y-57773782D01*
X183938655Y-57809312D01*
X183935144Y-57841270D01*
X183926882Y-57874551D01*
X183912493Y-57908453D01*
X183892550Y-57939520D01*
X183869601Y-57965301D01*
X183839147Y-57990991D01*
X183804600Y-58013144D01*
X183766272Y-58030984D01*
X183724163Y-58044511D01*
X183678272Y-58053726D01*
X183628600Y-58058627D01*
X183572877Y-58059033D01*
X183523518Y-58054463D01*
X183478833Y-58045751D01*
X183432864Y-58031735D01*
X183388874Y-58012933D01*
X183351579Y-57991784D01*
X183320735Y-57969171D01*
X183295522Y-57945687D01*
X183273610Y-57919811D01*
X183253940Y-57889593D01*
X183239772Y-57859969D01*
X183229565Y-57828859D01*
X183223319Y-57796264D01*
X183221022Y-57759500D01*
X183352022Y-57759500D01*
X183354745Y-57794130D01*
X183362915Y-57825706D01*
X183376530Y-57854229D01*
X183395592Y-57879699D01*
X183420095Y-57902112D01*
X183451431Y-57922019D01*
X183484385Y-57936047D01*
X183521052Y-57945784D01*
X183564693Y-57951472D01*
X183610823Y-57952244D01*
X183651948Y-57948798D01*
X183690913Y-57940646D01*
X183722522Y-57928875D01*
X183749538Y-57913084D01*
X183771713Y-57893660D01*
X183789639Y-57869545D01*
X183798233Y-57851576D01*
X183804584Y-57830062D01*
X183807686Y-57806717D01*
X183807574Y-57782281D01*
X183804424Y-57759508D01*
X183798945Y-57740445D01*
X183790042Y-57721281D01*
X183778127Y-57704008D01*
X183764679Y-57689945D01*
X183750327Y-57678625D01*
X183707241Y-57654250D01*
X183648139Y-57629875D01*
X183573022Y-57605500D01*
X183490263Y-57578448D01*
X183451706Y-57562869D01*
X183416787Y-57546420D01*
X183385506Y-57529102D01*
X183357865Y-57510913D01*
X183336349Y-57494014D01*
X183315261Y-57473906D01*
X183297158Y-57452461D01*
X183282100Y-57429750D01*
X183270088Y-57405773D01*
X183261121Y-57380531D01*
X183255199Y-57354023D01*
X183252323Y-57326250D01*
X183252596Y-57295613D01*
X183255900Y-57267984D01*
X183262143Y-57241574D01*
X183271322Y-57216383D01*
X183283439Y-57192410D01*
X183300583Y-57166897D01*
X183318942Y-57145515D01*
X183343107Y-57122916D01*
X183367036Y-57104784D01*
X183396022Y-57087250D01*
X183423647Y-57074187D01*
X183453022Y-57063500D01*
X183488161Y-57054315D01*
X183521254Y-57048675D01*
X183560577Y-57045168D01*
X183597536Y-57044586D01*
X183634626Y-57046642D01*
G37*
G36*
X184319022Y-57734500D02*
G01*
X184338022Y-57864500D01*
X184365022Y-57747500D01*
X184561022Y-57058500D01*
X184671022Y-57058500D01*
X184861022Y-57747500D01*
X184888022Y-57866500D01*
X184909022Y-57733500D01*
X185063022Y-57058500D01*
X185193022Y-57058500D01*
X184954022Y-58045500D01*
X184835022Y-58045500D01*
X184632022Y-57325500D01*
X184616022Y-57250500D01*
X184601022Y-57325500D01*
X184390022Y-58045500D01*
X184271022Y-58045500D01*
X184032022Y-57058500D01*
X184163022Y-57058500D01*
X184319022Y-57734500D01*
G37*
G36*
X185628917Y-57045385D02*
G01*
X185665209Y-57049125D01*
X185699089Y-57055792D01*
X185730556Y-57065385D01*
X185759611Y-57077905D01*
X185786252Y-57093352D01*
X185810482Y-57111725D01*
X185832319Y-57132876D01*
X185851127Y-57156319D01*
X185866772Y-57182016D01*
X185876752Y-57203561D01*
X185885815Y-57229854D01*
X185891694Y-57254321D01*
X185896069Y-57283954D01*
X185897944Y-57315368D01*
X185897191Y-57341682D01*
X185893500Y-57365618D01*
X185886855Y-57389202D01*
X185876325Y-57414354D01*
X185863528Y-57437206D01*
X185847883Y-57459656D01*
X185830024Y-57480281D01*
X185811800Y-57497211D01*
X185789897Y-57513523D01*
X185765886Y-57527586D01*
X185742022Y-57538500D01*
X185785141Y-57555814D01*
X185822249Y-57578508D01*
X185838548Y-57591872D01*
X185853344Y-57606580D01*
X185866638Y-57622633D01*
X185879788Y-57641889D01*
X185889775Y-57660307D01*
X185897982Y-57679752D01*
X185908627Y-57719289D01*
X185912978Y-57765150D01*
X185910452Y-57814594D01*
X185904526Y-57848254D01*
X185895159Y-57879739D01*
X185882351Y-57909048D01*
X185866102Y-57936182D01*
X185846413Y-57961141D01*
X185823291Y-57983918D01*
X185797565Y-58003971D01*
X185769783Y-58020938D01*
X185743361Y-58033430D01*
X185711694Y-58044570D01*
X185677970Y-58052625D01*
X185646267Y-58057196D01*
X185608659Y-58059424D01*
X185570238Y-58058591D01*
X185533772Y-58054750D01*
X185503084Y-58048812D01*
X185470503Y-58039294D01*
X185443269Y-58028310D01*
X185417660Y-58014950D01*
X185393675Y-57999216D01*
X185368669Y-57978766D01*
X185348958Y-57958891D01*
X185331966Y-57937516D01*
X185316100Y-57911676D01*
X185303674Y-57883937D01*
X185294690Y-57854301D01*
X185289146Y-57822766D01*
X185287022Y-57785500D01*
X185413022Y-57785500D01*
X185415462Y-57818094D01*
X185422099Y-57845617D01*
X185433952Y-57872305D01*
X185450687Y-57895930D01*
X185473883Y-57917899D01*
X185499217Y-57934285D01*
X185527805Y-57946173D01*
X185559647Y-57953562D01*
X185594743Y-57956454D01*
X185632635Y-57954848D01*
X185666863Y-57948743D01*
X185694961Y-57939047D01*
X185719510Y-57925473D01*
X185740510Y-57907990D01*
X185758885Y-57884748D01*
X185771834Y-57859652D01*
X185779698Y-57835775D01*
X185784725Y-57809476D01*
X185786975Y-57778022D01*
X185785974Y-57749104D01*
X185781846Y-57722656D01*
X185775376Y-57700664D01*
X185766319Y-57680625D01*
X185753366Y-57660838D01*
X185735665Y-57641947D01*
X185712530Y-57624832D01*
X185687803Y-57612328D01*
X185657366Y-57602353D01*
X185628647Y-57596813D01*
X185600180Y-57594083D01*
X185487022Y-57593500D01*
X185487022Y-57490500D01*
X185590280Y-57490307D01*
X185631428Y-57485940D01*
X185654671Y-57480354D01*
X185678038Y-57471672D01*
X185699100Y-57460331D01*
X185716249Y-57447714D01*
X185734357Y-57430211D01*
X185747917Y-57412250D01*
X185758463Y-57392398D01*
X185766531Y-57368586D01*
X185771013Y-57342523D01*
X185771980Y-57316105D01*
X185769952Y-57285519D01*
X185764884Y-57257992D01*
X185755127Y-57229742D01*
X185741232Y-57205656D01*
X185723197Y-57185732D01*
X185701023Y-57169972D01*
X185674709Y-57158375D01*
X185639569Y-57150219D01*
X185604386Y-57147542D01*
X185567477Y-57149439D01*
X185536552Y-57155865D01*
X185506921Y-57167741D01*
X185480917Y-57184781D01*
X185458538Y-57206484D01*
X185442125Y-57229788D01*
X185430401Y-57256059D01*
X185423367Y-57285296D01*
X185421022Y-57317500D01*
X185296022Y-57317500D01*
X185297350Y-57288641D01*
X185302019Y-57257705D01*
X185308992Y-57231569D01*
X185320011Y-57203696D01*
X185332628Y-57180282D01*
X185349998Y-57155473D01*
X185370729Y-57132285D01*
X185394740Y-57110789D01*
X185423861Y-57090222D01*
X185451991Y-57074969D01*
X185481939Y-57062800D01*
X185513708Y-57053717D01*
X185547295Y-57047718D01*
X185586748Y-57044671D01*
X185628917Y-57045385D01*
G37*
G36*
X41781985Y-37188667D02*
G01*
X41835830Y-37192137D01*
X41880781Y-37199187D01*
X41914000Y-37207500D01*
X41941067Y-37216722D01*
X41969715Y-37229487D01*
X41992783Y-37242605D01*
X42016861Y-37259824D01*
X42038584Y-37279187D01*
X42057568Y-37300710D01*
X42071873Y-37321363D01*
X42085583Y-37347047D01*
X42096482Y-37374949D01*
X42105381Y-37408991D01*
X42110303Y-37441608D01*
X42112478Y-37480955D01*
X42111304Y-37513664D01*
X42106710Y-37545914D01*
X42097845Y-37578947D01*
X42086074Y-37607682D01*
X42072257Y-37632539D01*
X42053782Y-37658130D01*
X42032290Y-37681544D01*
X42010180Y-37700845D01*
X41983432Y-37719542D01*
X41953942Y-37735779D01*
X41924500Y-37748500D01*
X42156500Y-38167500D01*
X42156500Y-38175500D01*
X42016500Y-38175500D01*
X41802500Y-37776500D01*
X41570500Y-37776500D01*
X41570500Y-38175500D01*
X41439500Y-38175500D01*
X41439500Y-37669500D01*
X41570500Y-37669500D01*
X41773521Y-37669488D01*
X41813771Y-37666753D01*
X41845225Y-37660601D01*
X41873865Y-37650933D01*
X41897648Y-37638982D01*
X41920898Y-37622576D01*
X41945304Y-37597785D01*
X41963465Y-37569242D01*
X41975363Y-37536964D01*
X41980818Y-37503468D01*
X41980432Y-37460475D01*
X41973906Y-37422547D01*
X41961448Y-37389343D01*
X41952377Y-37373565D01*
X41941620Y-37359132D01*
X41920437Y-37338566D01*
X41894895Y-37321926D01*
X41865391Y-37309329D01*
X41829187Y-37300285D01*
X41803488Y-37296948D01*
X41775891Y-37295548D01*
X41570500Y-37295500D01*
X41570500Y-37669500D01*
X41439500Y-37669500D01*
X41439500Y-37295500D01*
X41439500Y-37188500D01*
X41781985Y-37188667D01*
G37*
G36*
X42674500Y-38175500D02*
G01*
X42548500Y-38175500D01*
X42548500Y-37339500D01*
X42295500Y-37432500D01*
X42295500Y-37318500D01*
X42655500Y-37183500D01*
X42674500Y-37183500D01*
X42674500Y-38175500D01*
G37*
G36*
X59615104Y-57046642D02*
G01*
X59647744Y-57050937D01*
X59676289Y-57056840D01*
X59703760Y-57064647D01*
X59752960Y-57084757D01*
X59776622Y-57098107D01*
X59800677Y-57114427D01*
X59822663Y-57132460D01*
X59842582Y-57152207D01*
X59858896Y-57171646D01*
X59874864Y-57194659D01*
X59888453Y-57218832D01*
X59898551Y-57241474D01*
X59907177Y-57267113D01*
X59912763Y-57291087D01*
X59916426Y-57318192D01*
X59917500Y-57343500D01*
X59786500Y-57343500D01*
X59782937Y-57301312D01*
X59778484Y-57281953D01*
X59771345Y-57261556D01*
X59763107Y-57244654D01*
X59751710Y-57227021D01*
X59739687Y-57212575D01*
X59725892Y-57199362D01*
X59710540Y-57187808D01*
X59693720Y-57177847D01*
X59675431Y-57169479D01*
X59655673Y-57162706D01*
X59611751Y-57153940D01*
X59562541Y-57151542D01*
X59512602Y-57155699D01*
X59490124Y-57160329D01*
X59469307Y-57166659D01*
X59450151Y-57174690D01*
X59432656Y-57184422D01*
X59415178Y-57197157D01*
X59401533Y-57209912D01*
X59390023Y-57223973D01*
X59380650Y-57239338D01*
X59373412Y-57256009D01*
X59368310Y-57273985D01*
X59365146Y-57295489D01*
X59364612Y-57317175D01*
X59366604Y-57335456D01*
X59371087Y-57352761D01*
X59382479Y-57376887D01*
X59399475Y-57398815D01*
X59422160Y-57418723D01*
X59452215Y-57437821D01*
X59484750Y-57453750D01*
X59523309Y-57469102D01*
X59655416Y-57510258D01*
X59723156Y-57536125D01*
X59757186Y-57552299D01*
X59786839Y-57569138D01*
X59815187Y-57588312D01*
X59838341Y-57607232D01*
X59861262Y-57630395D01*
X59880118Y-57654986D01*
X59895295Y-57681464D01*
X59906875Y-57710149D01*
X59914719Y-57740922D01*
X59918828Y-57773782D01*
X59919133Y-57809312D01*
X59915622Y-57841270D01*
X59907360Y-57874551D01*
X59892971Y-57908453D01*
X59873028Y-57939520D01*
X59850079Y-57965301D01*
X59819625Y-57990991D01*
X59785078Y-58013144D01*
X59746750Y-58030984D01*
X59704641Y-58044511D01*
X59658750Y-58053726D01*
X59609078Y-58058627D01*
X59553355Y-58059033D01*
X59503996Y-58054463D01*
X59459311Y-58045751D01*
X59413342Y-58031735D01*
X59369352Y-58012933D01*
X59332057Y-57991784D01*
X59301213Y-57969171D01*
X59276000Y-57945687D01*
X59254088Y-57919811D01*
X59234418Y-57889593D01*
X59220250Y-57859969D01*
X59210043Y-57828859D01*
X59203797Y-57796264D01*
X59201500Y-57759500D01*
X59332500Y-57759500D01*
X59335223Y-57794130D01*
X59343393Y-57825706D01*
X59357008Y-57854229D01*
X59376070Y-57879699D01*
X59400573Y-57902112D01*
X59431909Y-57922019D01*
X59464863Y-57936047D01*
X59501531Y-57945784D01*
X59545171Y-57951472D01*
X59591301Y-57952244D01*
X59632426Y-57948798D01*
X59671391Y-57940646D01*
X59703000Y-57928875D01*
X59730016Y-57913084D01*
X59752191Y-57893660D01*
X59770117Y-57869545D01*
X59778711Y-57851576D01*
X59785062Y-57830062D01*
X59788164Y-57806717D01*
X59788052Y-57782281D01*
X59784902Y-57759508D01*
X59779423Y-57740445D01*
X59770521Y-57721281D01*
X59758605Y-57704008D01*
X59745157Y-57689945D01*
X59730805Y-57678625D01*
X59687719Y-57654250D01*
X59628617Y-57629875D01*
X59553500Y-57605500D01*
X59470741Y-57578448D01*
X59432184Y-57562869D01*
X59397265Y-57546420D01*
X59365984Y-57529102D01*
X59338343Y-57510913D01*
X59316827Y-57494014D01*
X59295739Y-57473906D01*
X59277636Y-57452461D01*
X59262578Y-57429750D01*
X59250566Y-57405773D01*
X59241599Y-57380531D01*
X59235677Y-57354023D01*
X59232801Y-57326250D01*
X59233074Y-57295613D01*
X59236378Y-57267984D01*
X59242621Y-57241574D01*
X59251800Y-57216383D01*
X59263917Y-57192410D01*
X59281061Y-57166897D01*
X59299420Y-57145515D01*
X59323585Y-57122916D01*
X59347514Y-57104784D01*
X59376500Y-57087250D01*
X59404125Y-57074187D01*
X59433500Y-57063500D01*
X59468639Y-57054315D01*
X59501732Y-57048675D01*
X59541055Y-57045168D01*
X59578014Y-57044586D01*
X59615104Y-57046642D01*
G37*
G36*
X60299500Y-57734500D02*
G01*
X60318500Y-57864500D01*
X60345500Y-57747500D01*
X60541500Y-57058500D01*
X60651500Y-57058500D01*
X60841500Y-57747500D01*
X60868500Y-57866500D01*
X60889500Y-57733500D01*
X61043500Y-57058500D01*
X61173500Y-57058500D01*
X60934500Y-58045500D01*
X60815500Y-58045500D01*
X60612500Y-57325500D01*
X60596500Y-57250500D01*
X60581500Y-57325500D01*
X60370500Y-58045500D01*
X60251500Y-58045500D01*
X60012500Y-57058500D01*
X60143500Y-57058500D01*
X60299500Y-57734500D01*
G37*
G36*
X61623094Y-57045625D02*
G01*
X61666326Y-57050846D01*
X61706131Y-57060320D01*
X61742509Y-57074049D01*
X61772607Y-57090221D01*
X61802443Y-57112070D01*
X61828418Y-57137719D01*
X61849687Y-57166285D01*
X61864922Y-57194767D01*
X61877168Y-57228860D01*
X61884199Y-57262365D01*
X61887422Y-57301985D01*
X61886773Y-57327848D01*
X61882959Y-57356204D01*
X61875875Y-57385562D01*
X61865521Y-57415923D01*
X61851898Y-57447285D01*
X61835006Y-57479649D01*
X61795544Y-57541586D01*
X61759943Y-57588746D01*
X61718529Y-57637688D01*
X61436500Y-57943500D01*
X61932500Y-57943500D01*
X61932500Y-58045500D01*
X61285500Y-58045500D01*
X61285500Y-57955500D01*
X61627500Y-57575500D01*
X61677891Y-57515500D01*
X61711139Y-57470383D01*
X61734223Y-57432121D01*
X61749562Y-57394437D01*
X61758285Y-57355809D01*
X61760320Y-57313984D01*
X61755064Y-57273871D01*
X61749708Y-57255476D01*
X61742531Y-57238187D01*
X61733536Y-57222007D01*
X61722721Y-57206934D01*
X61710026Y-57192922D01*
X61695785Y-57180508D01*
X61682098Y-57171133D01*
X61665541Y-57162454D01*
X61647759Y-57155752D01*
X61630923Y-57151455D01*
X61591930Y-57147512D01*
X61545125Y-57150812D01*
X61506000Y-57160750D01*
X61488406Y-57168203D01*
X61472125Y-57177312D01*
X61457156Y-57188078D01*
X61443500Y-57200500D01*
X61431547Y-57214641D01*
X61421187Y-57230062D01*
X61405250Y-57264750D01*
X61395687Y-57304562D01*
X61392500Y-57349500D01*
X61266500Y-57349500D01*
X61269100Y-57303972D01*
X61275975Y-57265300D01*
X61288500Y-57225750D01*
X61304398Y-57192513D01*
X61324594Y-57161863D01*
X61351771Y-57131138D01*
X61383440Y-57104301D01*
X61415262Y-57084203D01*
X61449964Y-57068207D01*
X61487547Y-57056312D01*
X61532216Y-57047966D01*
X61575848Y-57044685D01*
X61623094Y-57045625D01*
G37*
G36*
X197684007Y-70188667D02*
G01*
X197737852Y-70192137D01*
X197782803Y-70199187D01*
X197816022Y-70207500D01*
X197843089Y-70216722D01*
X197871737Y-70229487D01*
X197894805Y-70242605D01*
X197918883Y-70259824D01*
X197940606Y-70279187D01*
X197959590Y-70300710D01*
X197973895Y-70321363D01*
X197987605Y-70347047D01*
X197998504Y-70374949D01*
X198007403Y-70408991D01*
X198012325Y-70441608D01*
X198014500Y-70480955D01*
X198013326Y-70513664D01*
X198008732Y-70545914D01*
X197999867Y-70578947D01*
X197988096Y-70607682D01*
X197974279Y-70632539D01*
X197955804Y-70658130D01*
X197934312Y-70681544D01*
X197912202Y-70700845D01*
X197885454Y-70719542D01*
X197855964Y-70735779D01*
X197826522Y-70748500D01*
X198058522Y-71167500D01*
X198058522Y-71175500D01*
X197918522Y-71175500D01*
X197704522Y-70776500D01*
X197472522Y-70776500D01*
X197472522Y-71175500D01*
X197341522Y-71175500D01*
X197341522Y-70669500D01*
X197472522Y-70669500D01*
X197675543Y-70669488D01*
X197715793Y-70666753D01*
X197747247Y-70660601D01*
X197775887Y-70650933D01*
X197799670Y-70638982D01*
X197822920Y-70622576D01*
X197847326Y-70597785D01*
X197865487Y-70569242D01*
X197877385Y-70536964D01*
X197882840Y-70503468D01*
X197882454Y-70460475D01*
X197875928Y-70422547D01*
X197863470Y-70389343D01*
X197854399Y-70373565D01*
X197843642Y-70359132D01*
X197822459Y-70338566D01*
X197796917Y-70321926D01*
X197767413Y-70309329D01*
X197731209Y-70300285D01*
X197705510Y-70296948D01*
X197677913Y-70295548D01*
X197472522Y-70295500D01*
X197472522Y-70669500D01*
X197341522Y-70669500D01*
X197341522Y-70295500D01*
X197341522Y-70188500D01*
X197684007Y-70188667D01*
G37*
G36*
X198488417Y-70175385D02*
G01*
X198524709Y-70179125D01*
X198558589Y-70185792D01*
X198590056Y-70195385D01*
X198619111Y-70207905D01*
X198645752Y-70223352D01*
X198669982Y-70241725D01*
X198691819Y-70262876D01*
X198710627Y-70286319D01*
X198726272Y-70312016D01*
X198737522Y-70336750D01*
X198745315Y-70359854D01*
X198751877Y-70387928D01*
X198755569Y-70413954D01*
X198757444Y-70445368D01*
X198756691Y-70471682D01*
X198753000Y-70495618D01*
X198746355Y-70519202D01*
X198735825Y-70544354D01*
X198723028Y-70567206D01*
X198707383Y-70589656D01*
X198689524Y-70610281D01*
X198671300Y-70627211D01*
X198649397Y-70643523D01*
X198625386Y-70657586D01*
X198601522Y-70668500D01*
X198644641Y-70685814D01*
X198681749Y-70708508D01*
X198698048Y-70721872D01*
X198712844Y-70736580D01*
X198726138Y-70752633D01*
X198739288Y-70771889D01*
X198749275Y-70790307D01*
X198757482Y-70809752D01*
X198768127Y-70849289D01*
X198772478Y-70895150D01*
X198769952Y-70944594D01*
X198764026Y-70978254D01*
X198754659Y-71009739D01*
X198741851Y-71039048D01*
X198725602Y-71066182D01*
X198705913Y-71091141D01*
X198682791Y-71113918D01*
X198657065Y-71133971D01*
X198629283Y-71150938D01*
X198599444Y-71164820D01*
X198571194Y-71174570D01*
X198537470Y-71182625D01*
X198505767Y-71187196D01*
X198468159Y-71189424D01*
X198429738Y-71188591D01*
X198393272Y-71184750D01*
X198362584Y-71178812D01*
X198333522Y-71170500D01*
X198302769Y-71158310D01*
X198277160Y-71144950D01*
X198253175Y-71129216D01*
X198228169Y-71108766D01*
X198208458Y-71088891D01*
X198191466Y-71067516D01*
X198175600Y-71041676D01*
X198163174Y-71013937D01*
X198153404Y-70980891D01*
X198148242Y-70949145D01*
X198146522Y-70915500D01*
X198272522Y-70915500D01*
X198274626Y-70945867D01*
X198281599Y-70975617D01*
X198293452Y-71002305D01*
X198310187Y-71025930D01*
X198333383Y-71047899D01*
X198358717Y-71064285D01*
X198387305Y-71076173D01*
X198419147Y-71083562D01*
X198454243Y-71086454D01*
X198492135Y-71084848D01*
X198524054Y-71079328D01*
X198554461Y-71069047D01*
X198579010Y-71055473D01*
X198600010Y-71037990D01*
X198618385Y-71014748D01*
X198631334Y-70989652D01*
X198639198Y-70965775D01*
X198644225Y-70939476D01*
X198646475Y-70908022D01*
X198645474Y-70879104D01*
X198641851Y-70854963D01*
X198634876Y-70830664D01*
X198624771Y-70808729D01*
X198612866Y-70790838D01*
X198595165Y-70771947D01*
X198572030Y-70754832D01*
X198547303Y-70742328D01*
X198516866Y-70732353D01*
X198488147Y-70726812D01*
X198459680Y-70724083D01*
X198346522Y-70723500D01*
X198346522Y-70620500D01*
X198449780Y-70620307D01*
X198490928Y-70615940D01*
X198514171Y-70610354D01*
X198537538Y-70601672D01*
X198558600Y-70590331D01*
X198575749Y-70577714D01*
X198593857Y-70560211D01*
X198607417Y-70542250D01*
X198618772Y-70520500D01*
X198626031Y-70498586D01*
X198630513Y-70472523D01*
X198631480Y-70446105D01*
X198629452Y-70415519D01*
X198624384Y-70387992D01*
X198614627Y-70359742D01*
X198600732Y-70335656D01*
X198582697Y-70315732D01*
X198560523Y-70299972D01*
X198534209Y-70288375D01*
X198499069Y-70280219D01*
X198463886Y-70277542D01*
X198426977Y-70279439D01*
X198393963Y-70286496D01*
X198366421Y-70297741D01*
X198340417Y-70314781D01*
X198318038Y-70336484D01*
X198301625Y-70359788D01*
X198289901Y-70386059D01*
X198282867Y-70415296D01*
X198280522Y-70447500D01*
X198155522Y-70447500D01*
X198157203Y-70415123D01*
X198161519Y-70387705D01*
X198169550Y-70358392D01*
X198179511Y-70333696D01*
X198193892Y-70307446D01*
X198209498Y-70285473D01*
X198230229Y-70262285D01*
X198254240Y-70240789D01*
X198283361Y-70220222D01*
X198311491Y-70204969D01*
X198341439Y-70192800D01*
X198373208Y-70183717D01*
X198406795Y-70177718D01*
X198446248Y-70174671D01*
X198488417Y-70175385D01*
G37*
%TD*%
M02*
